<?xml version="1.0" encoding="utf-8"?>
<!-- Generator: Adobe Illustrator 26.0.2, SVG Export Plug-In . SVG Version: 6.00 Build 0)  -->
<svg version="1.1" id="Layer_1" xmlns="http://www.w3.org/2000/svg" xmlns:xlink="http://www.w3.org/1999/xlink" x="0px" y="0px"
	 viewBox="0 0 765.6 130.6" style="enable-background:new 0 0 765.6 130.6;" xml:space="preserve">
<style type="text/css">
	.st0{fill:#2E8888;stroke:#2E8888;stroke-miterlimit:10;}
	.st1{fill:none;stroke:#2E8888;stroke-miterlimit:10;}
	.st2{fill:#2E8888;stroke:#2E8888;stroke-width:2;stroke-linecap:round;stroke-linejoin:round;stroke-miterlimit:10;}
	.st3{fill:none;stroke:#2E8888;stroke-width:2;stroke-linecap:round;stroke-linejoin:round;stroke-miterlimit:10;}
</style>
<g>
	<g>
		<path class="st0" d="M764.3,63c-1.8,0-3.5,0.1-5.2,0c-10-0.3-10-0.3-14.3,9.3c3.9,4.4,11.1,1,15.6,6.8c-3.8-0.4-6.6-0.7-9.4-1
			c-2.8-0.3-5.7-0.7-8.5-0.9c-0.8-0.1-1.8,0.1-2.4,0.6c-3.3,2.8-6.5,5.6-9.7,8.5c8.3,4.5,17,6.5,28.6,6.8c0.3,1.3,1,2.8,0.7,3.9
			c-0.3,1.1-1.8,2.8-2.7,2.8c-26.5-0.2-53-0.6-79.4-0.9c-14.7-0.1-29.5,0-44.2,0c-30.7,0-61.4,0-92.1,0.1c-18.4,0-36.8,0.1-55.2,0.1
			c-18.3,0-36.5-0.1-54.8-0.1c-23,0-45.9,0-68.9,0.1c-23.8,0-47.6,0.1-71.4,0.1c-18,0-36-0.3-54.1-0.4c-23.5,0-47.1,0.2-70.6,0.1
			c-17,0-33.9-0.3-50.9-0.4c-12.2-0.1-24.4,0-36.6,0.1c-17.6,0.1-35.2,0.3-52.9,0.5c-5.8,0.1-11.6,0.6-17.3,0.5
			c-1.6,0-3.2-1.3-4.8-2c1.6-1.9,2.9-4.6,4.9-5.6c3-1.3,6.6-1.2,9.9-2c3.7-0.9,7.3-2.1,12.1-3.5c-4-3.6-7-6.6-10.3-9.2
			c-0.7-0.6-2.3,0-3.5,0.2c-3.4,0.6-6.9,1.4-10.3,1.9c-0.8,0.1-1.7-0.4-2.6-0.7c0-0.4,0-0.9-0.1-1.3c4.4-0.9,8.8-1.7,14-2.8
			c-2.6-4.2-4.7-7.9-7.1-11.5c-0.3-0.5-1.9,0-2.8-0.2c-0.8-0.2-1.4-0.7-2.1-1.1c0.5-0.6,1-1.2,1.4-1.9c0.6-0.9,1.6-2.1,1.5-2.9
			C7,49.9,5.1,42.8,3.5,35.6c-0.1-0.6,1.7-2.5,2.6-2.5c24.6-0.2,49.1-0.4,73.7-0.4c19.4,0,38.7,0.4,58.1,0.5c19,0.1,38,0.2,57,0.1
			c13.8-0.1,27.7-0.7,41.5-0.8c7.4-0.1,14.8,0.5,22.2,0.5c17.9,0,35.7-0.3,53.6-0.3c20.1,0,40.2,0.1,60.3,0
			c18.3,0,36.6-0.3,54.8-0.3c9.3,0,18.7,0,28,0c5.9,0,11.8-0.2,17.8-0.1c17,0.1,33.9,0.3,50.9,0.3c11.9,0,23.7-0.3,35.6-0.3
			c37.3,0,74.6,0.2,111.9,0.1c16.5,0,33-0.3,49.4-0.4c10.8,0,21.7,0.1,32.5,0.2c3,0,4.2,1.9,3.6,5c-0.8,4.7-1.4,9.5-2.1,14.2
			c-0.2,1.1-0.5,2.2-0.9,3.2c-1.6,3.9-1.5,3.9,2.8,4.5c2.6,0.3,5.2,1,7.8,1.6C764.4,61.5,764.3,62.2,764.3,63z M407.9,62.5
			c-0.4,0.1-0.7,0.2-1.1,0.4c-0.7-1.2-1.2-2.5-2-3.5c-3.3-3.9-5-8.4-6.4-13.4c-3.1-10.9-3.2-9.9-10-9.2c-3.5,0.3-4.9,0.3-4.5,5
			c0.8,9.7,5.1,17.8,9.6,25.9c3.9,7.1,10.5,12.2,17.2,16.4c10.5,6.6,22.5,9.1,34.6,8.6c7.1-0.3,14.4-3.4,21.2-6.1
			c5.8-2.3,11-6.1,15.2-10.8c2.7-3,4.7-6.7,7-9.9c0.4-0.5,1.1-0.7,1.7-1c0.4,0.2,0.7,0.5,1.1,0.7c-1.6,2.9-3.1,5.8-4.8,8.9
			c10.8,3.8,21.5,4.8,32.3,0.5c3.7-1.4,3.8-2.7,1.3-5.9c-0.7-0.9-0.8-2.4-1.6-3.3c-1.2-1.4-2.7-3.4-4.1-3.5c-2.8,0-5.6,1.5-8.4,1.6
			c-3.9,0.2-7.8-0.2-11.7-0.3c0-0.3,0-0.7,0-1c-0.8,0.6-1.6,1.2-2.4,1.8c-0.4-1.8-0.2-3.3,0.3-4.6c1.6-4.7,3.8-9.3,5-14.1
			c1.9-7.6,0.8-8.7-7-8.5c-0.4,0-0.8,0-1.1,0c-2.6-0.1-4,1.1-4.8,3.8c-1.6,5.2-3.2,10.5-5.6,15.3c-2.2,4.4-5.3,8.5-8.6,12.2
			c-2,2.2-5.1,3.4-7.6,5c-0.3-0.4-0.5-0.7-0.8-1.1c0.4-0.6,0.6-1.4,1.1-1.7c4.3-2.3,7.1-5.8,10.1-9.6c4.6-5.8,7.5-11.9,8.2-19.2
			c0.5-4.5-0.1-5.2-4.7-5.1c-6,0.1-12.1,0.2-18.1,0.1c-3.1-0.1-5.2,0.5-6.8,3.8c-2,3.9-5.5,7.2-10.3,7.1c-4.4,0-8.3-1.4-10.5-6
			c-2.5-5.3-7.5-6.8-13.5-4.3c0.8,4-0.8,8.5,3.3,11.7c2.1,1.7,3.8,4.1,6,5.7c2.7,1.9,5.6,4.2,8.7,4.6c9.3,1.2,17.7-1.5,23.8-8.9
			c2.2-2.8,3.6-6.2,5.5-9.3c0.6-1,1.9-1.6,2.9-2.4c0,1.2,0.5,2.7,0,3.6c-2.7,5.2-5.4,10.1-10.6,13.7c-12.2,8.4-22.6,7.3-33.5-0.7
			c-5.5-4.1-8.2-9.9-10.1-16.2c-0.7-2.5-1.9-2.8-4-2.6c-0.9,0.1-1.8,0.1-2.6,0.1c-5.8-0.3-7.6,1.3-6,7c1.4,5.1,4,9.9,6,14.9
			C407,59.9,407.4,61.2,407.9,62.5z M679.2,75.3c-0.3,0.4-0.6,0.8-0.9,1.2c-1.5-0.8-3-1.6-4.6-2.3c-6-2.4-10-7.3-13.3-12.4
			c-3.2-4.9-5.4-10.5-7.8-16c-0.9-2.2-1.1-4.6-1.6-7c-0.8-3.6-3.8-1.6-5.7-1.8c-2-0.2-4.2,0.7-6.3,1.3c-0.1,0-0.1,0.9,0,1.4
			c0.6,4.6,0.7,9.3,1.9,13.6c1.5,5.2,3.3,10.2,6.9,14.7c3,3.6,6.7,6.5,9.5,10.4c3.4,4.7,9.2,8.1,14.7,10.8
			c4.7,2.3,10.3,3.2,15.5,3.8c6.2,0.6,12.7,0.9,18.8,0c9-1.3,16.7-6.4,24.4-10.9c2.9-1.7,5.7-3.7,7.9-6.2
			c7.5-8.5,12.2-18.6,13.8-29.8c1.3-9.1,1-8.9-8.3-8.9c-3.7,0-4.1,2.1-4.6,4.6c-0.7,3.3-0.9,6.8-2.2,9.8c-2.1,4.9-4,10.5-7.7,14.1
			c-4.8,4.7-11,8.1-16.9,11.6c-9.7,5.6-19.9,3.4-30,1.4c-0.8-0.2-1.4-1.5-2.4-2.6c5.5,0.6,10.3,0.8,15,1.6
			c10.8,1.9,19.4-3.6,27.5-8.8c7.9-5.2,12.3-13.8,13.3-23.3c0.9-9,2.7-7.9-6.7-8.3c-4.8-0.2-5.3,0.4-6.4,5.2
			c-1.1,4.8-2.7,9.6-8.7,12.7c0.6-1.7,0.9-2.5,1.2-3.3c1.1-2.5,2.5-5,3.3-7.6c2.1-6.3,1.6-6.9-5-6.8c-1.9,0-3.7,0-5.4,0.1
			c-0.3,1.7-0.1,3.2-0.7,4.3c-2.9,5.4-8,7.3-13.8,7.5c-5,0.1-10.7-4.9-11.6-10.2c-0.2-0.9-1.8-2.2-2.8-2.2c-2.9,0-5.8,0.6-8.7,1
			c-0.1,0,0,0.9,0,1.4c0.1,8.1,4.2,14.2,10.8,17.9c9.4,5.3,19.3,6.2,28.6-0.9c0.7-0.5,1.9-0.5,2.9-0.7c0.2,0.4,0.3,0.8,0.5,1.2
			c-2.4,1.5-4.7,3.3-7.2,4.6c-6.4,3.2-12.7,3.2-19.7,1c-5.3-1.7-9.2-5-12.9-8.6c-2.8-2.7-4.9-6.7-6.2-10.5c-1.9-5.9-1.5-6-7.6-6.1
			c-0.8,0-1.5,0-2.3-0.1c-3-0.2-5,2.2-3.8,4.9c2.2,4.7,2.6,10,5.7,14.6c3.9,6,7.5,11.7,14.3,14.8C676.3,72.1,677.7,73.9,679.2,75.3z
			 M36.5,37.2c-3.8-0.2-7.5-0.5-11.3-0.5c-0.7,0-2.1,1.6-2,2.2c1.5,6,2.6,12.2,5.1,17.7c1.9,4.2,5.2,8.1,8.6,11.3
			c3.3,3.1,7.4,6,11.7,7.4c7,2.4,14.5,2.5,22,2.2c8.1-0.3,15-4,20.4-8.5c8.1-6.8,13.9-16,13.4-27.7c-0.2-4.2-0.6-5-4.8-4.9
			c-6.2,0.1-12.3,0.5-18.4,0.4c-3.2-0.1-4.7,0.9-5.6,4.1c-2,7.3-14.2,10.8-18.8,4.8c-2.1-2.7-4-5.5-6.5-8.9c-2.2,0-5.4-0.1-8.5,0.2
			c-0.9,0.1-2.3,1.7-2.3,2.4c0.8,7.2,4.1,13.1,10.3,17c7.6,4.8,15.8,5.2,24.3,2.7c1.1-0.3,2.4-0.1,3.6-0.1c0,0.3,0,0.7,0,1
			c-8.3,4.2-17.2,4.6-25.6,0.7C42.7,56.2,37,48.4,36.5,37.2z M13.7,36.8c-2,0.6-6-1.6-5.7,3.6c0.7,10.6,3.5,20.7,9.4,29.6
			c1.1,1.6,2.9,2.8,4.1,4.3c5.6,6.8,12,13,20.2,16c13.8,5.1,27.9,7.7,42.5,1.6c8-3.3,14.9-7.7,20.8-14.1
			c8.8-9.5,13.9-20.6,16.1-33.2c1.3-7.7,1.3-7.7-6.7-8c-5.5-0.2-5.5-0.2-6.3,5.2c-1.8,11.9-7.3,21.5-16.7,29.4
			c-7.2,6.1-15.4,8.4-24.2,9c-4.9,0.4-10.2-0.1-14.9-1.7c-5.7-1.9-12-3.3-16.3-8.2c-2.6-3-5.1-6.2-7.8-9.2c-4.4-4.9-6.2-11-7-17.2
			C20.7,38.4,19.7,36.8,13.7,36.8z M141.3,36.5c-6.6,0.4-6.8,0.7-5.6,7c0.1,0.7,0.3,1.5,0.3,2.2c0.4,11,5.7,20.2,11.7,28.9
			c4.6,6.8,10.9,12.2,18.8,15c6.1,2.2,12.4,4.2,18.8,5.2c4.9,0.8,10.2,0.4,15.1-0.5c6.1-1.1,12.3-2.6,18-5
			c7.9-3.3,13.6-9.7,19.5-15.7c2.1-2.2,4.3-4.7,5.3-7.5c2.6-7,4.9-14.3,6.7-21.5c1.9-7.6,1.6-7.7-6.3-7.9c-5.3-0.2-6,0.8-6.9,6.1
			c-0.7,4.5-1.6,9.3-3.7,13.2c-6.2,11.9-14.7,21.3-28.8,24.4c-11.6,2.6-22.5,1.3-33.1-3.8c-5.7-2.8-9.4-7.7-13.5-12.3
			c-5.8-6.5-9.1-13.7-9.8-22.3C147.6,36.8,146.7,36.2,141.3,36.5z M627.9,36.9c-3.7,0-7.1,0-10.4,0.2c-0.7,0-1.6,1.2-1.8,2
			c-2.1,6.6-2.9,13.6-7.4,19.3c-2.3,2.9-3.8,6.6-6.6,8.9c-5.3,4.5-10.9,8.7-18.1,10.2c-5.5,1.2-10.7,3.5-16.5,2
			c-3.3-0.8-6.5-1.9-9.9-2.4c-9.6-1.2-15.9-7.4-21.8-14.2c-4.9-5.7-7.2-12.8-9.4-19.8c-2-6.4-2-6.5-8.8-6.1c-0.2,0-0.6-0.1-0.7,0
			c-0.8,0.8-2.2,1.5-2.4,2.5c-1.4,6.2,0.3,11.9,2.8,17.7c5.7,13,13.3,23.7,26.8,29.8c6.2,2.8,12.3,5.3,18.9,5.9
			c14.5,1.3,28.4-0.7,40.5-9.9c8.4-6.4,15.7-13.6,19.6-23.7C625.3,52.2,627.4,45,627.9,36.9z M257.6,36.9c0,3.5-0.7,6.7,0.2,9.2
			c3.2,8.4,6,17.1,10.8,24.6c3.6,5.6,9.6,9.9,15.2,13.9c3.6,2.6,8.2,3.7,12.3,5.6c11.3,5.1,22.9,5.4,34.4,1.5
			c6.3-2.2,12.4-5.5,18.1-9c3.6-2.2,6.4-5.8,9.6-8.7c5.9-5.3,8-13,11.2-19.7c2.4-5,2.5-11,3.7-17.1c-4.4,0-8.3,0.1-12.5,0.1
			c-0.5,1.8-1.3,3.6-1.5,5.5c-0.9,8-5,14.6-9.5,20.8c-2.2,3.1-5.7,5.1-8.5,7.8c-5.8,5.8-13.5,7.9-21,8.5c-8.6,0.8-17.1,0.3-25.5-4.4
			c-6.3-3.6-11.6-7.7-15.8-13.2c-5-6.6-8.5-13.9-8-22.6c0-1-1.4-2.9-2.3-2.9C265,36.6,261.5,36.9,257.6,36.9z M273.8,43
			c0.4,7.7,3.3,14.1,8.6,19.8c6,6.6,12.9,11.2,21.5,13.5c9,2.4,17.9,2.8,26.4-1.4c5.4-2.7,10.8-5.9,15-10.1c3.6-3.5,5.8-8.6,8-13.3
			c1.7-3.7,2.4-7.8,3.2-11.8c0.2-0.8-1.3-2.6-2.2-2.8c-2.4-0.5-5-0.3-7.5-0.6c-3.9-0.4-5.7,1.1-6.3,5c-1.6,9.2-8.1,15-15.9,18.6
			c-13.9,6.6-31.2-1.2-36.9-15.5c-0.6-1.6-0.9-3.4-1.6-5c-0.4-1-1.4-2.3-2.2-2.3c-3-0.2-6,0.1-9,0.3c-0.2,0-0.5,1.1-0.5,1.7
			C274,40.5,273.9,41.7,273.8,43z M195.1,79.9c2.8-0.6,5.5-1.6,8.3-1.8c7.2-0.3,12.4-5,17.4-9.1c6.5-5.3,9.8-13.1,12.2-21.2
			c2.4-8.3,0.8-10.8-7.6-10.9c-0.4,0-0.8,0-1.1,0c-2.6-0.2-3.9,0.8-3.8,3.7c0.2,7.1-4.3,12.4-8.9,16.5c-7,6.2-15.2,9.2-25.5,6.6
			c-11.7-3-17.2-10.8-21-20.9c-2.2-5.9-1.8-6-8-5.9c-0.8,0-1.5,0.1-2.3,0c-2.9-0.3-3.8,1.1-3.8,3.8c0,5.4,1.6,10.2,3.8,15.1
			c3.6,8.1,9.7,13.4,16.7,17.9C178.6,78.1,186.6,79.7,195.1,79.9z M573,77.4c4-1,6.9-1.8,9.8-2.5c10-2.4,17.8-7.9,22.8-16.8
			c3.4-6,5.4-12.5,6.5-19.3c0.1-0.5-0.7-1.6-1.1-1.6c-3.9-0.1-7.8-0.2-11.7,0.1c-0.8,0.1-1.9,2-2.2,3.2
			c-2.8,12.4-10.2,19.4-22.9,21.5c-10.4,1.7-18.6-1.7-25-9.2c-3-3.6-4.3-8.6-6.6-12.9c-0.6-1.2-1.9-2.7-3-2.8
			c-3.1-0.3-6.3,0-9.4,0.3c-0.8,0.1-2.1,1.1-2,1.6c0.3,3.6,0,7.8,1.8,10.7c3.3,5.2,5.5,11.4,10.7,15.3c3.9,2.9,7.4,6.8,11.8,8.3
			C559.2,75.5,566.7,76.2,573,77.4z M552.8,37.3c0-0.2,0-0.3,0-0.5c-1,0-2,0.1-3,0c-3-0.1-4,0.7-3.7,4.2c0.4,6.8,4.9,11,9.5,14.2
			c9.8,6.7,23.5,6.8,32.8-3.1c3.5-3.7,4.8-8,5.5-12.7c0.1-0.6,0-1.3-0.3-1.8c-1.2-1.6-9.2-0.6-10.3,1.1c-1.7,2.5-3.1,5.5-5.4,7
			c-5.5,3.8-13.9,2.3-18.6-2.8c-0.8-0.9-0.6-2.6-0.9-3.9c1,0.6,2.3,1.1,2.9,2c4.1,6.6,14.1,4.8,17.3-0.3c1.4-2.2,0.7-3.6-2-3.6
			C568.6,37.1,560.7,37.2,552.8,37.3z M182.8,37.7c-0.8-0.7-1.3-1.5-1.8-1.5c-3.7,0.1-7.4,0.1-11.1,0.6c-0.8,0.1-2.2,1.9-2.1,2.7
			c0.8,6.5,3.3,12.4,8.4,16.7c4.7,4,10.3,5.2,16.7,5.3c11.8,0,18.8-6.5,23-16.1c2.6-5.9,4.1-9.3-5.6-8.9c-0.6,0-1.3,0.1-1.9,0
			c-2.9-0.4-3.8,1.1-4,3.7c-0.1,1.4-0.4,3.1-1.2,4.1c-4.2,5.1-10.6,8.7-18.5,3.3C180.8,45,179.7,40.6,182.8,37.7z M535,84.4
			c-2.2-1.9-4.8-3.8-7.1-6.2c-1.8-1.9-3.7-2.1-6.1-1.5c-4.7,1.3-9.3,2.5-14.1,3.4c-8.3,1.6-15.9-0.8-23-3.6
			c-3.2,2.3-6.5,4.6-9.5,7.1c-0.5,0.4-0.5,2.4,0,2.8c7.5,5.5,16.7,7,25.3,7.2C512.4,93.9,524.8,92.8,535,84.4z M295.3,36.4
			c-1.6,0.2-3,0.1-4.3,0.5c-0.7,0.2-1.9,1.4-1.8,1.8c1,3.5,1.5,7.4,3.6,10.1c4.4,5.8,10.3,9.7,17.7,11.2c5.7,1.1,11.4-0.3,15.4-3.2
			c4.8-3.5,9.5-8.1,11.3-14.3c0.5-1.6,0.5-4.2-0.4-5.2c-2.5-2.6-10.3-0.3-11.8,3c-3.1,6.9-10.5,9.9-16.9,6.2c-2.8-1.6-5.9-4.2-7-7.1
			C299.8,35.9,297.4,36.7,295.3,36.4z M407.6,84.6c-2.7-1.9-5.5-3.6-7.8-5.8c-2.3-2.2-4.6-2.6-7.6-1.6c-3.1,1-6.3,1.9-9.5,2.6
			c-7.4,1.7-14.4-0.3-21.5-1.9c-1.5-0.3-3.7,0-4.9,0.9c-2.4,1.9-4.3,4.4-6.5,6.6C360.6,94.2,391.6,97.5,407.6,84.6z M637.5,93.9
			c6.4-1.5,13-2.7,19.2-4.8c5.6-1.8,5.5-2.2,1.2-6.3c-3.5-3.4-6.8-6-12.5-4.2c-4.2,1.3-9,1.2-13.5,0.9c-4.8-0.4-9.6-2-14.4-2.8
			c-1.5-0.2-3.4-0.2-4.5,0.5c-2.2,1.5-4.2,3.4-6,5.5c-0.5,0.6-0.6,2.7-0.1,3.1c2.4,1.8,4.9,3.9,7.7,4.5
			C622.1,91.9,629.7,92.8,637.5,93.9z M107.9,77c-2.4,3.2-4.7,6.1-7,9.1c10.6,10.1,48.7,9.4,53.7-1.1c-1.6-1.7-3.4-3.3-4.7-5.2
			c-1.7-2.4-3.4-2.6-6.1-1.7C131.8,82.1,119.8,83.1,107.9,77z M228.2,87.5c9,4.9,18.8,4.7,28.3,5.2c8.1,0.4,15.6-2.1,22.6-7.2
			c-1.7-1.8-3.4-3.6-5-5.4c-2.3-2.6-4.9-3.1-8.4-2.4c-7.6,1.6-15.4,2.5-23.2,0.8c-1.9-0.4-4.5-0.7-5.7,0.3
			C233.7,81.2,231.2,84.3,228.2,87.5z M635,37c-3.1-0.2-3.7,0-4.4,2.8c-1.1,4.5-1.8,9.1-3.3,13.4c-2.1,5.9-4.7,11.6-7.6,17.1
			c-1.3,2.5-1.5,3.7,1.5,4.2c5.8,0.9,11.7,2.1,17.6,2.3c3.4,0.1,6.8-1.4,10.7-2.3c-1.1-1.8-1.7-2.7-2.3-3.6c-0.7-1-1.6-2-2.1-3.1
			c-2.3-4.6-3-4.9-8.1-4.2c-3.2,0.4-6.9,1.2-10.4-2.6c2.5-0.1,4.1-0.3,5.7-0.3c2.3,0,4.7,0.2,7-0.2c0.7-0.1,1.7-2,1.5-2.8
			C638.9,51,637,44.2,635,37z M111.3,74.6c11.2,6.2,22.2,2.8,33.9,0.7c-2.1-3.5-4.1-6.2-5.6-9.2c-1.2-2.4-2.8-2.9-5.5-2.7
			c-5.3,0.4-10.7,0.2-16.1,0.3C115.9,67.2,113.7,70.8,111.3,74.6z M387.4,62.2c-5.7,1.2-11,3.7-16.7,0.8c-0.5-0.3-1.9,0.5-2.4,1.1
			c-2,2.6-3.7,5.4-5.5,8c-1.6,2.2-0.5,3.1,1.7,3.6c4.5,0.9,8.8,2.2,13.5,1.9c5.7-0.4,11.1-1,17-3.4
			C392.2,69.9,389.8,66.1,387.4,62.2z M514.1,59.7c-1.5-6-2.8-11-4-16.1c-1.7-7-1.6-7-8.7-6.2c-0.2,0-0.4,0.2-0.1,0
			c-1.9,7.1-3.6,13.6-5.2,20.3c-0.2,0.8,1.1,2.7,1.6,2.7C503.3,60.3,508.8,59.9,514.1,59.7z M135.9,60.3c0-1.3,0.1-2.3-0.1-3.3
			c-1.1-6-1.9-12.1-3.5-18c-0.4-1.3-3.7-2-5.8-2.5c-0.6-0.1-2.1,1.2-2.2,2c-1.5,6.5-2.8,13-4,19.5c-0.1,0.7,0.9,2.3,1.4,2.3
			C126.4,60.5,131.1,60.4,135.9,60.3z M240.8,74.8c8.5,1.6,16.4,1.2,24.2,0.3c0.6-0.1,1.6-1.7,1.4-2.3c-2.4-7.5-6-9.8-13.9-9.4
			c-1.1,0.1-2.4,0-3.4,0.4c-1.2,0.5-2.6,1.2-3.2,2.2C244.2,68.6,242.8,71.4,240.8,74.8z M385.7,59c-1.6-6.3-3-12.5-4.7-18.5
			c-0.4-1.3-1.5-2.5-2.3-3.7c-1,0.9-2.5,1.7-2.9,2.8c-1.8,5.6-3.3,11.2-4.8,16.9c-0.2,0.8,0.1,2.1,0.7,2.5
			C374.9,61.4,382.7,61,385.7,59z M558.7,95.5c-5.7-2-11.2-3.5-16.2-5.9c-3-1.4-5.3-5.1-8.7-0.8c-0.2,0.3-1,0.2-1.4,0.4
			c-5.2,1.9-10.4,3.8-15.6,5.7c0,0.3,0,0.6,0.1,0.9C530.8,95.8,544.6,95.7,558.7,95.5z M449,94c0,0.5,0.1,0.9,0.1,1.4
			c13.5-0.2,27-0.3,40.5-0.4c-1.8-0.9-3.7-1.3-5.6-2c-3-1.2-6.2-2.1-8.9-3.9c-2.4-1.6-4.5-1.5-6.8-0.8c-5.2,1.6-10.4,3.3-15.6,4.9
			C451.6,93.6,450.3,93.7,449,94z M621.2,95.4c0.1-0.3,0.2-0.5,0.3-0.8c-1.7-0.7-3.4-1.4-5.1-2c-3.8-1.3-7.9-2.1-11.3-4
			c-2.9-1.6-4.9-0.7-7.3,0.4c-3.7,1.7-7.6,3.1-11.4,4.6c-0.7,0.3-1.5,0.5-2.2,0.7c0,0.5,0.1,0.9,0.1,1.4
			C596.6,95.7,608.9,95.5,621.2,95.4z M432.2,95.4c0-0.2,0-0.5,0-0.8c-4.2-1.3-8.4-2.6-12.6-4c-3.8-1.3-7.4-3.8-11.8-1.8
			c-2.9,1.3-6.1,2.3-9.1,3.5c-1.9,0.8-3.9,1.6-5.8,2.4c0.1,0.3,0.1,0.7,0.2,1C406.2,95.7,419.2,95.5,432.2,95.4z M300,95.2
			c-4.3-2.1-8.3-4.3-12.4-5.8c-2.1-0.8-4.7-0.9-6.8-0.3c-5.9,1.6-11.6,3.7-17.4,5.6c-0.1,0-0.1,0.4-0.3,1
			C275.4,95.5,287.6,95.4,300,95.2z M710.8,94.2c0.1,0.5,0.2,1.1,0.2,1.6c13.1-0.1,26.2-0.3,40.3-0.4c-1.2-0.8-1.5-1.1-1.8-1.1
			c-6.2-1.4-12.4-2.8-18.6-4.1c-1.7-0.4-3.5-1.3-5-0.9C720.8,90.6,715.8,92.5,710.8,94.2z M172.9,95.7c0.1-0.2,0.1-0.4,0.2-0.7
			c-2.5-1-5.3-1.6-7.3-3.1c-4.3-3.3-8.2-3.9-13.2-1.4c-4,2-8.6,3.1-12.9,4.5c0.1,0.3,0.2,0.7,0.2,1C151,95.9,162,95.8,172.9,95.7z
			 M192.9,46.4c3.4,0.5,6.4-1.1,7.9-4.7c0.5-1.3-0.3-4.5-0.8-4.6c-4.7-0.3-9.4-0.3-14.1-0.1c-0.6,0-1.6,1.5-1.6,2.4
			C183.9,44,187.1,46.7,192.9,46.4z M331.2,94.5c-0.1,0.3-0.1,0.6-0.2,1c11.2-0.1,22.3-0.2,33.6-0.4c-0.3-0.4-0.4-0.6-0.6-0.7
			c-5.3-2.1-10.7-4.2-16-6.2c-0.8-0.3-2-0.3-2.8,0C340.5,90.2,335.8,92.4,331.2,94.5z M682.2,95.3c-5.1-2.2-9.7-4.1-14.3-6
			c-0.8-0.3-1.8-0.8-2.5-0.5c-5.5,1.8-11,3.9-16.5,5.8c0,0.3,0.1,0.7,0.1,1.1C659.9,95.5,670.8,95.4,682.2,95.3z M14.9,94.4
			c0,0.4,0,0.8,0,1.2c10.1-0.1,20.3-0.2,30.8-0.3C35.2,85.3,25,91.4,14.9,94.4z M60.5,37.2c-0.8-0.1-1.9-0.2-3.1-0.2
			c-2.3,0-2.5,1.4-1.8,3c2.6,5.6,10.1,7.7,14.9,3.9c1.5-1.2,1.9-3.8,2.8-5.8c-1.5-0.5-2.9-1.3-4.4-1.4
			C66.3,36.7,63.6,37.1,60.5,37.2z M686.5,37.8c0.6,4.2,3.8,7.8,7.3,8.3c4.5,0.6,8.8-2.3,11.9-8.5C699.1,37.7,692.9,37.8,686.5,37.8
			z M83.3,94.7c0,0.3-0.1,0.5-0.1,0.8c9.5-0.1,19-0.2,28.5-0.3c-4.5-2.5-9.1-4.5-13.7-6.3c-0.8-0.3-2-0.2-2.8,0.2
			C91.2,90.9,87.2,92.9,83.3,94.7z M212.2,94.7c0,0.3-0.1,0.6-0.1,0.9c9.9-0.1,19.9-0.2,30.7-0.3c-1.2-0.8-1.6-1.2-2.2-1.4
			c-4.3-1.2-8.6-2.6-12.9-3.5c-2.3-0.4-4.9-0.2-7.1,0.4C217.7,91.7,215,93.4,212.2,94.7z M305.8,37.9c-0.1,4.3,2.1,6.4,6.9,6.7
			c3.6,0.2,9.4-3.4,9.4-5.9c0-0.4-0.2-1.2-0.5-1.3c-2.9-0.6-5.9-1.5-8.8-1.5C310.6,35.8,308.4,37.1,305.8,37.9z M449.7,38.2
			c-0.2-0.4-0.3-0.8-0.5-1.3c-4.7,0-9.3,0.1-14,0.2c-0.9,0-2.5,0.5-2.5,0.9c-0.1,1,0.2,2.2,0.8,3c2.1,2.8,5.3,4.2,8.6,3.6
			C445.7,44.1,447.9,41.1,449.7,38.2z M253.9,41.7c-0.3,0-0.6,0-0.9,0.1c-1.1,5.6-2.2,11.3-3.4,17.4c3.1,0.3,5.8,0.5,9.2,0.8
			C257,53.5,255.5,47.6,253.9,41.7z"/>
		<path class="st0" d="M0,2.6c1.1-0.5,2.2-1.4,3.3-1.4c11.4,0,22.9,0.2,34.3,0.3c8,0,16.1-0.1,24.2-0.1c15.6,0,31.2,0,46.9,0
			c16,0,32-0.2,48.1-0.3c15.6,0,31.3,0.1,46.9,0c15.5-0.1,31-0.3,46.5-0.4c22.6,0,45.1,0.1,67.7,0.1c8,0,16.1-0.1,24.1-0.1
			c20.6,0,41.3,0.1,61.9,0.1c13.2,0,26.4-0.2,39.6-0.3c11.2,0,22.4,0.1,33.6,0.1c4.5,0,9-0.1,13.5-0.1c11,0.1,22,0.3,33,0.3
			c16.5-0.1,33-0.5,49.5-0.5c12.1,0,24.2,0.3,36.2,0.4c18.5,0,37-0.1,55.6-0.1c20.4,0,40.8,0,61.3-0.1c9.4,0,18.9-0.2,28.3-0.2
			c1,0,2.3-0.3,3,0.2c1.2,0.9,1.9,2.2,2.8,3.4c-1,0.5-2,1.4-3,1.4c-13.5,0.1-27,0.1-40.5-0.1c-20-0.3-40-1-60.1-1.1
			c-34.9-0.1-69.8,0.3-104.8,0.4c-15.6,0-31.2-0.2-46.9-0.3c-15.5,0-31,0.1-46.4,0.1C444.9,4.3,431.2,4,417.5,4
			c-10.8,0-21.7,0.4-32.5,0.5c-9.3,0.1-18.6-0.2-27.9-0.2c-7.8,0-15.6,0.1-23.4,0.2c-12.4,0-24.7-0.1-37.1,0
			c-14.9,0-29.7,0.1-44.6,0.1c-19.9,0-39.7-0.1-59.6,0c-11.1,0-22.2,0.2-33.3,0.2c-29.9,0-59.9,0-89.9,0C51.6,4.6,34,4.8,16.4,4.8
			c-5.3,0-10.6-0.3-16-0.5C0.3,3.8,0.1,3.2,0,2.6z"/>
		<path class="st1" d="M2.4,127c126.3-0.9,252.6-0.5,378.8-0.4c126.1,0.1,252.2-0.2,378.2-0.4c1,3.4,0,4.4-2.7,4.3
			c-20.4-0.4-40.8-0.8-61.2-0.9c-22.5-0.2-45.1-0.1-67.6-0.1c-21.3,0-42.6,0.1-63.9,0.1c-21.9,0-43.8-0.2-65.8-0.2
			c-33.5,0-67.1,0.1-100.6,0.1c-15,0-30,0.1-45,0c-33.5,0-67.1-0.1-100.6-0.1c-27.4,0-54.9,0.2-82.3,0.2c-12.1,0-24.2-0.6-36.3-0.6
			c-13.8,0-27.7,0.4-41.6,0.5c-17.9,0-35.7-0.3-53.6-0.3c-9.6,0-19.3,0.5-29,0.7C6.9,129.9,4.1,130.4,2.4,127z"/>
		<path class="st1" d="M424.5,75c1.1,0.1,2.4-0.2,3.3,0.3c9.2,4.2,18.1,1.5,27-0.9c1.2-0.3,2.4-0.5,3.5-0.8c0.2,0.4,0.3,0.8,0.5,1.2
			c-3.2,1.3-6.3,3.2-9.6,3.8c-7.6,1.4-15.2,1.8-22.5-1.5C425.9,76.7,425.3,75.7,424.5,75L424.5,75z"/>
		<path class="st1" d="M424.6,74.9c-5.4,1-8.2-3.5-11.9-5.9c-1.7-1.1-2.8-3-3.5-5.2C414.3,67.6,419.4,71.3,424.6,74.9
			C424.5,75,424.6,74.9,424.6,74.9z"/>
		<path class="st1" d="M80,58.2c3.8-6.8,7.5-13.2,11.2-19.7C92.9,43.9,86.1,56.3,80,58.2z"/>
		<path class="st2" d="M3.3,127.9c6.6-0.1,13.1-0.2,19.7-0.2c10.5,0,21,0,31.4,0c7.5,0,14.9-0.2,22.3-0.2
			c11.4,0.1,22.7,0.3,34.1,0.3c28.3,0,56.6-0.1,84.8-0.1c15.9,0,31.8,0.2,47.7,0.2c15.5,0,31.1-0.1,46.6-0.1
			c13.4,0,26.8,0.3,40.1,0.3c17.7,0,35.4-0.1,53-0.2c16-0.1,32.1-0.1,48.1-0.2c15,0,30-0.1,45.1-0.1c5.5,0,11.1-0.3,16.7-0.2
			c13.1,0.3,26.3,0.9,39.4,1c10.6,0.1,21.2-0.6,31.8-0.6c16.9-0.1,33.8,0.2,50.8,0.1c19.2,0,38.4-0.2,57.6-0.2c24,0,48,0.2,72,0.3
			c4.4,0,8.8,0.4,13.3,0.6"/>
		<path class="st3" d="M526.8,35.8c-1.2,5.1,0.8,9.9,2.6,14.3c3.8,9.2,9.2,17.3,18.3,22.1c3.9,2.1,8.2,4.1,12.5,4.7
			c6.2,0.9,12.8,1.6,18.9,0.5c11.8-2,21.5-8.2,27.8-18.7c4.2-7.1,6.4-15,7.4-23.1"/>
		<path class="st3" d="M272.3,35.9c-0.5,10.1,1.8,19.2,8.5,27.3c6,7.2,13.5,12.1,22,14.5c7.9,2.2,16.4,2.4,25-0.4
			c7-2.3,12.5-6.4,17.9-10.8c2.6-2.1,4.2-5.6,6-8.7c1.5-2.6,3.1-5.2,4-8c1.3-4.2,2-8.6,3-12.9"/>
		<path class="st3" d="M376.8,34.6c1.1,0,2.3,0.1,3.4,0.2"/>
		<path class="st3" d="M390.5,34.4c1.4,0,2.8,0.1,4.2,0.1"/>
		<path class="st3" d="M402.6,34.3c2.9,0,5.8,0.1,8.7,0.1"/>
		<path class="st3" d="M415.1,37c0.7,10.6,6.6,17,16,21.7c6.1,3.1,11.6,2.6,17.1,0.5c6.1-2.3,11.8-5.6,14.7-12.1
			c1-2.3,2.4-4.3,3.7-6.5"/>
		<path class="st3" d="M560.1,97.3c-8.1,0.3-16.2,0.8-24.2,0.8c-7.2-0.1-14.4-0.8-21.6-1.2"/>
		<path class="st3" d="M491.1,97.3c-14.5-0.2-29-0.3-43.6-0.5"/>
		<path class="st3" d="M433.9,96.7c-3.1,0.3-6.3,0.8-9.5,0.8c-10,0.1-20,0-29.9,0c-1,0-2-0.4-3-0.7"/>
		<path class="st3" d="M590.1,2.3c8.6,0,17.2-0.1,25.8-0.1c12.5,0.1,25,0.3,37.5,0.3c11.6,0,23.2-0.2,34.8-0.3c1,0,2,0.2,3,0.3"/>
		<path class="st3" d="M1.1,2.9C5.4,3,9.7,3.2,14,3.2c23.9-0.1,47.7-0.3,71.6-0.4c14.8,0,29.5,0.2,44.3,0.2c11.5,0,23-0.3,34.5-0.3
			c14.3-0.1,28.5-0.1,42.8-0.1c10.7,0,21.5,0.4,32.2,0.3c15,0,30-0.4,45.1-0.4c11.2,0,22.5,0.3,33.7,0.3c8.3,0,16.7-0.3,25-0.2
			c10.7,0,21.5,0.3,32.2,0.3c5.3,0,10.6-0.5,15.9-0.5c9.6,0,19.2,0.4,28.8,0.4c11-0.1,22-0.6,32.9-0.7c10.6-0.1,21.2,0.2,31.8,0.3
			c3.7,0,7.3-0.1,11-0.1"/>
		<path class="st3" d="M496.1,2.4C511,2.5,526,2.6,540.8,2.7c9,0,17.9,0.1,26.9,0.1c1.3,0,2.5-0.3,3.8-0.4"/>
		<path class="st3" d="M578,2.5c3.3,0,6.6,0.1,9.8,0c0.6,0,1.2-1,1.9-1.5"/>
		<path class="st3" d="M165.9,36c0.1,13.2,8.2,23,20.7,26.4c16.6,4.4,30.7-9.1,32.7-22.8c0.2-1.1-0.2-2.3-0.4-3.4"/>
		<path class="st3" d="M738.9,36.1c-0.3,13.3-4.1,25.6-15,33.6c-8.1,6-17.3,11.2-28.5,9.4c-4.5-0.7-9.2,0-13.3-2.6"/>
		<path class="st3" d="M287.5,35.8c-0.7,16.9,19,30.1,34.3,24.1c9.8-3.9,17-10.8,17.6-22.4c0.2-3.2,2.9-2.3,4.5-3.1"/>
		<path class="st3" d="M354.1,34.5c1.6,0.4,3.3,0.8,4.9,1.3"/>
		<path class="st3" d="M235.9,36c-0.4,3-0.7,6.1-1,9.1c-1.3,10.8-6.8,19.9-14.7,26.4C210.6,79.4,199,81.9,186,80
			c-12.4-1.8-21-8.3-28.6-17.4"/>
		<path class="st3" d="M38.2,35.9C37,56,59.1,67.2,75.6,59.7c0.3-0.1,0.8,0,1.1,0"/>
		<path class="st3" d="M106.8,35.9c0,13.7-4.5,25.5-15.2,34.2c-7.9,6.4-17,9.9-27.5,8.7c-4.7-0.5-9.5-0.6-14-1.9
			C43.6,75,38.4,71.3,33.9,66c-4.9-5.7-9-11.7-11-19c-0.9-3.4-1.2-7-1.7-10.6"/>
		<path class="st3" d="M410.1,65.1c6,6.8,13.8,11,22.5,12.9c7.2,1.6,14.5,0,21.5-2.1c1.6-0.5,3-1.5,4.5-2.3"/>
		<path class="st3" d="M182.8,97c5.4-0.1,10.9-0.2,16.3-0.4"/>
		<path class="st3" d="M210.5,96.8c3.5,0.2,7.1,0.6,10.6,0.6c7.6-0.1,15.1-0.4,22.7-0.6"/>
		<path class="st3" d="M260.9,96.8c0.2,0.1,0.5,0.2,0.8,0.2c13.5,0,27,0,40.5-0.1"/>
		<path class="st3" d="M596.1,35.8c-0.3,5.5-1.6,10.7-4.8,15.2c-8.3,11.6-26.5,13.7-38.2,4.3c-6.4-5.1-8.6-11.9-9.3-19.6"/>
		<path class="st3" d="M610.1,34.7c-0.9,0-1.8-0.1-2.7-0.2"/>
		<path class="st3" d="M572.6,34.5c-2.3-0.1-4.5-0.2-6.8-0.3"/>
		<path class="st3" d="M507.1,35c-4.7,0-9.3,0-14,0"/>
		<path class="st3" d="M483.3,37.8c-1.6,5.7-2.4,11.8-4.9,17c-3.4,7.1-8.1,13.6-15.5,17.3"/>
		<path class="st3" d="M581.7,96.2c1.3,0.5,2.5,1.4,3.8,1.4c11.9,0,23.7-0.2,35.6-0.3c0.9,0,1.8-0.3,2.7-0.4"/>
		<path class="st3" d="M647.2,97.1c11.5,0.1,23,0.2,34.5,0.2c1,0,2-0.5,3-0.8"/>
		<path class="st3" d="M709.3,97.2c9.8,0.1,19.7,0.2,29.5,0.2c4.4,0,8.8-0.1,13.2-0.1"/>
		<path class="st3" d="M367.3,94.7c-5-2-9.9-3.9-14.8-5.9c-0.2-0.1-0.6,0.1-0.7,0c-3.5-4.8-7-2.1-10.6-0.3c-4,2-8,3.9-12,5.8"/>
		<path class="st3" d="M629.8,35.4c-1.5,12.9-4.7,25.3-12.5,36.1c-0.5,0.7-0.8,1.5-1.1,2.3"/>
		<path class="st3" d="M751.7,59.8c0.6-3.7,1.3-7.3,1.7-11c0.5-4,0.7-8.1,1-12.1"/>
		<path class="st3" d="M676.8,34.3c-1.1,0.1-2.3,0.2-3.4,0.2"/>
		<path class="st3" d="M668.9,37.2c0.3,2,0.2,4.1,0.9,6c3.9,11.7,17.4,21.5,30.5,18.6c4.4-1,8.7-2.2,12.1-5.4c0.3-0.3,1-0.3,1.5-0.4
			"/>
		<path class="st3" d="M582.4,92.7c2.7-0.4,5.4-0.5,7.9-1.3c7.9-2.5,14.6-7.1,20.3-13.1c2.8-2.9,4.7-4.4,9.6-2.7
			c9.3,3.2,19.3,3.9,29,0.4c2.2-0.8,3.9-0.3,5.3,1.5c4.7,5.6,10.3,10,17.2,12.7c4,1.5,8.1,2.7,12.2,4.1"/>
		<path class="st3" d="M684.8,35.5c-1.5,7.2,5.4,11.9,10,12.3c6.6,0.6,12.4-5.4,12.4-12.2"/>
		<path class="st3" d="M53.8,36.1c-0.2,5.7,4.6,11.2,10,11.2c6.4,0,12.1-4.1,11.2-11.1"/>
		<path class="st3" d="M238.6,76.1c-3,2.6-6.1,5-9,7.7c-4.9,4.6-11,6.8-16.9,9.3c-1.3,0.6-2.3,2-3.4,3"/>
		<path class="st3" d="M479.5,34.8c-1.5-0.1-3-0.2-4.5-0.3"/>
		<path class="st3" d="M446.5,34.6c-2.3,0-4.5-0.1-6.8-0.1"/>
		<path class="st3" d="M427.2,34.6c-2.3-0.1-4.5-0.2-6.8-0.3"/>
		<path class="st3" d="M10.1,96c2.4,0.5,4.8,1.3,7.2,1.4c9.7,0.1,19.4-0.2,29.2-0.2"/>
		<path class="st3" d="M57.8,96.8c4.7,0.1,9.3,0.3,14,0.4"/>
		<path class="st3" d="M72.2,97.2c12.5,0.1,25,0.3,37.5,0.3c1.5,0,3-1,4.5-1.5"/>
		<path class="st3" d="M137.8,96.9c6.4,0.2,12.9,0.4,19.3,0.5c5.2,0.1,10.4,0.2,15.5,0.1c1,0,2-1,3-1.5"/>
		<path class="st3" d="M657.9,34.5c-4.4,0.1-6.6,3.7-4.8,8.2c2.2,5.7,3.8,12,7.2,16.8c3.2,4.4,5.8,10,12,11.9
			c2.5,0.8,4.6,2.9,6.9,4.3"/>
		<path class="st3" d="M430.6,35.7c0.1,7.1,5.1,11.8,11.8,10.3c4.9-1.1,8.4-4.6,9-10.1"/>
		<path class="st3" d="M179.1,35.1c7.3-0.1,14.6-0.2,22-0.1c0.8,0,2.1,1.3,2.2,2.2c0.7,4-2.4,8.8-6.2,10.3c-6,2.2-10.6,1.2-13.3-2.9
			c-2-3-0.3-5.8,0.3-8.7"/>
		<path class="st3" d="M581.4,35.9c-0.1,6-3,8.8-9,10.3c-5.5,1.4-9.5-0.5-13.3-6.3"/>
		<path class="st3" d="M177.6,34.3c-3.5,0.3-7.1,0.6-10.6,0.9"/>
		<path class="st3" d="M158.7,35.1c-1.4,0-2.8-0.1-4.2-0.1"/>
		<path class="st3" d="M147.3,34.8c-4.2,0.2-8.3,0.5-12.5,0.7c-0.5,0-1,0.4-1.5,0.4c-7.5-0.4-14.9-0.8-22.4-1.2
			c-0.5,0-1,0.2-1.5,0.4"/>
		<path class="st3" d="M103.7,35.1c-8.6,0-17.2-0.1-25.8-0.1"/>
		<path class="st3" d="M73.1,34.9c-2.9,0.1-5.8,0.2-8.7,0.3"/>
		<path class="st3" d="M58.7,35.1c-9,0-17.9,0.1-26.9,0.1c-6.7,0-13.4-0.2-20.1-0.1c-5,0-6.5,1.6-5.5,6.5s3,9.5,3.8,14.4
			c1.6,10.2,8.2,17.1,14.8,24.1c2.3,2.4,4.6,4.8,6.9,7.1"/>
		<path class="st3" d="M248.3,61.2c4,0.2,8.1,0.3,12.9,0.6c2.1,3.6,4.8,8,7.9,13.2c-10.1,3.7-19.9,3.3-29.8,1.1"/>
		<path class="st3" d="M324.2,33.5c0.1,6.3-2.5,11.3-7.1,12.5c-7.7,2.1-14.5-3.4-13.7-10"/>
		<path class="st3" d="M728.1,86.6c6.3,4,13.2,6.1,20.5,6.5c2.5,0.2,4.4,0.5,5.3,3.1"/>
		<path class="st3" d="M473.2,84.1c-3.3,1.8-6.4,4.1-9.8,5.3c-4.2,1.5-8.8,2.1-13.2,3.4c-1.4,0.4-2.5,1.7-3.8,2.6"/>
		<path class="st3" d="M398,36.1c0.1,7.9,2.5,15.2,6.7,21.9c0.8,1.3,1.5,2.8,2.3,4.1"/>
		<path class="st3" d="M368.2,95.1c-1.3,0.8-2.6,2.2-4,2.2c-10.5,0.2-21,0.1-31.4,0c-1.6,0-3.3-0.9-4.9-1.4c0,0,0-0.3,0-0.4
			c0.1-0.2,0.2-0.3,0.4-0.4"/>
		<path class="st3" d="M390,96c1-1.2,2-3.2,3-3.3c5.6-0.2,9.7-4,14.7-5.5c1.7-0.5,3.9-0.6,5.6-0.1c6.8,1.9,13.5,4.1,20.2,6.2
			c0.3,0.1,0.5,0.5,0.8,0.7"/>
		<path class="st3" d="M498.8,35.7c0.8,9-2,17.3-5.4,25.4c-0.4,1-0.7,2-1.1,3"/>
		<path class="st3" d="M255.9,40.7c1.5,6.7,3,13.4,4.6,20"/>
		<path class="st3" d="M536.5,85.3c-6.1,4-12.7,6.9-20,8.2c-1.2,0.2-2.3,1.2-3.4,1.9"/>
		<path class="st3" d="M149.2,36.2c0.4,4.4,0.2,9,1.5,13.2c1.4,4.4,4.2,8.3,6.4,12.5"/>
		<path class="st3" d="M485.2,74.5c1.9,0.9,3.8,1.9,5.7,2.6c10,3.3,20,3.1,29.5-1.6c3.7-1.8,5.8-0.5,8,1.9
			c7,7.6,15.7,12.4,25.5,15.3c2.3,0.7,4.6,1.5,6.8,2.2"/>
		<path class="st3" d="M603.9,85.7c5,4.5,11.5,5.3,17.5,7.4c1.6,0.6,2.8,1.9,4.2,2.9"/>
		<path class="st3" d="M303.3,96.2c-1.3-1.1-2.4-2.6-3.9-3.3c-3.6-1.7-7.5-2.7-11-4.6c-4.9-2.7-9.4-1.3-13.6,1.1
			c-4,2.2-8,3.6-12.5,3.9c-0.5,0-1,0.7-1.5,1.1"/>
		<path class="st3" d="M637.8,35.3c-0.9,8.9,1.5,17.1,4.4,25.3c0.1,0.2-0.2,0.5-0.3,0.8"/>
		<path class="st3" d="M764.6,62c-3.9-0.5-7.9-0.8-11.8-1.4c-2.9-0.5-3.9,1.6-4.9,3.5c-1.7,3.5-2.8,7.4-5,10.6
			c-1.7,2.4-4.5,4.1-7,5.8c-7.8,5.4-15.8,10.3-25.2,12.5c-1.3,0.3-2.3,2.2-3.4,3.3"/>
		<path class="st3" d="M515.3,59.8c-5.5,3.4-16.4,3.8-20.8,0.6"/>
		<path class="st3" d="M252.6,40.3c-0.6,2-1.5,4-1.8,6.1c-1.5,9.4-4.2,18.2-9.9,25.9c-0.8,1.1-1,2.5-1.5,3.8"/>
		<path class="st3" d="M339.7,35.6c-1.4-0.4-2.8-0.7-4.2-1.1"/>
		<path class="st3" d="M329.1,34.7c-4.7-0.3-9.4-0.6-14-0.7c-1.5,0-3,0.5-4.5,0.8"/>
		<path class="st3" d="M299.5,34.7c-3.2,0.1-6.3,0.2-9.5,0.3"/>
		<path class="st3" d="M282.9,34.9c-2.9,0.1-5.8,0.2-8.7,0.3"/>
		<path class="st3" d="M268.5,34.7c-3.8,0.1-7.6,0.2-11.4,0.3"/>
		<path class="st3" d="M245.8,34.9c-2.5,0.1-5.1,0.2-7.6,0.3"/>
		<path class="st3" d="M216.2,34.8c-4.3,0.1-8.6,0.2-12.9,0.3"/>
		<path class="st3" d="M49.1,96c-0.8-0.9-1.4-2.1-2.3-2.6c-2.7-1.4-5.6-2.4-8.3-3.8c-3.8-1.9-7.4-2.4-11.4-0.7
			c-5.2,2.2-10.5,4-15.8,5.9"/>
		<path class="st3" d="M226.7,87.9c4.2,2.9,9.2,3.6,14.1,4.8c1.9,0.5,3.6,1.7,5.4,2.5"/>
		<path class="st3" d="M90.9,38.3c-0.9,6.3-3.1,11.9-7.8,16.4c-0.8,0.8-1.5,1.8-2.2,2.7"/>
		<path class="st3" d="M109.1,75.6c-1.4,1.2-3.2,2.1-4.1,3.5c-4.4,7.1-11.5,10.2-18.8,13.1c-2,0.8-4.8,0.8-5.3,3.8"/>
		<path class="st3" d="M474,86.7c4.6,3.3,9.5,5.7,15.2,6.3c1.1,0.1,2,1.2,3.1,1.8"/>
		<path class="st3" d="M136.6,95c2.1-0.9,4.2-1.9,6.4-2.7c4.7-1.8,9.7-2.7,14-5.4c0.6-0.4,1.9-0.4,2.6,0c5.2,2.5,10.4,5.1,15.6,7.7"
			/>
		<path class="st3" d="M722.3,35.9c-0.1,6.8-2.2,13-6.6,18.2"/>
		<path class="st3" d="M663.4,86.9c-3.1,3.9-8.1,3.4-12.1,5.4c-1.7,0.8-3.5,1.3-5.3,2"/>
		<path class="st3" d="M381.8,35.9c1,8.3,2.1,16.6,6.4,24c-6.4,3.3-12.4,3.1-18.6,0.7"/>
		<path class="st3" d="M511.5,40.9c0.5,10.5,4.2,19.8,10.3,28.3c1,1.4,1.3,3.2,2,4.9"/>
		<path class="st3" d="M396.6,75.1c-7.9,2.6-15.8,4.8-24.2,3.9c-3.7-0.4-7.5-1.4-11-2.9c-2.1-0.9-3.1-0.1-4.2,1
			c-2.9,2.6-5.8,5.3-8.6,8"/>
		<path class="st3" d="M374.9,35.9c-1.9,8.1-3.5,16.3-6,24.2c-1.2,3.8-4.4,6.9-6.5,10.4c-0.9,1.5-1.5,3.3-2.2,4.9"/>
		<path class="st3" d="M99,87.1c4.3,2.1,8.6,4.2,12.9,6.3c0.7,0.3,1.3,0.7,1.9,1.1"/>
		<path class="st3" d="M118.4,61.1c-3,4.6-6,9.2-8.9,13.7c4.5,5.9,25.7,6.5,36.4,1.1"/>
		<path class="st3" d="M387.7,60.8c2.8,4.4,5.3,9,8.6,13.1c2.2,2.8,5.4,5,8.4,7.1c2.1,1.4,4.5,2.3,4.5,5.3"/>
		<path class="st3" d="M133.7,36.3c1.4,8.1,2.6,16.1,4.1,24.2c0.2,1.2,1.2,2.3,1.9,3.4c1.8,3.1,3.3,6.5,5.5,9.3
			c2.6,3.4,5.9,6.3,8.7,9.5c1.1,1.2,1.8,2.7,2.7,4.1"/>
		<path class="st3" d="M18.6,75.1c-4.8,1.1-9.6,2.1-14.4,3.2"/>
		<path class="st3" d="M627.5,61.6c3.5,0.1,7.1,0.1,10.6,0.3c1.5,0.1,3,0.4,4.5,0.7"/>
		<path class="st3" d="M268.9,75c4.1,3.7,8.2,7.5,12.2,11.2"/>
		<path class="st3" d="M643,63.3c2.8,3.8,6.4,7.2,7.7,12"/>
		<path class="st3" d="M123.4,35.7c-1.4,7.5-2.5,15-4.5,22.3c-0.8,2.8,0.3,4,2.1,4.1c5.6,0,11.1-0.5,16.7-0.8"/>
		<path class="st3" d="M743.5,74.7c4,0.8,8.1,1.7,12.2,2.5c1.3,0.3,2.5,0.7,3.8,1.1"/>
		<path class="st3" d="M483.3,75.3c-3.1,2.8-6.2,5.6-9.4,8.4"/>
		<path class="st3" d="M490,65c-2,3.2-4,6.4-6,9.5"/>
		<path class="st3" d="M5.4,34.9c0.4,0.4,0.9,0.9,1.3,1.3"/>
	</g>
</g>
</svg>
