<?xml version="1.0" encoding="utf-8"?>
<!-- Generator: Adobe Illustrator 26.0.2, SVG Export Plug-In . SVG Version: 6.00 Build 0)  -->
<svg version="1.1" id="Layer_1" xmlns="http://www.w3.org/2000/svg" xmlns:xlink="http://www.w3.org/1999/xlink" x="0px" y="0px"
	 viewBox="0 0 800 800" style="enable-background:new 0 0 800 800;" xml:space="preserve">
<style type="text/css">
	.st0{fill:#CF8900;stroke:#CF8900;stroke-miterlimit:10;}
</style>
<g>
	<g>
		<path class="st0" d="M159.5,817.6c-23-18.8-44-40.5-64.9-61.7c-5.1-3.1-14.3-20.8-19.6-12.6c-5.7,6.7-13.3,11.9-17.7,19.4
			c16.8,18.9,36.5,35.4,54,53.6c3.7,5.4,26.9,22.2,23.2,27c-24.1,25.5-19.6,19.5-53,20.1c-11,0-21.9,0.2-33,0.1
			c-4.5-0.2-4.5-0.2-8.9-2.4c-3,1.9-6.5,2.4-10.2,2.4c-20.6-0.1-41.4-0.1-62,0c-11-0.8-16.8-13.6-25.1-19.8
			c-4.9-5.4,6-10.2,8.7-14.4c9-9.4,19.1-17.9,27.7-27.6c-2.6-4.4-15.1-16.8-20.2-19.9c-21.7,16.6-39.7,39.2-59.9,58
			c-26.1,25.1-18.3,25.5-56.3,23.1c5.1-7.7,12.2-12.4,17.3-19.8c-0.6-3.7-3.6-5.4-5.6-7.9c-4.7-4.4-7.6-10.1-13.6-13.2
			c-3,2.7-6,5.5-9.4,8.6c-1.7-10.8-0.2-21.9-0.8-32.9c0-2.5,0.9-4.3,2.6-6.1c9.8-10.2,19.3-20.8,28.9-31.3
			c14.5-10.5,26.2-24.5,38.2-38c-6.5-8-13.4-15.8-21.7-21.9c-8.9,7-15.8,15.8-23.8,23.7c-4.6,2.9-10.9,17.5-16.6,11.3
			c-3.2-4.2-8.3-7.5-7.8-13.3c0.5-9.1-0.5-18.2,0-27.2c4.3-0.7,5.7,7.5,11,7.7c11.5-10.4,22.2-22.2,32.7-33.5
			c6-9.8,16.2,9.4,21.9,13c12.9,12.6,26.2,24.9,37.9,38.5c4.3,4.3-8.7,12.7-11,16.7c-21.6,21.9-44.1,42.9-64.5,65.9
			c2.5,6.2,8.5,9.5,12.7,14.5c2.3,2.1,3.8,5.4,7.5,6.1c27.3-24.3,52.3-52.4,78.3-77.4c7,0.1,13.9,12.6,19.8,16.8
			c8.4,8.5,17,16.9,25.5,25.4c2.6,4.2,16.1,11.6,11,16.2c-11.9,12.6-25.7,23.2-36.6,36.8c3.2,5,8.1,8.6,12,12.9
			c3.3,2.5,7,10.2,11.6,6.1c8.5-7.5,16.2-16,24.7-23.6c5.1-3.5,4.5-9.7,8.7-13.7c4.3,1.8,8.4,3.2,11.4,7
			c10.8,10.4,21.3,21.4,32.5,31.3c9.2-3,14.2-12.7,21.7-18.6c2.3-2.1,2.4-3.6,0.1-5.8c-27.3-26.7-54.4-53.5-81.7-80.2
			C-41,698.2-100.5,640.6-157.3,580.2c-5.3,2.3-7.4,7.9-11.6,10.7c-2.7-10.5-0.1-23.7-1.1-35.1c4.2-3.7,7.7-14.2,14.3-7.7
			c20.6,22.4,41.9,44.1,63.4,65.5c3.8,2.5,7.9,12.4,12.9,7.9c6.3-4.8,10.2-11.7,16.4-16.6c2.6-2.1,2.6-3.6,0.1-6.2
			c-7.5-7.9-15.1-15.6-22.5-23.4c-16.8-17.9-34.4-35-50.9-53.4c13-17.9,32.1-31.7,45.4-49.1c0-4.6,5.1-5.1,7.9-7.3
			c5.3-5,8.8,3.7,12.6,6.8c8.3,8.9,17.5,16.8,25.7,25.9c2,2.3,5,4.9,7.6,1.8c5.6-5.5,11-11,16.5-16.6c4-4.1-3.3-7.6-5.6-10.7
			c-10-10.4-20.6-20.5-30.7-30.6c1.1-7,17.7-18.7,22.9-25.4c4.6-5.6,11.6-9.1,14-16.1c-5.1-6.2-11.5-11.9-17.3-17.5
			c-2.3-2.3-4-2.3-6.4,0.1c-8.9,8.6-17.5,17.4-25.5,26.9c-32.4,35.1-68.3,66.8-100.2,102.3c-2.1-9.9-0.2-20.6-0.9-30.7
			c0-2,0.7-3.6,2.1-5.1c7.1-7.6,14.1-15.4,21.2-23.1c2.4-4.1,12.8-9.3,8.4-14.2c-20.3-19.2-13.2-23.5-30.9-5.7
			c-1.7-9.9-0.2-19.9-0.8-29.9c1.3-9.2,11.1-14.7,16.2-21.9c17.5-20.5,37.5-38.8,55.4-59c-4.2-7-11.6-12-17.2-18.1
			c-2.4-2.3-3.6-2.3-5.9-0.1c-12,11.3-22.5,24.2-34.5,35.5c-6.4-3-12.1-9.7-14.3-16.2c0.2-9.9-0.2-19.9,0.5-29.7
			c3.8-0.2,7.8,7.9,11.6,9.7c4.6-4.1,9.1-8.7,14-12.6c8.9-8,16-18,25.5-25.1c19.4,17.3,37.9,36.2,56.1,55.2c-3.6,10.2-4.6,5-10.4,13
			c-21.8,22.6-46.1,43.8-65.2,68.6c4.7,7,11.7,12.3,17.5,18.2c1.7,1.5,2.6,1.4,4.4-0.1c17.4-16.3,33.8-33.8,50.2-51.2
			c7-7.3,14.1-14.3,21.3-21.4c4.3-4.3,4.7-4.3,9.2-0.1c16.5,16.3,33.3,32.2,49.6,48.7c6.6,5.8-9.7,14.7-12.9,19.7
			c-7.6,8-16.1,15-23,23.7c6.3,8.1,13.8,15.4,21.8,21.6c56.1-45.4,22.8-51.1,79.2-1.7c7.1-7,14.6-13.1,20.9-21
			C16.4,353-71.1,270.4-154.8,184.1c-6.6,2.7-8.7,9.5-14.7,12.7c-1.8-12.2-0.1-24.9-0.7-37.5c11.3-7.6,11.1-17.3,22.2-3.9
			c23,22.8,44.9,46.8,68.9,68.4c5.9-2.9,9.6-8.9,14.1-13.5c2.1-2.3,5-4.1,6-7.3c-22.4-28.5-51.9-51-75.2-78.8
			c3-7.6,10.4-11.7,15.4-17.9c13.5-13,25.1-29.2,40.2-39.9c14.3,11,24.5,26.9,38.9,38.4c8.4-5.8,14.7-13,21.1-21
			C-30,69.2-45.3,57.9-57,43.6c0.9-2.9,1.8-5.5,2.8-8.5c4.2,0.6,11.1-6,12-10.1c7.7-5.2,14.1-12.9,21.1-19.4
			C-15.3,1-33.2-10.1-36-14.6c-4.3-4.2-5-4.2-9.1,0C-51.4-8.3-57.4-1.6-64,4.3c-23.4,23.8-46.1,48.4-69.3,72.3
			c-11.9,12.9-23.5,25.9-35.6,38.5c-1.1,0.4-1.7-1-1.4-1.8c0-10.1,0-20.1,0-30.3c0-1.7,0.6-2.9,1.7-4.1
			c9.4-10.5,18.6-21.1,28.1-31.5C-117,22.2-92.7-2.4-69.1-27.6C-29.3-67.4-51.2-61.5,8-7.8c3,4.1,12.8,8.8,7,14.1
			C3.2,18.1-9.5,29.5-20.4,42.2c3.8,8.1,11.6,12.5,17.3,19.1c1.2,1.2,2.3,2.6,4.4,3C55.9,14.8,26,16.3,80.4,64
			c7.8-6.9,14.9-14.3,21.7-22C73.1,9,39.8-20.5,9.5-52.5c9.6-2.4,20.3,0,30.1-1c10.4,1.4,18.5,16,27,22.4c24,23,46.6,47.4,70.4,70.5
			c4.5,4.8-11.3,14.8-14,19.4c-12.9,13.9-26.4,27.3-40,40.5c-4.3,7.3-33.9-32.5-42.5-36.3c-7,4.1-17.2,15.7-20.8,20.6
			c11.6,13.7,25.9,26,37.8,39.2c-0.8,6.7-7.6,8-11,13c-8.8,9.3-18.7,17.8-26.7,27.8c5.2,8.1,13,14.3,20.4,20.7
			C94.1,132.4,146.1,78.8,198.9,26c25.1-25.1,49.4-50.9,74.7-75.9c6.3-6.6,28-2,37.8-3c0.6,1.8-0.5,2.5-1.2,3.2
			c-8.4,8.6-16.8,17-25.3,25.5c-7.6,7.7-15.2,15.4-22.8,23.1c-2.3,2-0.1,4.8,1.7,6.2c4.5,2.6,15.5,20,19.8,15.1
			C298.7,6.1,313-8.9,327.5-23.6c7-7,13.9-13.9,20.9-21c4.9-5.2,11.9-12.7,18.9-6.1c16.5,16.8,33.9,32.8,49.4,50.4
			c-8.9,16.4-27.4,24.7-37.1,40.5c1.4,3.5,4,5.8,6.6,7.9c5.5,4.3,9.1,10.7,15.5,14.4c52.9-48.1,24.8-49.1,77.8-0.7
			c8.3-5,14-13.2,20.9-20.1c-5.1-9.8-14.8-15.8-21.8-24.1c-22.8-23.6-46.7-46-69-69.9c8.1-2,54-0.2,59.2,0.1
			c0.1,3.2-7.2,8.3-9.2,11.6c18,21.8,40,40.3,59.3,61.1c4.2,6.2,22.5,16.2,14.5,23.4c-17,17.6-34.4,34.9-51.6,52.2
			c-2.6,2.4-3.8,2.3-6.2-0.1c-7.1-7.4-14.2-14.7-21.5-21.9c-3.7-2.3-12.5-15.8-16.2-11.8c-6,6.4-13,11.8-18.3,19.1
			c49.1,54.1,47,25.3-0.6,78.9c6.4,8.6,14.3,14.9,22.2,22.5c59.2-56,114.5-115.8,172.2-173.2c19.6-19.9,40-39,59.3-59
			c6.5-5.6,26.8-1.3,36.6-2.6c-4.9,9.4-15.1,15.5-21.8,23.6c-8.9,10.1-19.6,18-27.6,29c0.5,1,0.6,2.1,1.4,2.9
			c6.3,5.8,11.9,12.7,18.7,17.9c25.3-21.2,47.2-46.9,71-70.1c6.2-5.6,15.8-4.1,20.8,2.5c14.8,15,30,29.5,44.6,44.9
			c-0.5,2-0.8,3.8-1.3,6c-13.2,6.7-21.9,21.3-33.2,31c-2,1.8-4.3,4.3-1.7,6.6c5.1,5.4,10.4,10.5,15.8,15.7c3.1,4.4,6.9,2.4,9.7-1.1
			c9.4-9.4,18.7-18.8,28.1-28.4c4.3-5.2,5.7-6.9,10.7-1.1c11.7,10.7,22.1,23.2,34.4,33c3.8-2,16.2-14.3,19.8-19.4
			c-27.6-32.2-60.8-59.9-88.9-92c18-2.4,37.8-0.7,56.6-0.5c-1.8,4.9-5.7,6.8-8.4,11.1c21,23.7,44.7,45.2,66.8,67.9
			c3.7,3.5,5.7,7,10.7,8c0.1,1.7,0.2,3.3,0.5,5.1c-16.5,16.6-33,33.1-49.3,49.7c-3.4,2.9-7.1,11-11.4,4.6
			c-11.7-11.7-23.1-24.2-36.4-33.7c-6.2,6.3-12.5,12.5-18.1,18.8c1.4,6.9,9.2,10.2,13.2,15.8c5.9,5.8,10.8,12.9,17.5,17.8
			c2,1.8,4.7,4.8,3.9,7.4c-4.3,7.5-12.7,11.3-17.7,18.2c-6.2,7.4-14.5,13.5-19.3,21.8c5.3,7.1,12.7,12.5,18.3,19.3
			c2.1,2.6,3,2.7,5.5,0.2c22.6-22.2,45.5-44.1,67.6-67c42.3-42.8,84.7-85.5,127.1-128.2c11.5-11.6,23.2-23,34.7-34.6
			c5.7-4.9,26.4-1.8,34.9-1.9c-14.5,18.1-33.9,32-48.4,50.3c3.7,8.1,12.1,13,17.9,19.8c4.9,7.7,15.4-10,20.3-13.2
			c15.3-15.8,31.2-31.1,46.2-47.1c6.3-6.4,9.4-11.4,19.3-9.9c6.4,2.1,10.2,9.7,15.5,13.8c5,4.8,10.8,8.7,10.3,16.7
			c-0.4,14.7,0,29.3,0,44c0.8,7.4-6,10.5-10,15.6c-2.8,4.4,5.2,8,7.5,11.3c4.2,3.6,2.1,9.7,2.7,14.5c0,13.3-0.1,26.7,0,40
			c-0.5,9.8-12,14.8-17.3,22.2c-4,2.7-9.5,14.2-14.6,9.4c-42.3-38.1-27.6-47.9-57.2-16.7c0.8,6.6,12.7,14.1,17,19.8
			c15.7,15,30,31.2,45.4,46.3c26.3,28,28.9,19.2,26.3,60.3c-1.4,0.8-2.1,0.1-2.8-0.6c-8.5-8.2-16.4-16.9-25.3-24.8
			c-7,4.3-12,11.2-18.1,16.6c-2.5,2-3.4,5.5-0.8,7.9c10.2,10.2,20.4,20.4,30.6,30.6c5.2,6.9,15.5,11.7,16.8,20.8
			c-0.5,10.4,1.1,20.8-0.6,31.1c-17.8-13.9-33-32-49.9-47.4c-34-31.9-63.6-68.6-98.9-99.4c-7.4,5.8-14,12.5-19.8,19.8
			c11.3,14.2,25.6,25.9,37.7,39c0.1,2.3-1.2,3.2-2.3,4.3c-12,12.2-24.7,23.1-35.8,36.1c3,3.2,20.8,25.6,23.8,20.6
			c12.9-11.6,24.1-24.2,36.9-36c13.6,8.7,23.7,22.9,35.9,33.6c6.4,7.6,15.3,13.1,20.4,21.6c-21.8,23.7-46,45.6-68.2,69.1
			c-2.3,3.8-11.5,7.9-8.2,12.6c5.9,6.4,11.7,13,18.5,18.5c9.2-4.4,15.1-13.8,22.6-20.6c18.3-18.2,35.9-37.1,54.1-55.4
			c5.3-3.8,9.5,5.1,13.5,7.7c6,7.7,17.9,14.2,20.4,23.8c0.4,15,0,30.1,0.2,45.2c0.9,8.8-7.8,11.4-11.4,18.5
			c3.1,6.4,12,9.1,11.3,17.2c-0.1,13.9,0.1,27.9,0.2,41.7c0.2,3.9-0.5,7.5-3.6,10.4c-10,9.2-18.3,20-28.9,28.5
			c-7.8-4.4-35.7-43.8-41.3-36.2c-5.8,6-12.1,11.6-17.1,18.3c-0.4,2.5,2.6,4.5,4.3,6.4c21,21.4,41.3,43.5,62.6,64.6
			c27.5,28.1,24.5,18.2,23.4,58.9c-11.6-8.5-20.3-21.3-32.3-29.5c-5.7,3.2-15.4,13.6-19.3,20.4c13.9,18.1,32.5,32.8,48.3,49.4
			c2.6,2.5,4.2,5.1,4,8.9c-0.6,9.8,0.8,19.9-0.5,29.5c-1.3,0.6-1.8-0.4-2.5-1c-16.8-16.7-34.2-33-50.5-50.2
			c-32.7-31.6-64-65.5-97.7-95.8c-5.2,3.1-9,8.6-13.5,12.6c-2.3,3.1-9.6,6.8-5,10.6c11.6,12.4,24.5,23.6,35.7,36.3
			c-11.4,13.9-26.6,24.8-37,39.3c5.3,6.7,11.7,12.3,17.7,18.5c2.1,2,3.2,2,5.3,0c12.2-11.4,23-24.4,35.8-35.1
			c13.9,9.1,24.3,23.5,36.9,34.6c7.6,8.1,16.5,14.9,23,23.8c-24.8,27.4-52.5,51.2-76.8,79.1c3.3,5.5,8.5,9.2,12.9,13.6
			c2.5,2.5,4.4,5.8,8.5,6.7c27-23.9,50.9-51.5,76.6-76.8c10.4,6.3,17.5,16.8,26.7,24.9c2.6,2.6,5,5.2,4.7,9.3
			c-0.1,14.5-0.1,29,0,43.5c0.8,7-5.6,10.5-9.4,15.4c-5.3,7.1,15.5,9.5,8.2,25.4c-33.6,3.5-21.5-4.6-45.1-18.5
			c-9-3.1,35-35.9,36.5-43.2c-4-6.6-16.8-17.2-21.7-21.2c-22.8,19.8-42.9,43.2-65,64.1c-7.7,6-13.2,17.4-22.9,19.5
			c-9.7-0.6-20.2,1.5-29.5-1.1c6.4-7.5,14-13.2,19.8-20.8c-4-8.9-13.2-14.2-20.3-20.8c-14,11.6-26.1,25.1-39.1,37.6
			c-3.1,3.1-6.5,5-11,4.9c-9.2-0.7-18.9,0.8-27.7-1c44.2-46.6,91.7-90.9,136.2-137.5c4.6-5.1-5.1-9.3-7.6-13.1
			c-3.8-3.7-7.2-7.9-11.5-11c-4.5-3-7.9,5.1-11.4,7.3c-8.9,10-20.3,18.1-26.9,29.9c-15.9-9.3-26.9-26.7-41.7-37.9
			c-8.4,3.6-17.7,16.2-20.9,20.5c11.5,13.9,25.4,25.4,37.8,38.6c-18.1,20.6-38.1,39.9-58.1,58.7c-26.3-23.9-50.6-50-76.2-74.7
			c-2.4-3.3-5.2-1.3-7.5,1.1c-5.5,5.8-11.6,11-16.4,17.5c24.3,27.3,52.9,51.1,77.6,77.9c-25.9,29.9-22.1,22.6-58.8,23.5
			c-10.3-1.4-30.7,3.6-38.1-2.9c-3.9,1.4-7,3.5-11.5,2.9c-21.5-0.2-42.6,0-64,0c-7-7.4-15.4-13.6-21.9-22
			c11-13.3,24.7-24.4,36.4-37.1c5.1-4.4-12.5-15.5-15.3-19.7c-3.8-3.5-4.9-3.3-8.7,0.2c-24.5,24.1-49.2,48-73.5,72.3
			c-6.8,6.7-6.6,6.3-14.9,6.3c-8.8-0.1-17.2,0.2-26-0.6c36.2-38.1,75.4-74.1,112.1-112c2.7-2,5.7-8.1,9.4-4.2
			c10.7,10.2,21.1,20.8,31.7,31.2c36.5,36.7,28.2,14.5-13.9,63.6c4,6.7,11.1,11.6,16.5,17.4c2.7,2.6,4,2.6,6.8-0.1
			c12.1-11.6,23.5-23.6,35.8-34.9c47.4,38.1,29.3,50.9,62.1,16.6c-1.5-6.4-16.1-16.4-20.9-22.5c-19.9-20-40.3-39.7-60-59.9
			c-59.8-59-118.8-118.7-178.8-177.3c-8.3,5.2-14.2,13.7-21.1,20.5c2.4,10.7,14.3,16.1,20.9,24.4c3.2,4.9,17.4,13.8,14.8,19.4
			c-12.2,12.5-25.3,24.3-36.6,37.5c6.5,8.5,13.6,15.4,21.9,21.9c11.9-9.7,22.1-21.3,33.3-31.7c1.8-1.7,1.7-3.7,1.5-5.8
			c10-1.9,18.7,14.9,26.6,20.4c11.3,12,24.8,22.2,34.5,35.4c-26.6,29-55.6,55.6-83.2,83.5c-18.9,18.5-37.7,36.9-56.7,55.2
			c-1.3,1.2-2.8,1.9-4.6,1.9c-10.8-0.6-22.1,1.1-32.6-0.6c44.8-46.9,93.9-90.8,138.6-138.2c5.6-4.3-12.2-15.5-14.9-19.7
			c-2.4-2.3-3.4-2-5.8,0.2c-7.4,9.2-30.4,25.7-32.1,35.5c-3.6-0.1-6.4-0.1-8.8-3.1c-12.1-11.9-23.5-24.5-36.3-35.7
			c-8.4,5.2-14.2,13.3-21,20.5c8.7,12.2,20.8,20.7,30.4,31.9c2.4,2.5,2.4,2.5,6.3,3.7c1.2,3.6,2.1,8.6-1.5,10.8
			c-10.9,8.8-20.3,19.3-30.4,29.1c-5.7,5.6-11.4,11.2-17.1,16.8c-4.5,4.4-6.5,4.3-10.9-0.1c-23.2-23.7-46.6-47.3-70.2-70.7
			c-1.9-1.8-4.3-4.6-6.5-1.9c-6.3,6.1-12.5,12.9-18.3,19.1c0.2,2.9,2,4.2,3.4,5.6c7.4,7.4,14.7,14.9,22.2,22.2
			c17.3,17.5,36.4,33.6,52.1,52.5c-5.9,7.7-16.1,21.9-26.2,22.4c-17.3-0.1-34.5,0-51.8,0c-5.2-0.6-11.5,1.8-16-1.7
			c-2.5-2.3-3.2-2.4-5.3-0.6c-2.3,1.8-4.6,2.4-7.4,2.4c-16.7-0.1-33.3-0.1-50,0.1c-5.1-0.6-11.1,1.4-15.7-1.5
			c-6.8-7.1-15.1-13.1-20.9-21c10.3-14.9,27.2-24.3,37.4-39.3c-6.4-7.4-13.9-13.8-20.8-20.7c-14.9,9.4-25.4,24.7-38.7,36.3
			c-11.9,11.8-23.8,23.5-35.7,35.3c-4.5,3.5-7.6,10-13.5,10.8c-10.4-0.5-21.2,1.1-31.4-0.6c2.4-5.6,22.9-18.8,19.7-23.6
			c-6.9-6.2-12.6-13.7-20.5-19.1c-14.8,10.6-26,26.6-39.8,38.7c-4.6,4.5-5,4.8-11.5,4.9c-9-0.1-17.7,0.4-26.6-0.2
			c45.2-47.5,93.7-92.2,138.5-140.5c-5.2-8.8-14-15.4-21.7-22.3c-14.1,11.6-25.7,25.5-39.2,37.9c-14-10.5-24.5-25.9-38.3-36.9
			c-8.2,5.2-14.8,13.5-21.3,20.7c11.4,14.1,26.2,24.8,37.4,39.1c-11.6,13.6-25,25.5-37.6,38.1C172.6,804.9,167.7,813.4,159.5,817.6z
			 M39.6,619.7c-16.7-14.8-31.4-31.3-47.4-46.8c-2.4-3.8-13-9.3-8.8-13.9c11.5-13.2,25.7-24.2,36.6-37.9C18.4,518.4,8,504.2-1,500.3
			c-11.3,9.1-20.6,20.6-31.1,30.7c-3.3,3.5-7.4,10.7-12.5,4.2c-9.1-9.7-18.5-19.1-27.6-28.7c-3.1-2.3-6.5-9.7-10.6-5.1
			c-3.9,5.4-18.7,15.5-18.1,21.1C-16.6,611.2,71.4,697,159,782.3c7.6-5.1,13.6-13,20.5-19.2c1.7-1.7,1.4-3.1-0.5-5
			c-11.3-12-23.6-23-35.1-34.9c-7.9-3.5,34.6-35.4,36.3-42.5c-3-2.9-18.9-23.1-22.6-19.8c-10.9,10.5-22.2,20.8-32.1,32.2
			c-0.9,2.6-3.7,2.9-5.7,3.9c-3.7,0.6-9.6-7.4-12.1-9.9c-7.4-7.3-14.6-14.4-21.9-21.6c-7.1-8.3-18.3-14.2-22.9-24.1
			c23.8-26.1,50.6-49.7,74.7-75.8c2.4-1.8,3.6-5,0.8-7c-6.4-5.8-11.7-12.5-18.7-17.8C91.3,565.6,67.7,595,39.6,619.7z M1158.7-20.6
			c-17.1,11.2-28.5,29.2-44,42.7c-21.8,22-43.4,44.2-65.3,66.1c-49.9,51.5-102.2,101-151.5,152.9c5.7,7.6,13.3,13.6,19.8,20.5
			c3.7,2.9,6.6-3.5,9.4-5.2c7.6-7.5,15.2-15,22.6-22.5c4.3-4.1,8.3-12.7,14.2-6.1c9.7,9.7,19.4,19.2,29.2,28.8
			c1.8,1.7,3.3,3.7,6.5,3.9c6.3-6.7,14.5-12.3,19.3-20.3c-7.4-8.9-16.4-16.6-24.3-25c-3.3-5.1-16.6-11-8.9-17.3
			c13.5-13.3,26.8-26.9,40.2-40.4c3.7-3.6,7.4-7.3,11-10.7c2.6-3.2,6.6,0.5,9.2,1.4c8.9,13.5,22.3,23.4,33.2,35.5
			c12.1,12,24.1,24.2,36.2,36.3c1.2,1.2,2.4,2.6,4.4,2.5c7.1-5.7,15.1-12.4,19.8-20.3c-20-26-46.2-47.1-68.8-71.1
			c-2.6-3.5-10.4-7.1-6.5-12c17.2-17.4,34.5-34.8,51.7-52.3c2.8-3.3,5.6-1.4,8.2,1c10.1,10.6,20.4,20.8,30.5,31.5
			c4,4.6,7.9-3.1,11.1-5.4c2.8-4.5,15.8-11.1,10.2-16.4c-10.3-10.6-20.9-21-31.4-31.3c-4.2-4.2-3.4-6.1,0.6-9.9
			c10.2-10.1,20.4-20.4,30.6-30.5c1.4-1.4,3.1-2.9,2.8-5.8C1172.9-7.1,1166.1-14,1158.7-20.6z M335.7,323
			c-24,26.3-51,50.4-75.3,76.6c-2,2.3-2,3.2,0.1,5.4c6.4,5.8,11.4,13,18.7,17.6c28.1-23.8,51.3-53.7,79.6-77.2
			c11.5,10.1,21.7,21.2,33,31.6c7.4,8.6,17.8,15.1,23.1,25c-10.2,12.3-22.9,22.6-33.9,34.3c-1.4,1.4-3.3,2.7-3.7,5.2
			c6.2,7.4,13.2,14.7,21,20.4c51.9-42.3,24.2-52.7,75.9-3c0.9,1,2,1.8,3.6,1.4c6.8-7.3,14.3-13.8,20.8-22
			c-52.8-55-108.3-107.6-162.1-161.7c-32.8-31.3-62.8-66.5-97.5-95.8c-7.4,6.4-13.9,14.1-20.3,21.1c45.4,60,51.3,19.9-0.4,81.1
			c7.1,6.8,12.6,15,20.6,20.4c13.8-12.2,25.1-26.7,39.6-37.8C297.9,283.9,318.9,303,335.7,323z M79,340.4
			c-7,5.5-13.2,12.3-19.6,18.6c-2.1,2.4,0.7,4.5,2.3,6.1c24.1,25.9,52.9,48.3,74.6,75.8c-18.1,18.6-35.9,37.1-54.9,54.7
			c-3.4,3.7-6.2-1-8.5-3.5c-11.4-10.4-21.2-22.6-33.6-31.8c-7.4,6.3-14.3,12.9-20.8,20.4c46.7,54.4,49.3,24.1-0.8,79.6
			c6.4,8.7,13.8,16.1,21.8,22.5c39.7-35.9,76.1-76.7,115-114c48.9-48.1,98.1-96.3,144.9-146.3c-6.9-7.7-13.8-15.2-22.1-21
			c-12.8,10.7-25.1,22.5-35.6,35.6c-1.2,0.2-2.8,0.7-4.5,1.2c-11.1-10.1-21.1-21.8-32.4-31.9c-1.4-1.4-2.8-3-5.3-3.3
			c-7.2,5.7-14.6,12.7-20,20c10.4,12.6,23.1,23.5,34.6,35.3c4.6,4.8-1.9,8.3-5.3,11.1c-15.3,16.2-32,30.9-46.5,47.8
			c-6.9,0.8-27.5-25.3-35.2-31c-11.5-11.6-23.4-22.8-34.6-34.6C87.8,347.7,84.7,342.4,79,340.4z M456,520.8
			c-11.6,13.9-25.3,25.1-37.6,38.4c-2,1.9-0.1,4.3,1.4,5.8c7,6,11.9,14.5,20.3,18.6c86.4-87.1,173.8-173.8,259.6-261.8
			c-6.8-8.3-14.5-14.3-22.1-21.8c-13.9,12.4-25.4,25.6-39.2,37.9c-13.9-11.4-25.1-26-39.4-37.1c-6.2,4.3-11,10-16.4,15.2
			c-5.1,3.6-4,6.6,0.4,10.2c10.2,10.1,20.5,20.3,30.7,30.5c2.1,2.1,2.3,3.6,0,5.8c-17,17.2-33.9,34.2-51,51.3
			c-6.3,8-12.7-2-17.1-6.8c-22.2-22.8-43.8-46.2-67.8-67c-26.3,24.3-25,15.8-1.4,40c12.3,12,24.7,24.2,36.9,36.5
			c6.4,8.1,18.6,14.4,21.2,24.4c-2.1,5.7-8.3,8.2-11.9,13c-15.3,14.4-29.3,30.7-45.2,44.2c-12.8-11.3-23.8-24.5-36.8-35.9
			c-1.9-1.7-3.9-0.4-5.5,1.2c-5.3,6.7-13.8,10.8-16.8,19.1C430.7,495.2,443.3,507.8,456,520.8z M597.2,662.3
			c7.1-6.8,15.7-12.4,20.4-20.8c-10-11.9-22.1-22.3-33-33.5c-1.4-1.4-3.2-2.7-3.3-5.6c14.8-16.2,31.3-31.2,46.4-47.3
			c4.4-3.1,9.4-14.5,15.1-8.1c22.5,23.4,46,45.7,68.4,69.3c3.2,2.3,7.4,9.7,11.3,5.4c3.4-5.2,23.1-17.2,14.8-22.4
			c-24.1-23.9-47.2-49-71.7-72.4c-6-5.6-1.9-8.3,2.7-12.6c17.3-16.9,33.3-35.4,51.6-51.2c13.6,10.2,24.2,23.7,36.8,35.1
			c1.9,1.8,3.1,1.8,4.9,0c5.8-6.2,12.9-11.8,17.8-18.7c-8.4-12.9-21.9-22.3-32.6-33.6c-7.8-5.6,1.4-11.1,6.2-15.6
			c8.8-10,20.8-17.5,27.3-29.2c-6.4-7.5-13.8-15.2-21.9-20.8c-88.3,85.3-174.8,173.2-260.3,261.5c3.2,6.3,9.2,10,13.9,15.1
			c2.5,2.3,4.2,5.5,7.9,6.6C572.7,614.8,543.1,616.1,597.2,662.3z M239.3,701.6c10.6-10.1,20.9-20.4,31.3-30.6
			c2.8-2.4,5.5-9.8,10.1-6.2c18.5,18,36.3,36.7,55.4,54c1.2,6.6-17.1,18.7-21.5,24.8c-18.6,19.1-38.1,37.3-56.1,56.8
			c6.4,7.9,13.4,15.4,21.7,21.2c28.1-24.1,51.7-53.7,79.9-77.7c19.1,19.1,38.8,37.2,57.3,56.5c-11.9,13.1-25.4,24.8-37.5,37.6
			c-4.5,4.2,13.4,15.7,16.1,20c2.8,3.2,5.2,1.1,7.4-1.4c5.1-5,10.3-10,15.4-15.1c7.2-6,12-15.6,21.1-18.8
			c12.1,11.1,23.5,22.8,35,34.2c1.7,1.5,3.1,3.5,6,4.1c7.5-5.6,14.8-13,20.5-20.5c-56.2-58-115-113.9-172.2-171.1
			C299.9,640.2,271,610.6,241,582c-2.3-2.1-3-2.1-5.2,0c-5.8,6.6-13.2,12.2-17.8,19.8c11.6,14.9,27.4,26.2,38.8,41.2
			c-12.2,12.4-24.3,24.1-35.9,36.9c-2.1,2.1-0.9,3.9,0.9,5.7C228.1,690.8,231.7,698.4,239.3,701.6z M958.9,260
			c-13,10.1-23.7,23.1-35.7,34.6c-7.9,9.5-16.1-10.7-23.1-14.4c-13.3-12.6-26.8-24.8-39.1-38.1c25.7-27.3,54.2-52.1,79.2-79.9
			c-4.7-8-12.9-13.7-19.1-20.7c-4-3.5-7.5,4.3-10.6,6.4c-24.7,23-47.7,48.4-72.8,70.4c-12.2-11.2-23.2-23.5-35.2-35
			c-6.6-7.7-16-13.3-20.8-22.5c11.4-13.5,25.3-24.7,37-37.9c1.5-1.7,1.5-3,0-4.5c-6.2-5.7-11.5-12.2-18.4-17.2
			c-12.9,10.4-23.5,23.2-35.5,34.7c-1.4,1.5-2.8,3-5.7,3.2c-47-38.2-30.2-51.7-59.8-20.3c-3.3,3.8,4.3,7.6,6.2,10.6
			c10.8,11,21.6,21.9,32.5,32.9c32.6,32.3,65.2,64.8,97.4,97.6c26.8,27.6,55.1,53.7,81.9,81.6c13.4,13.2,26.7,26.4,40.2,39.4
			c4.7,4.5,15.9-13.6,20.6-16.2c2.7-2.7,2.6-3.8-0.4-6.6c-6.3-5.8-12.2-11.9-18.1-18c-5.7-7-14.6-12.2-18-20.5
			c9.5-12.6,22.8-22.6,33.7-34.3c1.4-1.4,3.2-2.7,3.7-5.5C972.9,272.7,965.6,266.4,958.9,260z M381.9,81.5
			c-12.7-13.7-26.1-26.3-39.1-39.6c7.6-11,19.3-18.9,28.1-29.3c2.5-4.1,12.5-8.3,8.7-13.5c-5.8-5.7-11.1-12-17.3-17.3
			c-4.5-2.3-8.4,5-11.4,7.5c-45.2,44.2-88.7,90.1-133.3,134.6c-30.7,31.3-61.9,62.2-93.1,93c-7,6.9-14,13.9-21.1,20.8
			c-1.7,1.5-3.4,3.1-3.7,5.8c5.9,7.3,12.8,14.3,20.4,20c14.5-11.4,25.1-27.2,40.1-37.5c13.3,10.7,24.3,24.4,37.1,36
			c2.1,2.1,3.2,2.1,5.3,0.1c5.8-6.4,13.6-11.6,18-18.9c-11.4-14.4-27.7-25.1-37.9-40.5c17.4-17.9,35.3-35.3,52.4-53.5
			c3-4.3,6.6-4.5,10-0.2c25,24.1,48.1,51.1,74.5,73.3c5.3-3.5,17.7-15.6,20.4-20c-24.3-27.5-52.8-51.7-77-79.2
			c6.3-10.4,17.3-17.2,25.1-26.6c11.3-10.6,20.5-23.2,33.1-32.2c15.2,10.4,25.3,28.1,40.7,38.1C367.7,98.4,379.5,86.2,381.9,81.5z
			 M697.6,521.5c23.5,23.5,45.3,48.8,70.6,70.4c10.6,8.3,19.4,18.7,29.2,28c23.6,22.9,44.2,48.5,68.3,70.9
			c24.1,22.9,47,46.9,70.8,70.2c5.1,3.5,18.7,24.2,23.8,18.2c6-6.4,13.5-11.3,17.8-19.2c-9-11.6-20.8-21.1-30.8-31.8
			c-3-2.9-2.8-3-7.1-3.7c0-1.7,0-3.3,0-5.1c11.4-13,24.1-24.8,35.9-37.3c2.3-2.4,2.1-3.6-0.1-5.8c-6.3-5.1-10.7-13.2-18.4-16.1
			c-11.9,10.2-22.4,22.2-33.7,33c-1.7,1.5-2.4,3.7-2.6,6c-6.4-0.7-9.2-5.2-12.9-9.7c-14.9-14.1-28.9-29.1-44.2-42.7
			c-4.2-3.6-4-6.7-0.2-10.6c24.5-25.3,51.8-48.7,74.1-75.9c-4.7-5.1-15.8-18.1-21.1-20.3c-19,17.3-36.2,36.5-54.3,54.4
			c-5.8,6-11.7,11.9-17.7,17.8c-2.5,1.9-2.3,4.4-2.4,7.1c-13-2.7-21.3-19.4-31.8-27.5c-8.8-8.9-18.1-17.4-26.6-26.7
			c-6.9-4.4,20.5-24.4,24-29.9c2.8-4.8,17.3-12.3,10.4-17.6c-6.9-5.8-12.8-13-20.3-18c-6.9,3.2-38.8,44.1-41.9,37.1
			c-12-12.2-24-24.4-36.3-36.2c-1.9-1.7-4-0.1-5.3,1.5C709.3,508.8,701.2,513.3,697.6,521.5z M997.3,659.8
			c6.9-4.2,11.9-11.2,18-16.6c1.8-2.1,2.7-3.6,0.2-5.8c-4.5-4.6-9-9.3-13.6-13.7c-3.6-5.5-27.3-20.7-19.6-26
			c17.1-17.3,33.9-34.8,51.2-51.8c6.5-7.4,11.7,5.6,16.8,8.9c22.2,21.8,42.8,45.7,66.4,65.9c7.4-5.2,12.6-11.8,18.6-18.1
			c2-2.3,1.9-3-0.2-5.4c-21.1-22-42.8-43.6-64.2-65.5c-2.7-4.9-12.9-7.7-9.5-14.2c2.6-3.7,4.2-8.2,8.9-9.9c1.4-0.5,2.6-2.1,3.8-3.3
			c12.5-13.6,26.1-26,39-39.2c4.5-4.6,5-2.5,8.5-0.2c11.4,11.3,21.5,24.4,34.2,34.3c7.5-6.7,15.1-13,20.8-21.3
			c-11-14.2-26.8-24.2-36.9-39c1.9-4.4,5.5-7.3,9.2-10.2c9.1-9.9,20.2-18.6,28.2-29.2c-3.8-5.7-16.1-17.6-21.2-20.6
			c-87.4,85.9-174.4,173-258.9,261.6c6.5,7.6,13.2,14.3,20.8,20.4C974.3,614.6,940.8,610.9,997.3,659.8z M119,662.2
			c10.3-8.3,18.7-18.1,28.3-27.2c4.2-2.6,9-13.5,14.3-8.8c6,4.1,35.9,39.7,39.5,34.9c5.8-5.7,11.7-11.3,17.4-17.2
			c3.1-3.3-1.5-6-3.4-8.3c-8.7-8.5-17.3-17-26-25.6c-3.1-3-10.3-6.4-5.7-11.3c18.7-17.6,35.8-38.1,55-54.8
			c28.1,23.5,51.1,54.1,79.4,77.4c0.6-0.2,1.3-0.2,1.7-0.6c6.3-7,14.3-12.9,19.6-20.7c-18.3-20-37.8-38.8-56.8-58.3
			c-6.2-6.4-12.5-12.7-18.7-19.1c-3.2-3.1,0.7-6.2,3-8.5c13.3-13.6,26.8-26.8,40.3-40.2c4.5-3,9.2-14.7,14.9-8.1
			c11.7,11.2,22.8,22.9,34.3,34.2c4.7,4.5,16-13,20.8-16c4.7-3.6-0.6-7.5-3.7-10.1c-10.4-11.3-23.1-21-32.3-33.2
			c11.1-14.3,26.8-25.1,37.7-39.7c-5.1-6.9-11.4-11.7-17.2-17.9c-3.9-4.3-7.2,0.8-10,3.7c-26.4,25.7-51.9,52.2-78.4,77.8
			c-40.2,39.8-79.6,80.4-119.4,120.6c-17,17.2-34,34.1-51.1,51.2c-1.4,1.4-3,3-3.6,5.7C104.9,649.1,111.7,655.3,119,662.2z
			 M879.1,462.2c7.6-7.4,15.5-12,20.6-21.2c-86.1-87.9-174-175-262.2-260.6c-6.6,7.4-14.7,12.6-20,21.2
			c11.5,12.7,24.1,24.3,35.9,36.6c1.3,1.3,2.7,2.7,2.6,5c-12.2,13.1-26,24.7-37.4,38.5c6.3,7,12.8,13.2,19.4,19.5
			c13.5-9.9,24.9-23.5,36.9-35.5c4.6-4.6,9.4,4.2,12.8,6.8c15.1,15.2,30.7,29.9,45.7,45.3c6.6,3.6-13.9,18-16.6,22.4
			c-19.1,20.1-40.8,38.4-58.2,59.7c4.9,7.5,13.2,13.3,19.3,20.3c2.3,2,4.6-0.7,6.2-2.3c23.6-23.6,47.8-46.8,70.7-71.1
			c2.8-3.9,6.3-1.9,8.8,1.1c6.3,6.1,12.5,12.3,18.7,18.3c11.6,11,23.6,21.9,34.2,34c-2.6,5.2-3.1,6.7-8.2,9.2
			c-9.8,10.1-21.1,19.5-29.4,30.9c4,3.3,18.3,22.2,22.3,18.3c12.7-11.3,23.8-24.4,36.5-35.6C852.9,434.3,864.2,449.3,879.1,462.2z
			 M539.9,162.3c-5.8-7.5-12.2-13.1-18.7-19.7c-2.1-1.9-4.2,1-5.6,2.4c-24.4,24.4-48.7,49.1-73.3,73.3c-3.7,3.7-6.9-1.9-9.5-4.2
			c-9.2-9.3-18.5-18.6-27.7-27.9c-6.5-6.6-13.2-13.2-19.8-19.8c-1.2-1.2-2.5-2.4-2.6-4.9c12.1-13.6,26.8-25.5,38.7-39.7
			c-2.4-3.3-19.8-23.7-22.5-20.1c-12.3,11.3-23.7,23.6-35.5,35.4c-2.5,3-5.2,1.4-7.6-1.1c-7.8-8-15.8-16-23.7-23.8
			c-16.4-17.8-11-8.9-31.4,7.9c-3.4,3.5,3.4,6.6,5.5,8.8c5.3,4.1,10,8.8,14.2,13.8c37,42.4,79,79.6,117.6,120.1
			c12.3,12.3,24.4,24.9,37,37.1c10,11.3,23.6,18.6,32.5,31c16.5,17.2,32.5,35.4,50.8,50.5c3.4-3.1,22.8-18.7,19.3-22.5
			c-11.3-13.6-27.2-23.6-36.5-38.5c11-14.4,28.5-24.3,37.8-39.8c-7.5-6.4-13.8-14.7-21.9-20c-12.2,10.8-23,23-34.2,34.9
			c-5.2,7.5-10.6-2.9-14.6-6.3c-14.6-14.9-29.6-29.4-44.1-44.4c-4.4-5.8,9.8-12.6,12.7-17.4C497.6,205.5,520.5,185.6,539.9,162.3z
			 M318.4,498.7c-3.6,4.8-24.2,19.7-18.4,23.7c25.5,26.6,51.2,53,77.4,78.9c60.8,60.4,121.8,120.9,182.5,181.5
			c7.2-5,12.7-12.2,19.1-18.1c1.5-1.7,1.5-2.9,0.2-4.5c-11.7-12.2-24-23.8-35.7-36c-6.5-6.1,6-11.7,9.1-16.6
			c8.1-9.2,18.6-16.3,25.1-26.7c-6.2-6.9-12.9-13.8-20.2-19.8c-12.3,10-23.5,21.8-33.3,34.1c-1.3,1.4-3.2,1.7-5.2,2.7
			c-11.9-9.2-21.5-21.3-32.5-31.6c-5.3-5.4-10.9-10.6-16.4-15.7c-4.2-3.3-10.9-8.1-4.2-13.5c24.2-24.5,50.5-47.8,72.6-74.2
			c-4.4-8-12.1-13.9-18.5-20.3c-1.8-1.7-3.1-1.5-4.9,0.4c-24.5,24.3-48.4,49.3-72.9,73.6c-4.3,4.8-8.1-2.3-11.1-4.9
			c-15.4-14.2-28.7-31.7-46-43.5c-1.9-4.2-5-8.7,0.1-11.8c11.3-11.7,23-22.8,33.9-34.7c-4.3-7.5-11.6-12.5-17.3-18.8
			c-2-2-3.4-1.9-5.3,0c-11.5,11.6-23,23.2-34.4,34.9c-2.1,2.5-4.4,0.1-6-1.7C343.3,523.6,331.7,510.7,318.4,498.7z M759.4-20
			c-41.9,37.6-79.9,80.4-120.5,120c-46.5,47.2-95.7,93.2-139.8,141.9c2.6,3,19.4,23.5,22.2,18.2c13-11.6,23.6-25.9,37.1-36.7
			c13,10.8,24.4,24.1,36.8,35.9c1.3,1.3,3.1,2.9,4.9,1.5c29.2-27,20.5-13.7-14.9-53.5c-9.4-6.6,3.2-13.3,7.6-18.7
			c14.1-14.1,28.5-27.9,42.5-42.2c3-3,3-2.9,6.8-1c5.2,1.7,5.8,6.7,9.4,9.3c10.7,10.8,21.9,22.3,33.2,32.9
			c10.7,10.6,20.9,21.6,31.3,32.3c2.1,2,3.2,2,5.3,0c6-6,12.8-11.4,17.8-18.3c-21.8-26.8-49.2-49.7-73-74.9c-1.5-2-5.6-4.8-3.4-7.6
			c7.7-8.3,16-16.2,24.1-24.3c10.6-11.1,21-21.8,32.4-32.3c13.8,11.1,24.5,24.9,37.5,36.8c1.1,1.1,2.1,2.1,4.2,1.9
			c6.6-6.4,14.8-12.9,19.6-20.7c-53.4-60.6-46.8-22.2-0.6-81.7C772.8-7.5,766.9-14.7,759.4-20z M63,242.7
			c25.1-26.9,53.1-51.3,78-78.6c-2.1-3.6-18.5-21.6-21.9-20.7c-25.3,24.4-49.9,49.7-74.8,74.5c-4.2,5-8.2-1.4-11.3-4.3
			c-16.6-17-34.3-32.9-50.2-50.5c11.3-13.5,25.1-24.4,36.6-37.8c3.2-5.4-8.1-10.8-10.8-15c-11.5-13.2-10.1-3.5-21.8,6.6
			c-6.9,6-12.6,13.5-19.6,18.9c-2.7,1-2.7,3.7-3.6,6.3c-16.8-10.5-27.3-27.9-42.7-40c-7,7-14.7,13.1-20,21.2
			c58.8,61.4,119.8,120.5,179.8,180.5c25.4,25,50.8,50.2,76.4,75.2c5,6.2,10.3-4.2,13.9-7.6c3-3.6,7.2-6.1,9.4-10.8
			c-4-5.7-41.9-37.1-35.7-40.2c10.8-11.8,23-22,33.9-33.7c4.5-4.6-4.6-8.6-6.9-12.3c-4.6-3.8-7.9-9.9-13.5-12.3
			c-11.5,10-22.4,20.8-32.8,32c-1.8,1.9-3.7,3.8-6.5,4.4c-13.2-10.6-24.1-24.2-36.8-35.6C75.7,255.8,68,251.3,63,242.7z
			 M837.9,580.8c87.4-85.9,174.7-173,260.3-260.8c-2.6-4.2-11.7-15-19.4-19.5c-10.1,8.7-18.9,18.3-28.3,27.5
			c-2.1,2.1-4.4,4.2-4.7,7.3c-2.4,1-4.4,1.9-6.8,2.9c-13.9-12-26-26.4-40-38.2c-7.4,4.8-13.2,12.4-19.7,18.6
			c-3.2,4.3,6,9.3,8.3,12.7c8.5,8.6,17.2,17.2,25.7,25.9c2,1.8,4,4.4,1.3,6.7c-17,16.7-33.6,33.5-50.2,50.5
			c-4.7,5.7-8.4,2.6-12.1-2.1c-24.9-23.9-48.1-49.8-74.3-72.1c-8.1,5.1-13.9,12.9-20.4,19.8c24.7,28.6,54.9,52.5,79.6,81.1
			c-19.6,18.8-37.6,39-57.6,56.7c-8.5-3.7-13.6-12.6-20.9-18.5c-7.2-6.4-13-14.5-21.1-19.7c-6.4,7.1-14,11.9-18.7,20.3
			c11.5,12.7,22.5,25.9,36,36.5c0.5,1.5,1.1,3.1,1.7,5.2c-12.7,13.2-25.7,25.4-37.6,39.9C824.8,568.4,830.9,574.8,837.9,580.8z
			 M1038.3,19.1c-28,28.6-56.8,56.4-85,84.9c-21.7,21.9-17.9,13.7,6.2,37.8c16.5-12.4,29.3-29.2,44.7-43
			c18-19.5,38.2-37.4,55.5-57.5c-0.4-2.3-1.8-3.7-3.1-4.9C1050.5,30.9,1045.3,24.2,1038.3,19.1z M59.6,720.7
			c-23.7-24.9-49-48.4-73.2-72.9c-8.9-8.6-17.3-17.6-26.7-25.7c-3.1-4.4-21,17.2-23.5,20.5c21.2,22.6,44,43.5,65.9,65.4
			c12.6,10.8,22.5,25.1,36.2,34.6C46.2,735.8,54.1,729.6,59.6,720.7z M536.5,521.1c4.9,5.6,15.5,19.7,21.8,21.4
			c34.4-32.6,67.7-67.2,100.7-101c-5-6.6-11.7-11.6-16.7-18.2c-1.2-1.4-2.5-2.9-4.6-3.2C603.1,452.6,568.7,486.2,536.5,521.1z
			 M359.3,620.5c-4.2,2.7-6,6-9.5,9.1c-4.2,2.5-7,6.4-10.6,9.4c-2,1.7-1.9,2.9,0,4.8c33.8,32.5,65.9,67.1,100.7,98.4
			c8.5-5.5,14.5-13.2,21.1-20.6c-13.4-17.6-31.1-31.9-46.6-47.7C395.8,656.1,378.5,637.9,359.3,620.5z M559.1,142.4
			c20.8-15.7,37.4-37.3,56.7-55.2c14.7-15.6,31.4-29.5,44.3-46.5c-5.9-7.4-12.9-14.9-20.6-20.4c-23,21.8-44.8,45.2-67.8,67
			c-9.8,10-19.7,20-29.6,29.9c-1.4,1.4-3,2.9-3.2,5.4C545,129.6,551.8,136.9,559.1,142.4z M241.1,21.6c-19.9,15.2-35.2,36.7-54,53.9
			c-15.2,16.6-34.4,30.9-47.1,49c4.4,6.1,16,17.5,20.9,20.3c34.3-33.1,67.8-67.2,100.4-102.1C254.4,35.4,248.5,27.9,241.1,21.6z
			 M1037.6,419c-33.4,31.6-65.8,64.5-97.9,97.5c-2.5,1.9-2.6,5.1,0.2,7.1c6.3,5.2,10.7,13.9,18.4,16.9
			c33.7-32.8,67.5-66.4,99.7-100.4c-0.1-2.1-1.5-3.5-3-4.8C1049.2,429.5,1044.7,423.9,1037.6,419z M160.8,542.4
			c32.8-34.1,67.8-66.4,99.4-101.3c-5.5-7-12.5-13.3-19.1-19.3c-4.7-1.9-10.2,8.3-13.9,11.1c-29.6,29.2-59.8,58.1-88,88.5
			c5.6,7.5,12.9,13.5,19.2,20.3C158.9,541.9,159.6,541.9,160.8,542.4z M337.4,241.2c31.2,34.2,65.8,65.2,97.9,98.4
			c4.9,6.7,13.9-8.9,18.4-11.8c6.8-6.9,7-5.7-0.4-13.2c-24.3-23.9-48.6-47.9-72.8-72C354.2,218.9,363.8,212.1,337.4,241.2z
			 M860.2,321.2c-33.1-33.7-66.4-67-100.2-100c-5.5-2.6-15.8,13.5-20.8,16.8c-7.5,2.7,24.4,27.8,27.5,32.5
			c22.8,23.6,48,44.7,70.2,68.7c2.1,2.6,3.4,2.6,6,0.1C848.9,333.3,855.3,328.4,860.2,321.2z M-59.9,244c23.2,25.4,48.7,48.7,73,73
			c9,7.6,16,18.5,26.1,24.3c6.6-7.6,14-14.3,19.9-22.3C26,287-5.3,252.8-39.7,222.3C-46.1,228.7-56.8,236-59.9,244z M738.3,642.3
			c31.3,34.3,66.5,65.6,99.4,99.1c8.1-5.5,14.5-13,20.8-20.4c-32.3-33.6-65.3-67.6-99.8-98.6C754.9,624.8,741.6,637.9,738.3,642.3z"
			/>
		<path class="st0" d="M160.7-17.3c8.2-5.4,14.5-13.3,21.5-20.6c-3.4-6-8.8-9.2-13-14.7c10.6-1.5,21.3-0.2,32-0.7
			c3.2,0,5.8,0.8,8.1,3.5c2.1,4.1,12.7,8.6,8.8,13.3c-18,17.8-35.5,36-53.7,53.4c-3.4,3-4.4,3.2-7.5-0.1
			C133.7-6.5,111.1-30,87.3-52.6c10.8-2,22.1-0.2,33.1-1C128-52,132-43.5,137.9-38.9C145.6-31.8,152.4-23.7,160.7-17.3z"/>
		<path class="st0" d="M560-18.7c7.2-6.3,14.1-12.9,20.6-20.1c-2.4-5.2-7.7-7.9-10.7-13c10.3-1.7,20.9-0.2,31.3-0.7
			c4.5-0.8,13.2,8,14.8,12c-11.9,14.8-27.5,27-40.7,41.1c-6,5.2-9.8,12.7-17.4,16.1c-8.2-5.1-14.2-13.6-21.1-20.4
			c-14.7-16.6-31.3-31.3-46.4-47.4c0.5-3.3,22.4-0.7,26.8-1.4c6.5-0.8,11.1,1.8,15.2,6.8C541.1-36.1,550-26.9,560-18.7z"/>
		<path class="st0" d="M889.7-51.9c10.4,1.3,30.6-3.2,38.4,2.7c10.2,9.7,19.3,21.2,30.5,29.5c5.3-3.6,17.2-15.5,20.5-20.5
			c-2.1-4.2-6.5-6.4-9.2-11.1c10.6-1.2,21,0,31.7-0.4c6,0.2,10.4,6.7,14,11.1c-7.5,11.1-18.9,19.3-28,29.2c-7.8,8-15.7,16-23.5,23.9
			c-4.4,4.5-5.8,4.6-10.3,0.4c-21.5-21.3-42.2-43.5-64.6-63.9C889.4-51.2,889.6-51.6,889.7-51.9z"/>
		<path class="st0" d="M-85.3-53.8c-0.6,2.4-1.9,3.6-3.2,5c-15.7,15-29.9,31.2-44.9,46.7c-12.6,12.9-22.3,29.2-36.9,39.7
			c-0.5-7.9-3-31.3,2.5-36c13.6-14.8,27.3-29.5,40.8-44.3c4.6-4.4,8.1-11.7,15.4-11.2C-102.9-53.6-94.2-54.5-85.3-53.8z"/>
		<path class="st0" d="M-141,244c-3,4.4-24.3,28.1-28.8,31.9c-2.4-13.7-0.1-28.7-0.9-42.9c0.6-6.2-1.3-12.9,0.9-18.7
			c6.8,4.3,11.9,11.7,18,17C-148.3,235.4-143.1,238.8-141,244z"/>
		<path class="st0" d="M-143,643.4c-8.1,9.5-17.2,19.9-26.4,27.5c-2.1-18-0.6-51.6-0.1-55.8C-165.9,617.6-146.3,638.5-143,643.4z"/>
		<path class="st0" d="M1187.6,551.4c0.2,5.6,0.6,11,0,16.8c-2.8-0.5-4.3-2.3-5.6-4.1c-3.1-4.1-4.7-4.9,0.2-9.4
			C1184,553.8,1185.2,550.8,1187.6,551.4z"/>
		<path class="st0" d="M1182.3,161.8c1.4-1.9,2.4-3.6,4.4-5.2c1.3,3.6,0.7,6.8,0.6,10.1C1184,165.6,1184,165.6,1182.3,161.8z"/>
	</g>
</g>
</svg>
