<?xml version="1.0" encoding="utf-8"?>
<!-- Generator: Adobe Illustrator 26.0.2, SVG Export Plug-In . SVG Version: 6.00 Build 0)  -->
<svg version="1.1" id="Layer_1" xmlns="http://www.w3.org/2000/svg" xmlns:xlink="http://www.w3.org/1999/xlink" x="0px" y="0px"
	 viewBox="0 0 800 800" style="enable-background:new 0 0 800 800;" xml:space="preserve">
<g>
	<g>
		<path d="M-118.8,818.5c-3.6-1.4-5.6-3.9-7.9-6.2c-7.3-6.9-14.2-14.3-22-20.6c-3.6-2.9-6.3-6.6-9.8-9.5
			c-9.2-7.8-16.8-17.1-25.4-25.4c-4.3-4.2-8.1-8.6-12.3-12.8c-3.3-3.3-4.3-3.2-7.4,0.1c-3.9,4.2-8,8.1-12,12.2
			c-1.7,1.8-3.3,3.6-5,5.5c-0.4,0.4-0.5,1-0.8,1.8c0.6,0.8,1.2,1.8,1.9,2.6c5.8,5.7,11.7,11.5,17.5,17.2c4.6,4.5,9.3,9.1,13.9,13.6
			c4.8,4.7,9.6,9.2,14.5,13.7c2.1,2.1,4.2,4.4,6.3,6.6c7.3,7.3,14.6,14.4,21.9,21.6c0.7,0.6,1.2,1.4,1.7,2.3
			c0.6,1.1,0.5,2.3-0.4,3.2c-1.3,1.4-2.7,2.7-4,4.1c-4.5,4.4-9,8.7-13.5,13.1c-2.1,2.1-4.6,3-7.7,2.9c-9.3-0.1-18.7,0-28,0
			c-9.8,0-19.4,0.1-29.2,0.2c-1.3,0-2.6,0-4,0c-4.5-0.2-4.5-0.2-8.9-2.4c-3,1.9-6.5,2.4-10.2,2.4c-20.7-0.1-41.5-0.1-62.3,0
			c-3.5,0-6.2-0.8-8.6-3.3c-5.4-5.6-11.1-11-16.7-16.5c-1.9-1.9-2-3.3-0.1-5.5c2.9-3.1,5.8-6,8.8-8.9c6.3-6.3,12.7-12.5,19.2-18.9
			c2.3-2.3,4.6-4.4,7-6.7c0.7-0.6,1.2-1.6,1.7-2.3c-2.6-4.4-15.1-16.8-20.2-19.9c-2,0.1-3.3,1.7-4.6,3c-7.1,6.9-14.2,13.8-21.2,20.8
			c-11.4,11.5-22.7,23-34.2,34.4c-6.9,6.9-13.9,13.6-20.8,20.4c-2.1,2.1-4.5,3.2-7.6,3.2c-8.6-0.1-17.1,0.1-25.7,0.1
			c-0.7,0-1.4-0.4-2.5-0.6c2.4-4.2,5.8-6.8,8.8-10s6.1-6.3,8.6-9.8c-0.6-3.7-3.6-5.4-5.6-7.9c-1.9-2.4-4.2-4.5-6.2-6.7
			c-2.3-2.3-3.7-5.4-7.4-6.6c-3,2.7-6,5.5-9.4,8.6c-0.4-1.2-0.6-1.9-0.6-2.6c-0.1-10.1-0.1-20.3-0.2-30.3c0-2.5,1-4.3,2.6-6.1
			c4.3-4.3,8.3-8.8,12.5-13.2c5.6-6,11.1-12.1,16.7-18c0.6-0.7,1.3-1.6,2-1.9c6.4-2.6,10.1-8.5,14.9-13c6.9-6.6,13.1-13.7,19.6-20.8
			c0.6-0.7,1.1-1.4,1.8-2.4c-0.7-1.1-1.2-2-2-2.9c-5.2-5.5-10.6-11-16-16.5c-1.1-1.1-2.5-1.7-3.9-2.7c-1.4,1.2-2.9,2-4,3.2
			c-6.7,6.8-13.2,13.7-19.9,20.5c-3.1,3.3-6.2,6.7-9.3,10.1c-0.5,0.6-1,1.2-1.5,1.7c-2.3,1.9-3.8,1.8-5.8-0.5
			c-1.7-1.8-3.2-3.8-4.9-5.6c-2.1-2.1-3.1-4.7-3-7.8c0.1-4.8,0.1-9.5,0-14.3c0-3.5-0.1-6.9-0.2-10.3c0-1,0.1-1.8,0.2-2.6
			c1.4-0.7,2,0.1,2.6,0.8c1.2,1.2,2.3,2.6,3.5,3.8c1.3,1.4,2.7,2.7,5.1,3.1c0.7-0.5,1.7-1.1,2.5-1.8c9-9.3,18.1-18.6,27-27.9
			c1.2-1.2,2.4-2.5,3.5-3.8c3.3-3.9,5-4.1,8.7-0.4c4.4,4.4,8.8,8.9,13.3,13.4c5.5,5.4,11,10.6,16.4,15.9
			c6.5,6.2,12.9,12.4,18.5,19.4c1,1.2,2.1,2.1,3.2,3.2c1.5,1.7,1.5,2.9,0.1,4.5c-3.7,4.1-7.3,8.2-11.2,12.2
			c-10.8,11-21.9,21.7-32.7,32.6c-6.9,6.9-13.6,13.8-20.4,20.8c-3,3-5.8,6-8.7,9.1c-1.1,1.1-1.9,2.4-2.9,3.6c0.7,3.7,3.9,5.1,6,7.5
			c2.1,2.4,4.4,4.8,6.8,7c2.3,2.1,3.8,5.4,7.5,6.2c3.8-2.7,7.1-6.2,10.5-9.5c6.9-6.8,13.6-14,20.7-20.5c5.8-5.5,11.4-11.1,17-16.8
			c8.2-8.5,16.5-16.8,24.8-25.3c0.8-0.8,1.5-1.7,2-2.7c0.7-1.7,2.1-2,3.6-2.6c1.2-0.5,2.3-0.2,3.2,0.5c1,0.7,1.8,1.4,2.6,2.3
			c4.8,4.7,9.4,9.4,14,14.1c8.5,8.5,17,16.9,25.6,25.4c3.7,3.6,7.3,7.3,11,10.9c2,2,2.1,3.2,0.1,5.4c-2.7,2.9-5.7,5.6-8.6,8.4
			c-7.6,7.4-15.4,14.8-23,22.3c-1.9,1.8-3.8,3.7-5.2,6.2c0.6,0.8,1,1.7,1.5,2.4c3.5,3.6,6.9,7,10.5,10.5c2,2,3.9,4.2,6.1,6
			c2.3,2,3.1,1.9,5.5,0.1c0.7-0.6,1.5-1.2,2.1-1.8c4.4-4.2,8.7-8.5,13.1-12.8c3.1-3,6.3-6.1,9.5-9.1c2.6-2.4,4.9-4.8,5.2-8.5
			c0-0.4,0-0.8,0.2-1.1c1-1.3,2-2.6,3.1-4.1c0.7,0.4,1.3,1,2,1.1c4,0.5,6.8,3.3,9.4,6c8.8,8.6,17.6,17.3,26.5,26
			c2,2,4.2,3.8,6.1,5.5c2.9,0,4.3-1.7,5.8-3.1c5.4-5.1,10.6-10.4,16-15.5c2.3-2.1,2.4-3.6,0.1-5.7c-7.5-7.4-15-14.7-22.5-22
			c-7-6.9-14-14-21.2-20.9c-2.9-2.7-5.7-5.6-8.6-8.4c-10-9.7-20-19.3-29.9-29.1c-7-6.9-13.9-14.1-21-21.1
			c-6.4-6.4-13-12.9-19.4-19.3c-2.9-2.9-5.6-5.7-8.5-8.5c-12.4-12.2-24.8-24.2-37-36.4c-8.6-8.6-17-17.5-25.6-26.1
			c-8.1-8.1-16.2-16.1-24.3-24.2c-2.7-2.7-5.2-5.5-8-8.2c-6.3-6.6-12.6-13.2-18.9-19.9c-4.2-4.4-8.5-8.7-12.7-13.2
			c-5.4,2.3-7.4,7.9-11.7,10.7c-0.5-0.5-1-0.6-1-0.8c0-11.5,0-22.9,0-34.2c1.9-2.6,4.5-4.5,6.1-7.5s5.7-2.9,8.2-0.2
			c9.8,10.4,19.4,20.9,29.4,31.1c11.3,11.6,22.9,22.9,34.3,34.4c2.4,2.4,4.8,5,7.1,7.4c2.4,2.4,3.6,2.5,5.8,0.6
			c2.7-2.4,5.6-4.8,7.7-7.5c2.6-3.3,5.4-6.4,8.7-9.1c2.6-2.1,2.6-3.6,0.1-6.2c-7.5-7.9-15.1-15.6-22.6-23.4c-9-9.3-18-18.6-26.9-28
			c-7-7.3-14-14.6-21.1-21.8c-1.1-1.1-1.9-2.3-3.1-3.6c0.7-1.2,1.3-2.5,2.1-3.3c8.8-9.2,17.6-18.4,26.5-27.6
			c5-5.1,10.2-10.3,15.2-15.4c0.7-0.8,1.8-1.9,1.7-2.7c-0.2-3.5,2.6-3.9,4.5-5.4c1.1-0.8,2.4-1.2,3.5-1.9c3.3-2.3,3.7-2.4,6.8,0.5
			c2,1.9,3.8,4.2,5.8,6.2c3.9,4.1,8.1,8.1,12,12.2c4.5,4.7,9.6,8.6,13.7,13.7c0.6,0.7,1.3,1.4,2,2c2.1,1.8,3.6,1.8,5.5-0.1
			c5.6-5.5,11.1-11,16.5-16.6c1.7-1.8,1.8-3.2,0.1-5c-1.8-2-3.8-3.8-5.6-5.6c-4.9-4.9-9.6-9.8-14.5-14.6c-3.5-3.5-7.1-6.9-10.6-10.4
			c-2-2-3.9-4.1-5.7-5.7c-0.2-2.3,0.8-3.3,1.9-4.5c7-6.9,14-14,21.1-20.9c3.7-3.6,7.4-7.2,11-10.9c1.3-1.3,3-2.5,3.1-5.3
			c-1.4-1.6-2.9-3.5-4.6-5.3c-4.2-4.2-8.5-8.2-12.7-12.3c-2.3-2.3-3.9-2.3-6.4,0.1c-8.9,8.6-17.6,17.4-25.6,27
			c-7,8.6-14.9,16.2-22.9,23.9c-5.5,5.3-10.8,10.7-16.3,16c-9.3,9.1-18.7,17.9-27.9,27c-3.7,3.6-7,7.5-10.6,11.2
			c-6.9,7.5-13.9,15.2-20.8,22.7c-0.5,0.6-1.2,1-2,1.7c-0.4-1-0.8-1.6-0.8-2.1c-0.1-9.5,0-19.1-0.1-28.6c0-2,0.7-3.6,2.1-5.1
			c7.1-7.6,14.2-15.4,21.3-23.1c2.9-3.1,5.7-6.1,8.6-9.2c1.7-1.9,1.5-3.1-0.1-5c-4.5-4.7-8.9-9.4-13.5-14c-4.4-4.3-5.5-4.3-9.6,0.2
			c-1.5,1.7-3,3.5-4.5,5.1c-0.8,1-1.9,1.7-3.5,2.9c-0.4-1.2-0.6-1.8-0.6-2.5c-0.1-9.2,0-18.4-0.2-27.4c0-2.6,0.8-4.8,2.6-6.7
			c4.6-5.1,9.2-10.3,13.7-15.3c6.5-7.2,13-14.4,19.6-21.6c3-3.2,6.1-6.3,9.2-9.4c8.2-8.5,16.5-16.9,24.8-25.4
			c0.8-0.8,1.4-1.8,2.1-2.7c-0.4-0.8-0.5-1.7-1-2.1c-5.4-5.4-10.8-10.7-16.3-16c-2.4-2.3-3.6-2.3-6-0.1c-4.4,4.2-8.7,8.6-12.9,13
			c-6.4,6.7-12.9,13.6-19.3,20.3c-0.7,0.8-1.7,1.4-2.6,2.3c-2.7-0.6-4.4-2.5-6.1-4.2c-2.5-2.5-4.8-5.5-6.9-8.4
			c-0.7-1-1.4-2.4-1.4-3.6c0-9.7,0.1-19.4,0.2-29.2c0-0.1,0.1-0.4,0.2-0.5c1.1-0.6,1.8,0.1,2.4,0.7c2.1,2.1,4.2,4.4,6.4,6.6
			c1,1,2,1.7,2.9,2.4c0.7-0.2,1.2-0.4,1.3-0.6c3.3-5,8.7-7.9,12.7-12.2c4-4.2,8.5-8.2,12.5-12.5c3.2-3.2,6.2-6.8,9.3-10
			c1.1-1.1,2.4-1.7,3.7-2.6c1.2,0.7,2.3,1.2,3,2c17.6,17.9,36.3,34.6,53.3,53.2c-1,2.1-1.8,4.1-2.6,6c-0.2,0.5-0.6,1.2-1.1,1.2
			c-3.3,0.7-4.6,3.8-6.8,5.8c-10.4,10.1-20.6,20.3-30.7,30.7c-9.2,9.4-18.1,19.1-27.1,28.6c-1.1,1.1-2.1,2.1-3.2,3.2
			c-1.7,1.8-3.5,3.6-4.3,6.3c1,1.3,1.8,2.9,2.9,4.1c4.9,4.8,9.8,9.5,14.8,14.3c1.7,1.6,2.6,1.4,4.4-0.1c1.9-1.7,3.7-3.2,5.5-5
			c9.3-9.3,18.6-18.6,27.7-28c5.8-6,11.3-12.3,17.1-18.4c7-7.3,14.2-14.3,21.4-21.5c4.3-4.3,4.8-4.3,9.3-0.1
			c6.8,6.4,13.3,13.1,20,19.6c6.4,6.2,12.9,12.4,19.3,18.6c3.6,3.5,7,6.9,10.5,10.5c2.5,2.6,2.5,4.2,0,6.8c-4.3,4.4-8.6,8.6-13,12.9
			c-6.9,6.8-13.8,13.7-20.6,20.5c-1,1-1.5,2-2.4,3.2c1.8,3.2,4.4,5.5,6.8,7.9c2.5,2.4,4.9,4.8,7.5,7c2.5,2.3,4.3,5.4,7.6,6.7
			c2.5-1,4.2-2.9,6-4.5c9.9-9.5,19.6-19.1,29.4-28.8c4.5-4.4,5.8-5.4,11,0c9.9,10.3,20.4,20,30.6,30c0.7,0.6,1.5,1.1,2.6,1.8
			c1.4-1.3,3-2.4,4.2-3.8c3.1-3.7,6.7-6.7,10.2-9.8c2.4-2.1,4.3-4.8,6.4-7.4c-0.8-1.2-1.3-2.1-2-3c-3.8-3.9-7.7-7.9-11.7-11.8
			c-6.9-6.9-13.7-13.7-20.6-20.5c-7.6-7.5-15.2-14.9-22.9-22.4c-6.9-6.8-13.8-13.6-20.7-20.4c-4.2-4.2-8.5-8.2-12.6-12.4
			c-6.7-6.6-13.2-13.2-19.8-19.8c-5.2-5.3-10.6-10.4-16-15.6c-7.4-7.4-14.8-14.8-22.3-22.2c-6.3-6.3-12.9-12.4-19.2-18.7
			c-4.9-4.9-9.5-9.9-14.3-14.8c-3.5-3.6-6.8-7.2-10.4-10.6c-4.6-4.5-9.3-8.9-13.9-13.5c-4.2-4.2-8.3-8.2-12.5-12.4
			c-10-10.1-20.1-20.3-30.1-30.5c-2.3-2.3-4.5-4.5-6.9-6.9c-3,1.3-5,3.2-6.9,5.4c-1.7,2-3.6,3.9-5.5,5.8c-0.6,0.6-1.5,1-2.5,1.6
			c-0.4-0.8-0.7-1.3-0.7-1.8c0-11.8,0-23.6,0-35.7c4-3.5,8-6.9,12.1-10.3c1.4-1.2,2.6-1.1,4,0.4c2.1,1.9,4.2,3.9,6.2,6
			c7.4,7.4,14.6,14.9,22,22.4c6.3,6.3,12.7,12.5,19,18.9c5,5,10,10,15,14.9c2,2,4,4.1,6,6.1c2.1,2.3,4.2,4.4,7.1,6.1
			c3.1-1.1,5-3.8,7.3-6c2.5-2.4,4.5-5,6.9-7.5c2.3-2.3,5-4.1,6.1-7.3c-1.5-3.6-4.6-5.7-7-8.4c-3.2-3.6-6.4-7-9.6-10.4
			c-6.9-7-13.9-14.1-20.8-21.1c-6-5.8-12-11.7-18-17.5c-5.7-5.6-11.2-11.5-16.8-17.2c-1.3-1.3-2.3-3-3.2-4.2
			c0.4-2.9,2.1-4.1,3.6-5.6c3.9-4.2,8-8.2,11.9-12.3c11-11.3,21.4-23.3,33.1-34c0.6-0.5,1.1-1.1,1.4-1.8c1.3-2.3,3.5-3.5,5.8-4.3
			c3.1,1.1,5.4,3.5,7,5.8c3.2,4.4,7.3,7.9,10.8,11.7c5,5.3,10.1,10.4,15.2,15.5c1.9,1.9,3.9,3.6,6,5.4c4.6-2.5,7.7-6.4,11.2-9.9
			c3.5-3.5,7.3-6.7,10.1-11.1c-0.8-1.2-1.4-2.4-2.3-3.3c-7.9-8-15.8-16-23.8-23.9c-3.2-3.2-6.5-6.4-9.6-9.7
			c-1.1-1.1-1.9-2.4-2.7-3.5c1-2.9,1.8-5.5,2.9-8.5c2.7,0.1,5.2-1,7-3.3c1.7-2.3,4.8-3.3,4.9-6.7c0-0.5,1-1.2,1.5-1.4
			c2.7-0.8,4.4-2.9,6.3-4.8c3.8-3.9,7.9-7.8,11.7-11.7c0.5-0.5,1.1-1.1,1.7-1.6c1.9-2.1,1.9-3.5,0-5.5c-5-5-10-9.9-15.1-14.8
			c-4.3-4.2-5-4.2-9.2,0c-6.3,6.3-12.3,13-18.9,19c-4.3,3.8-7.5,8.6-11.8,12.3c-4.2,3.6-7.6,8-11.4,12.1c-6.3,6.6-12.9,13-19.2,19.6
			c-5,5.3-9.8,10.7-14.6,16c-4,4.3-8.3,8.4-12.4,12.6c-7.3,7.8-14.4,15.8-21.7,23.6c-4.6,5-9.4,10-14,15c-0.1,0.1-0.4,0-0.6,0.1
			c-1-0.2-1-1.2-1-1.9c0-10.1,0-20.2,0-30.3c0-1.7,0.6-2.9,1.7-4.1c3.8-4.3,7.6-8.5,11.4-12.8c5.6-6.2,11.1-12.5,16.8-18.7
			c7.9-9.1,15.5-17.1,23.1-25.1c4.4-4.7,8.9-9.4,13.3-14.1c5.7-5.8,11.5-11.7,17.1-17.5c6.2-6.4,12.1-13,18.5-19.4
			c8-8.2,16-16.3,24-24.3c2.7-2.7,5.7-2.5,8.6,0c0.5,0.4,0.8,0.8,1.2,1.3c4.9,4.9,9.6,9.8,14.5,14.6c9.6,9.5,19.3,19,28.9,28.4
			c2.5,2.4,4.9,4.8,7.3,7.3c2.5,2.5,2.3,4.4-0.2,6.8c-5.7,5.6-11.4,11.2-17,16.8c-5,5-10,10-14.9,15c-1.3,1.3-2.4,2.9-3.5,4.2
			c0.8,3.1,3,4.9,4.8,6.8c4.2,4.2,8.5,8.2,12.6,12.4c1.2,1.2,2.3,2.6,4.4,3c0.7-0.6,1.8-1.2,2.5-1.9c5-4.9,10-9.9,15-14.9
			c4.4-4.4,8.9-8.8,13.3-13.2c2-2,3.9-4.1,6.1-6.1c1.8-1.7,3.1-1.8,5-0.2c1.1,0.8,2,1.7,3,2.6c6.1,6.1,12,12.2,18,18.3
			c4.2,4.2,8.5,8.2,12.6,12.4c1.1,1.1,2.3,1.8,3.8,3c7.9-7,15-14.3,21.8-22.1c-1-2.3-2.4-3.7-3.8-5.1
			c-10.2-10.3-20.5-20.4-30.7-30.7c-6.8-6.9-13.5-14-20.4-20.8c-5.6-5.6-11.5-11.1-17.1-16.7c-4.2-4.2-8.3-8.4-12.5-12.5
			c-1.7-1.6-3.3-3.1-4.9-4.8c-1.2-1.2-2.1-2.5-3.5-3.9c0.8-0.5,1.3-0.8,1.8-0.8c9.5,0,19,0.1,28.6-0.1c3.2-0.1,5.5,1.1,7.6,3.2
			c6.5,6.4,13.1,12.8,19.5,19.2c10.6,10.5,21.2,20.9,31.7,31.4c2.9,2.9,5.6,5.7,8.5,8.5c9,9.3,18.1,18.5,27.1,27.7
			c1.1,1.1,2.4,1.9,3.5,3c1.5,1.6,1.4,3.2-0.1,5c-4.6,4.9-9.3,9.7-13.8,14.4c-5.7,5.8-11.2,11.9-17,17.8
			c-7.6,7.8-15.4,15.3-23.1,22.9c-1.2,1.2-2.9,1.4-4.2,0.6c-1.1-0.7-2.3-1.6-3.1-2.5c-6.8-6.9-13.5-14.1-20.4-20.9
			c-4.8-4.7-9.3-9.5-14.9-13.6c-1.2,0.7-2.3,1.3-3.3,2.1c-5.4,4.5-15,14.6-17.5,18.5c5.7,7.2,12.7,13.2,19,20
			c6.2,6.7,13.2,12.6,18.9,19.2c-0.5,3.5-1.9,5.3-4.4,6.8c-2.5,1.7-4.5,4.1-6.7,6.2c-8.3,8.4-16.7,16.8-24.9,25.2
			c-0.7,0.7-1.3,1.8-1.9,2.6c0.6,2.1,1.9,3.6,3.5,4.8c5.8,5,10.6,11.3,17.1,16c1.3-1,2.4-1.7,3.3-2.6c10.4-10.4,20.7-20.8,31.1-31.1
			c8-8,16-15.9,23.8-23.9c6.1-6.2,12-12.6,18.1-19.1c0.4-0.5,0.7-0.8,1.2-1.2c13-10.6,24.2-23.3,36.2-34.8c8.1-7.8,15.7-16,23.7-24
			c7.3-7.3,14.5-14.6,21.8-21.8c7.7-7.9,15.6-15.6,23.3-23.5c6.1-6.2,12-12.8,18.2-19c11.1-11.2,22.4-22.3,33.5-33.5
			c2.3-2.4,4.6-3.5,8-3.3c8,0.4,16,0.1,24,0.2c2,0,4,0.1,6,0.2c0.6,1.8-0.5,2.5-1.2,3.2C24.5-40.9,16-32.4,7.6-23.9
			C0-16.3-7.6-8.6-15.3-0.8c-0.4,0.4-0.6,1-1,1.4c-0.2,2.3,1.2,3.5,2.6,4.9c2.6,2.5,5.2,5,7.7,7.6c1.9,1.9,3.7,3.8,5.6,5.7
			c0.6,0.7,1.3,1.4,2,1.9c1.8,1.4,2.9,1.4,4.5-0.1c2.6-2.5,5.2-5,7.9-7.5c3.1-3.1,6.3-6.1,9.4-9.2c8.9-9.1,18-18.1,26.9-27.2
			c7-7,14-14,21-21c2.1-2.1,4.3-4.3,6.5-6.3c3.6-3.2,8.8-3.1,12.4,0.2c1.4,1.3,2.6,2.7,4,4.1c7.7,7.6,15.5,15.3,23.1,22.9
			c7,7,13.8,14.1,20.8,21.2c0.6,0.7,1.2,1.4,1.8,2.3c-2.6,6.1-7,10.5-11.9,14.4c-6.1,4.9-11.5,10.5-16.9,16.1
			c-2.4,2.5-4.6,5-6.9,7.6c-0.6,0.7-1,1.6-1.4,2.5c1.4,3.5,4,5.8,6.7,7.9c5.5,4.3,9.2,10.7,15.6,14.4c3.3-3.1,6.5-6.1,9.6-9.2
			c7.7-7.9,15.5-15.8,23.2-23.6c0.6-0.5,1.1-1.1,1.7-1.6c4.6-4.1,4.5-5.1,10.1,0.5c6.4,6.4,12.7,13.1,19.3,19.6
			c4.5,4.5,9.3,8.9,14.2,13.5c1.2-0.7,2.1-1.1,3-1.8c6.5-5.6,12.1-12.1,18-18.3c-0.7-3.3-3.2-5-5.1-7c-5.6-5.7-11.2-11.5-16.8-17.1
			c-3.3-3.3-6.7-6.8-10.1-10.1c-7.4-7.4-14.6-14.9-22.1-22.3c-6.3-6.3-12.7-12.5-19-18.9c-5.5-5.5-11-11.1-16.4-16.7
			c-0.5-0.5-1-1.1-1.7-2c1.1-0.2,1.7-0.6,2.4-0.7c7.1-0.5,53.2,0.1,57,0.7c0.7,1.1-0.4,1.7-1,2.3c-2.7,3.1-5.6,6.2-8.5,9.2
			c1,2.5,2.7,4.1,4.3,5.7c9.4,9.4,18.8,18.9,28.3,28.3c9,9.1,18,18.1,26.9,27.2c4.4,4.4,8.9,8.8,13.3,13.2c0.2,0.2,0.5,0.6,0.8,0.8
			c3.6,3.9,3.7,5.1,0.4,9.3c-0.7,1-1.4,1.8-2.3,2.5c-14.2,14.3-28.5,28.6-42.6,43c-2.3,2.3-4.5,4.7-6.9,6.8
			c-2.6,2.4-3.8,2.3-6.2-0.1c-7.1-7.3-14.3-14.7-21.5-22c-4-4.1-8.2-8-12.3-11.9c-1.4-1.3-2.5-1.3-3.9,0.1
			c-5.2,5.3-10.6,10.4-15.8,15.6c-1,1-1.5,2.1-2.5,3.5c1.8,1.9,3.5,3.8,5.1,5.5c9.8,9.9,19.5,19.8,29.3,29.7c1.2,1.2,2.7,2.1,3,4.4
			c-0.8,1.9-2.6,3.3-4.2,5c-8.7,8.7-17.6,17.4-26.3,26.1c-2.5,2.5-4.9,5.3-7.5,8.1c0.8,1.2,1.3,2.1,2,2.9c3,3,6,6,8.8,8.8
			c0.6,0.6,1.1,1.2,1.5,1.7c3.2,3,6.4,5.8,9.8,9.1c1-0.7,1.9-1.3,2.6-2.1c7.7-7.6,15.5-15.2,23.2-22.8c8.1-8,16.3-16,24.4-24.1
			c5.8-5.8,11.4-11.7,17.1-17.5c6.7-6.8,13.6-13.4,20.1-20.3c8.5-9.1,17.1-17.8,25.8-26.6c9.4-9.4,18.8-19,28.1-28.4
			c10.5-10.6,20.8-21.1,31.3-31.7c6-6,11.8-11.8,17.9-17.7c11.3-11.1,22.5-22.1,33.8-33.2c2.7-2.6,5.4-5.4,8-8.2
			c1.7-1.9,3.6-2.6,6.1-2.6c7.3,0.1,14.5,0,21.7,0c2.9,0,5.7,0,9,0c-0.4,1.2-0.5,2.3-1,2.7c-6.9,7-14,14-21,20.9
			c-1.7,1.6-3.1,3.3-4.6,5c-3.5,3.5-7,6.9-10.6,10.4C392.2-9,387.6-5.1,384,0.3c0.5,1,0.6,2.1,1.4,2.9c5.8,5.7,11.7,11.5,17.5,17.2
			c0.2,0.2,0.7,0.4,1.3,0.7c0.8-0.5,1.9-0.7,2.6-1.4c7.5-7.3,15-14.6,22.4-22c6.2-6.2,12.3-12.5,18.5-18.7
			c9.3-9.3,18.6-18.6,27.7-28c2.1-2.3,4.5-3.1,7.5-3.1c7.7,0.1,7.7,0,13.3,5.6c11.7,11.8,24,24,36.3,36.3c2.7,2.6,5.2,5.5,8,8.2
			c-0.5,2-0.8,3.8-1.3,6c-2.6,0.5-4.9,2-6.9,4.2c-8.8,9.1-17.6,18-26.4,27c-0.6,0.6-1.1,1.1-1.5,1.7c-1.7,1.9-1.8,3.2-0.1,4.9
			c2.1,2.3,4.3,4.4,6.4,6.6c3.1,3.1,6.2,6.1,9.4,9.2c1.2,1.2,2.4,2.5,4.2,2.9c2.5-0.5,4-2.3,5.6-3.8c9.4-9.4,18.8-18.9,28.2-28.4
			c1.3-1.3,2.5-2.9,3.8-4.3c1-1,2.1-1.1,3.1-0.2c1.3,1.1,2.6,2.3,3.8,3.5c8.2,8,16.3,16,24.5,24c1.3,1.3,2.6,2.7,4,4.1
			c1.9,1.8,3.6,4.1,6.1,5c3.8-2,16.3-14.3,19.9-19.4c-0.4-2-1.9-3.1-3.2-4.5c-8.7-8.8-17.3-17.7-26.1-26.5c-7-7-14.3-13.6-21.2-20.8
			c-4.6-4.8-9.6-9.1-14-14.1c-6.9-7.6-14.2-14.7-21.2-22c-1.3-1.3-2.5-2.7-3.9-4.3c0.7-0.5,1.2-1,1.7-1c17.5,0,35,0.1,52.6,0.1
			c0.8,0,1.8,0.2,2.9,0.4c-0.4,3-2.7,3.8-4,5.6c-1.3,1.8-2.7,3.6-4.4,5.5c0.8,1.1,1.3,2.1,2.1,2.9c6.3,6.4,12.5,12.8,18.8,19.1
			c7.4,7.4,14.8,14.8,22.3,22.2c8,8,15.8,15.9,23.8,23.9c1.1,1.1,2.1,2.1,3.2,3.2c3.3,3.5,3.2,3.5,7.4,4.8c0.1,1.7,0.2,3.3,0.5,5.3
			c-6.4,6.4-12.9,12.9-19.3,19.3C631,69.7,621,79.9,610.9,90c-2.1,2.1-4.2,4.4-6.2,6.7c-0.7,0.7-2.3,0.8-3.1,0.1
			c-0.7-0.6-1.4-1.3-2-2c-5.1-5.1-10.1-10.4-15.4-15.4c-6.3-6-13-11.8-19.5-17.7c-0.4-0.4-1-0.5-1.8-0.8
			c-6.2,6.3-12.5,12.5-18.2,18.9c-0.1,2.3,1,3.3,2,4.4c3.8,3.7,7.5,7.5,11.2,11.3c3.9,4.2,7.7,8.5,11.7,12.5c1.8,1.9,3.8,3.8,6,5.3
			c2.1,1.3,2.7,3.5,3.9,5.3c0.4,0.5,0.2,1.7-0.1,2.1c-1.3,2-2.5,4.5-4.4,5.8c-5,3.6-9.3,7.9-13.3,12.4c-4.2,4.8-8.8,8.9-13,13.6
			c-1.9,2.1-3.8,4.3-5.7,6.4c-0.4,0.4-0.5,1.1-0.7,1.8c1.3,1.6,2.5,3.2,3.9,4.7c4,4.1,8.1,8,12.1,12.1c0.8,0.8,1.4,1.8,2.1,2.6
			c2.1,2.5,3,2.7,5.5,0.2c8.9-8.6,17.7-17.3,26.5-25.9c7.1-6.9,14.3-13.8,21.2-20.8c6.8-6.7,13.3-13.6,20-20.3
			c6.2-6.2,12.4-12.4,18.6-18.6c6.7-6.8,13.3-13.6,20-20.3c4.5-4.7,9.3-9.1,13.8-13.6c6.7-6.8,13.2-13.7,20-20.4
			c9.5-9.5,19.2-19,28.7-28.6C743.6,2.9,752.3-6,761.3-15c11.5-11.6,23.3-23,34.9-34.6c1.7-1.7,3.3-2.4,5.5-2.4c3.1,0,6.1-0.1,9.2,0
			c5.4,0,10.7,0,16,0.1c1.3,0,2.5,0.2,4.4,0.5c-0.8,1.3-1.2,2-1.8,2.7c-1.8,1.9-3.7,3.8-5.6,5.7c-9.3,9.1-18.5,18.1-27.6,27.2
			c-3.7,3.6-7.3,7.3-10.7,11.1c-1.1,1.1-1.8,2.4-2.7,3.6c0.5,2.6,2.3,4.2,3.8,5.7c4.6,4.8,9.4,9.4,14.2,14.1
			c0.7,0.7,1.4,1.3,2.1,1.8c1.1,0.7,2.1,0.6,3.2-0.1c0.5-0.4,0.8-0.7,1.3-1.1c4.5-4.5,9.2-9.2,13.7-13.7c6.4-6.4,12.9-13,19.3-19.4
			c4.4-4.4,9-8.8,13.3-13.2c4.6-4.8,9.2-9.7,13.8-14.4c2.7-2.9,5.6-5.7,8.6-8.5c0.7-0.6,1.5-1.3,2.4-1.3c2.7-0.2,5.6-0.1,8.5-0.1
			c1.7,0,2.7,1,3.9,2c3.8,3.9,7.7,7.9,11.7,11.8c1.3,1.3,2.7,2.6,4.2,3.8c3.9,3.3,6.3,7.2,6.2,12.8c-0.2,13.7,0,27.4,0,41.2
			c0,1,0,1.9,0,2.9c0.1,4.5-1.5,8-5.2,10.7c-1.8,1.3-3.2,3.2-4.6,4.9c-1.3,1.4-1.2,2.6,0.2,4.1c2.4,2.5,4.8,4.9,7.3,7.3
			c1.8,1.7,2.7,3.5,2.6,6.1c-0.1,2.9,0.1,5.7,0.1,8.6c0,13.4-0.1,26.7,0,40.1c0,3-0.6,5.5-3,7.6c-5,4.7-9.6,9.7-14.5,14.6
			c-2.1,2.1-4.2,4.4-6.3,6.6c-1,1-1.9,1.9-3,2.7c-2.3,1.9-3.3,2-5.5,0c-5.2-5-10.4-10.1-15.5-15.3c-2.4-2.4-4.5-5.1-6.9-7.6
			c-3.6-3.7-7.3-7.3-10.8-11c-0.5-0.5-1.2-1-1.8-1.4c-1.2-0.8-2.5-1.1-3.7-0.1c-0.6,0.5-1.3,0.8-1.8,1.4
			c-5.7,5.8-11.4,11.7-16.9,17.3c-0.4,2.4,1.1,3.6,2.3,4.8c4.9,5,9.9,10,14.9,15c7.3,7.3,15,14.2,21.7,22
			c7.5,8.6,16.1,16.2,23.8,24.6c2.3,2.4,4.5,4.7,6.8,6.9c5.6,5.7,11.2,11.5,16.9,17.1c1.9,1.9,3,3.8,2.9,6.6c0,3.8,0.2,7.6,0.2,11.5
			c0,4.8,0,9.5,0,14.3c0,1.4-0.2,3-0.4,4.2c-1.4,0.8-2.1,0.1-2.9-0.6c-6.9-6.8-13.7-13.7-20.6-20.6c-1.4-1.4-3.1-2.7-4.8-4.3
			c-1.2,0.7-2.3,1.2-3.1,1.9c-5.1,4.9-10.1,9.8-15.1,14.8c-0.4,0.4-0.8,0.7-1.2,1.2c-1.8,2.3-1.7,4.7,0.4,6.7
			c10.2,10.3,20.5,20.4,30.7,30.7c4.5,4.5,9,9.2,13.7,13.7c2,2,3.2,4.2,3.2,7c0,9.5,0.1,19.1,0.1,28.6c0,0.7-0.4,1.4-0.6,2.5
			c-1.1-0.5-2-0.7-2.6-1.3c-1.9-1.7-3.6-3.3-5.4-5.1c-7.1-7.2-14.3-14.3-21.4-21.4c-4.8-4.7-9.8-9.1-14.6-13.6
			c-2-1.9-3.9-4.2-6.1-6.1c-4.2-3.9-8.5-7.8-12.5-11.7c-3-3-5.8-6-8.7-9.1c-5.7-6.3-12-12.2-17.4-18.9c-3.1-3.8-6.9-7-10.5-10.6
			c-10.7-10.9-21.4-21.7-32.1-32.5c-4.8-4.8-9.5-9.3-14.4-13.8c-1.1-1.1-2.4-1.8-3.7-2.9c-1.1,0.7-2,1.3-2.9,2
			c-5,4.9-10,9.9-15,14.9c-0.8,0.7-1.3,1.8-2.1,2.9c3.6,5.3,8.1,9.2,12.4,13.5c4.3,4.4,8.6,8.7,12.9,12.9c4.4,4.2,8.8,8.4,12.6,12.5
			c0.1,2.3-1.2,3.2-2.3,4.3c-8.6,8.4-17.1,16.7-25.7,25.2c-3.6,3.5-6.9,7-10.2,11c0.8,1.1,1.3,2,2.1,2.9c5.4,5.5,10.6,10.9,16,16.3
			c0.6,0.6,1.1,1.1,1.7,1.6c1.5,1.2,2.6,1.1,4.2-0.1c1.9-1.7,3.8-3.2,5.5-4.9c5.7-5.6,11.2-11.3,16.9-16.9
			c4.8-4.7,9.5-9.3,14.5-14.2c1.2,0.6,2.5,0.8,3.5,1.7c1.9,1.6,3.6,3.5,5.4,5.1c9,8.9,18.2,17.9,27.3,26.8
			c3.8,3.7,7.5,7.6,11.3,11.3c1.4,1.4,2.9,3.1,4.6,4.3c2.1,1.4,3.5,3.5,4.6,6c-0.5,0.6-0.8,1.6-1.4,2.1c-6.4,6.4-13,12.9-19.5,19.3
			c-8.3,8.4-16.8,16.6-25.1,24.9c-7.5,7.5-15,15.2-22.5,22.8c-2.6,2.7-5.4,5.4-8,8.2c-1.5,1.7-1.7,3-0.2,4.5
			c6,6.4,11.8,13,18.6,18.5c3.2-0.5,5-3.1,6.9-4.9c5.5-5,10.6-10.4,15.8-15.6c10.7-10.9,21.4-21.7,32-32.7c7-7.2,13.9-14.6,21-21.7
			c0.4-0.4,0.8-0.8,1.3-1.1c2.1-1.6,3.6-1.6,5.6,0.2c2.7,2.4,5.4,4.9,7.9,7.4c5,5,9.9,10,14.9,15c1.2,1.2,2.4,2.5,3.6,3.7
			c1.4,1.4,2,3.2,2,5.1c0,1.9,0.1,3.8,0.1,5.7c0,13.1-0.1,26.4,0.1,39.5c0.1,4.3-1.2,7.8-4.5,10.6c-2.5,2.3-5.2,4.4-6.9,7.9
			c0.5,0.8,1,1.9,1.7,2.6c1.8,1.9,3.7,3.9,5.7,5.6c2.9,2.4,3.9,5.1,3.9,8.9c-0.1,14,0.1,27.9,0.2,41.8c0,0.6-0.1,1.2,0,1.7
			c0.2,3.5-1.1,6.2-3.6,8.6c-5.8,5.7-11.5,11.6-17.3,17.4c-2.6,2.7-5.2,5.5-8,8.1c-1.1,1.1-2.4,1.8-3.7,2.9
			c-2.5-2.3-4.8-4.3-6.8-6.4c-5.8-6.2-11.7-12.5-17.5-18.7c-2.7-2.9-5.6-5.7-8.5-8.6c-1-1-1.9-1.9-3-2.6c-2.1-1.6-3.8-1.7-5.6,0.1
			c-5.8,6-12.1,11.6-17.1,18.4c-0.1,0.1,0,0.4-0.1,1c0.8,2,2.7,3.8,4.4,5.6c5.7,6.1,11.5,12.1,17.4,18.1c5,5.1,10.2,10.3,15.2,15.4
			c3,3.1,5.7,6.7,8.8,9.8c7,7.2,14.4,14.2,21.4,21.4c7.1,7.2,14,14.4,21.3,21.5c1.8,1.8,2.5,3.7,2.5,6.1c0,9.3,0.1,18.7,0.1,28
			c0,1-0.2,1.8-0.5,3.2c-1.1-0.6-1.7-0.7-2.1-1.2c-4.5-4.4-8.8-8.9-13.3-13.2c-4.9-4.8-9.9-9.4-14.9-14.1c-0.5-0.5-1.3-0.7-1.9-1
			c-5.7,3.2-15.5,13.6-19.4,20.4c1.3,2.6,3.2,4.9,5.4,7c8.6,8.5,17,16.8,25.6,25.3c5.8,5.7,11.7,11.6,17.5,17.2
			c2.6,2.5,4.2,5.1,4,8.9c-0.2,9.3,0,18.7,0,28c0,0.5-0.4,1.1-0.5,1.4c-1.3,0.6-1.8-0.4-2.5-1c-8.8-8.6-17.6-17.3-26.5-26
			c-8.2-8-16.3-16-24.2-24.3c-6.9-7.3-14.4-14.2-21.5-21.2c-7.1-7.2-14.3-14.3-21.5-21.4c-5.8-5.7-11.8-11.3-17.6-17.2
			c-8.1-8.1-16.1-16.2-24.2-24.3c-3.8-3.8-7.7-7.4-11.7-11c-0.4-0.4-1-0.5-1.7-0.8c-0.6,0.2-1.4,0.5-1.9,1
			c-3.9,3.8-7.9,7.8-11.8,11.7c-1.7,1.6-3.2,3.2-4.8,4.9c-2.4,2.5-2.4,3.5-0.2,5.7c6,6.1,12,12.2,18.1,18.3
			c5.6,5.5,11.1,11,16.7,16.5c0.4,0.4,0.6,1,1.1,1.7c-0.7,0.8-1.3,1.8-2,2.5c-10.1,10.3-20.4,20.5-30.5,30.9c-1.7,1.8-3.7,3.3-4.5,6
			c0.7,0.8,1.3,1.8,2,2.6c5.2,5.4,10.4,10.6,15.7,15.9c2.1,2,3.2,2,5.4,0c3.8-3.7,7.6-7.5,11.3-11.3c7.3-7.3,14.5-14.6,21.8-21.8
			c0.8-0.8,1.8-1.3,2.9-2.1c2.1,0.6,3.8,1.9,5.2,3.3c10.6,10.4,21.2,20.9,31.8,31.3c6.8,6.7,13.6,13.4,20.4,20
			c1.1,1.1,1.8,2.4,2.7,3.8c-4.6,6.1-10.5,10.7-15.5,16.1c-4.9,5.4-10.2,10.3-15.2,15.4c-5.2,5.3-10.5,10.5-15.7,15.9
			c-5.1,5.1-10.2,10.1-15.2,15.4c-5.1,5.4-10.7,10.3-15.4,16.5c3.3,5.5,8.6,9.2,13,13.6c2.5,2.5,4.4,5.8,8.6,6.7
			c3.5-2.4,6.2-5.5,9.2-8.4c7.7-7.6,15.5-15.3,23.2-22.9c3.8-3.8,7.4-7.8,11.1-11.6c1.9-1.9,3.9-3.6,5.7-5.6
			c7-7.4,14-14.9,21.2-22.4c2.1-2.1,4.4-4.2,6.5-6.3c3.1,0.7,4.6,3.1,6.4,4.9c6.9,6.6,13.6,13.4,20.4,20c0.8,0.8,1.5,1.7,2.4,2.5
			c1.8,1.9,2.5,4.1,2.5,6.8c-0.1,14.6-0.1,29,0,43.6c0,3.6-0.7,6.7-3.6,9.2c-2.1,1.9-3.9,4.1-5.8,6.2c-1.5,1.9-1.4,3.2,0.2,5
			c2.1,2.1,4.4,4.2,6.5,6.3c2,2,2.9,4.4,2.6,7.3c-0.2,2.3,0.2,4.5-1.3,6.8c-1.1,0.1-2.1,0.4-3.3,0.4c-5.5,0-11.1,0-16.5,0
			c-2.4,0-4.4-0.5-6.1-2.5c-2-2.3-4.4-4.3-6.4-6.6c-3.7-4.2-8-7.3-12.9-9.8c-1.5-0.8-2.1-2.4-1.2-3.7c0.7-1.1,1.7-2.1,2.6-3.1
			c9.9-9.8,19.8-19.6,29.5-29.5c2.1-2.1,4.6-3.9,5.7-7.2c-0.4-0.7-0.6-1.4-1.1-1.9c-4.5-5.1-16.3-16.1-20.7-19.2
			c-1,0.6-2.3,1.2-3.1,2c-5.5,5.6-11.5,10.5-16.4,16.6c-1.9,2.4-4.3,4.3-6.4,6.4c-13.1,13-26.2,26-39.3,39.1
			c-4.5,4.5-9,9.2-13.7,13.8c-1.8,1.8-3.6,3.5-5.5,4.9c-1,0.7-2.5,0.8-3.8,0.8c-6.7,0.1-13.3,0.1-20,0c-2.5,0-5-0.1-7.4-0.2
			c-0.6,0-1.3-0.5-2.3-1c6.4-7.5,14-13.2,19.9-20.9c-0.2-2.4-1.8-3.8-3.3-5.4c-3-3-6-6-8.9-8.7c-2.5-2.3-5.2-4.4-8-6.8
			c-1.4,1.1-2.7,1.9-3.8,2.9c-5.5,5.3-11,10.6-16.4,15.9c-6.4,6.2-12.7,12.5-19,18.9c-3.1,3.1-6.5,5-11.1,4.9
			c-8.6-0.2-17.1-0.1-25.7-0.2c-0.7,0-1.3-0.4-2.1-0.7c0.4-0.7,0.4-1.4,0.7-1.8c9.2-9.1,18.5-18.1,27.6-27.2
			c7.4-7.4,14.8-14.8,22.3-22.2c0.2-0.2,0.5-0.6,0.8-0.8c4-2.6,6.5-6.8,10-10s6.9-6.4,10.4-9.9c9.4-9.4,18.7-19,28.1-28.4
			c9.9-10,19.9-19.9,29.9-30c2.4-2.4,4.9-4.9,7.1-7.4c1.9-2,1.9-3.6,0-5.5c-2.5-2.6-5.1-5.1-7.7-7.6c-2.6-2.7-5.2-5.5-8-8.1
			c-1.1-1.1-2.3-2-3.6-2.9c-1.8-1.3-2.7-1.2-4.5,0.5c-2.4,2.3-4.6,4.5-6.9,6.8c-6.5,6.7-13.1,13.2-19.6,19.9c-1.4,1.4-3,3-4.3,4.7
			c-1.2,1.7-2.1,3.6-3.2,5.4c-2.6-0.4-4.4-2-6.2-3.8c-7.6-7.4-15.2-14.9-22.9-22.3c-2.6-2.5-5.1-5.1-7.7-7.5c-1.7-1.6-3.5-3-5-4.3
			c-2.4,0.5-3.8,1.8-5.1,3c-6.5,6-13.5,13.6-15.7,17.5c2.3,3.9,6.1,6.6,9.2,9.9c3.1,3.3,6.4,6.6,9.6,9.8c3.1,3.1,6.3,6.1,9.4,9.2
			c3.2,3.2,6.4,6.4,9.9,9.9c-0.7,1.1-1.2,2.1-2,2.9c-4.5,4.7-9,9.3-13.6,13.8c-7.1,7.2-14.3,14.3-21.3,21.5
			c-2.9,2.9-5.7,5.6-8.5,8.5c-3,3-6,6-8.9,8.8c-1.2,1.2-2.6,2.1-4,3.3c-1.2-1-2-1.6-2.9-2.3c-8.5-8.2-17-16.5-25.4-24.7
			c-7.7-7.6-15.4-15.4-23.1-23c-8.3-8.4-16.8-16.6-25.2-24.8c-0.2-0.2-0.5-0.6-0.8-0.8c-1.7-1.4-2.6-1.4-4.5,0
			c-0.7,0.6-1.4,1.2-2.1,1.9c-4.4,4.4-8.9,8.9-13.2,13.5c-1.2,1.2-2,2.6-3.1,4.1c0.7,1.1,1.1,1.9,1.8,2.6
			c6.9,6.8,13.8,13.6,20.7,20.4c6.7,6.6,13.2,13.2,19.9,19.7c6.2,6.2,12.5,12.2,18.8,18.3c3.9,3.8,7.7,8,12,11.5
			c2,1.7,3.5,3.3,4.6,5.6c-0.2,0.6-0.4,1.2-0.7,1.6c-5.6,5.5-11.1,11-16.7,16.5c-0.8,0.8-1.7,1.6-2.5,2.4c-2.3,2.1-5,3.2-8.2,3.1
			c-10.2-0.1-20.6,0-30.8,0c-9.8,0-19.4,0-29.2,0.2c-3.6,0.1-6.8-0.4-9-3.1c-0.7,0.1-1.2,0-1.4,0.2c-3,2.5-6.4,2.6-10.1,2.6
			c-18.3-0.1-36.5,0-54.9,0c-3.1,0-6.1,0-9.5,0c-7-7.4-15.5-13.6-22-22.1c0.8-1.2,1.3-2.1,2.1-3c3.1-3.1,6.2-6.2,9.3-9.3
			c6.2-6.2,12.5-12.3,18.7-18.5c2.1-2.1,4.5-4.2,6.4-6.4c1.7-2,1.5-3.3-0.1-5c-5-4.9-10-9.9-15.2-14.7c-3.8-3.5-4.9-3.3-8.6,0.2
			c-6.7,6.4-13.3,13.1-20,19.6c-6.3,6.1-12.6,12.2-18.8,18.3c-11.7,11.5-23.3,23-35,34.5c-6.8,6.7-6.7,6.3-15,6.3
			c-7.6,0-15.2-0.1-22.9-0.2c-1,0-1.8-0.2-3.3-0.4c0.6-1,0.7-1.7,1.2-2.1c6.2-6.1,12.5-12.2,18.8-18.4c4.9-4.8,9.8-9.5,14.6-14.4
			c7.7-7.6,15.5-15.2,23.2-22.8c8.9-8.8,17.7-17.8,26.7-26.6c4.5-4.4,8.9-8.8,13.5-13.2c4.9-4.8,9.6-9.8,14.5-14.6
			c1.4-1.4,3-3,4.5-4.4c1.9-1.7,2.9-1.7,4.9,0.1c2,1.8,3.8,3.7,5.7,5.6c8.7,8.6,17.4,17.1,26.1,25.7c6,5.8,11.9,11.8,17.9,17.7
			c1.4,1.4,3.2,2.7,4.6,4.3c1.7,1.8,1.8,3.3,0.1,5.1c-2.9,3-6,5.8-8.9,8.8c-8.5,8.2-16.9,16.5-25.2,24.8c-1,1-1.5,2-2.4,3.1
			c0.2,0.7,0.4,1.4,0.7,1.8c5.2,5.3,10.5,10.5,15.8,15.8c2.7,2.6,3.9,2.6,6.8-0.1c10.8-10.6,21.7-21.4,32.6-32
			c1.1-1.1,2.1-1.9,3.3-3c3.2,1.8,5.2,4.3,7.6,6.4c4.9,4.5,9.6,9.2,14.4,14c4.5,4.4,8.8,8.9,13.2,13.4c4.5,4.5,5.7,4.5,10.2,0
			c4.6-4.8,9.4-9.4,14.2-14.1c1.1-1.1,2-2.1,2.9-3.1c0.2-2.1-1.2-3.1-2.1-4.2c-6.2-6.2-12.5-12.2-18.8-18.4
			c-5.1-5-10.2-10.3-15.4-15.3c-7.7-7.6-15.5-15.2-23.2-22.8c-7.3-7.3-14.4-14.7-21.7-22c-6.4-6.4-13-12.9-19.5-19.3
			c-6.7-6.6-13.2-13.2-19.8-19.8c-10.8-10.7-21.8-21.4-32.6-32c-7.5-7.4-14.8-14.8-22.3-22.2c-15.6-15.4-31.2-30.8-46.7-46.3
			c-11.3-11.2-22.6-22.6-34-33.8c-1.4-1.4-3.1-2.7-4.8-4.2c-1.2,0.6-2.1,0.8-2.7,1.4c-6.4,6.2-12.6,12.5-18.5,19.1
			c0.2,3.1,1.3,5.4,3.3,7.3c6,5.6,11.8,11.3,17.5,17.2c4.4,4.4,8.8,8.9,13.1,13.5c0.8,0.8,1.4,1.8,2,2.7c0.6,1.1,0.6,2.3-0.2,3.2
			c-1,1-1.9,1.8-2.9,2.7c-10.4,10.4-20.7,20.8-31.1,31.1c-1.1,1.1-1.9,2.3-2.9,3.6c2.6,4.9,7,7.8,10.6,11.3
			c3.6,3.6,6.8,7.8,11.5,10.6c1.2-1,2.5-1.7,3.6-2.7c10-9.7,19.9-19.4,29.9-29.1c1.8-1.7,1.7-3.7,1.5-5.8c3.7-1,6.4,0.2,8.8,2.6
			c6,6,11.8,11.9,17.7,17.8c8,7.9,16.1,15.6,24.2,23.5c2.9,2.7,5.7,5.6,8.5,8.6c0.8,1,1.4,2.1,2.1,3.3c-1.8,3.2-4.5,5.4-6.9,7.8
			c-11.5,11.6-23.2,23.1-34.8,34.7c-6.9,6.8-13.9,13.5-20.8,20.3c-3.6,3.5-6.8,7.2-10.2,10.7c-3.5,3.5-7.1,6.8-10.7,10.3
			c-11.4,11.1-22.9,22.3-34.4,33.5c-5.1,5-10.5,10-15.6,15c-2.4,2.3-4.6,4.5-6.9,6.8c-1.3,1.2-2.9,1.9-4.6,1.9
			c-10.2,0-20.6,0-30.8,0c-0.5,0-1-0.4-1.9-0.6c0.4-0.8,0.6-1.6,1-1.9c5.7-5.6,11.4-11.2,17.1-16.7c8.6-8.4,17.1-16.8,25.7-25.2
			c7.1-6.9,14.3-13.6,21.4-20.5c3.6-3.5,6.9-7,10.5-10.5c3.8-3.8,7.6-7.5,11.4-11.2c8.3-8.4,16.8-16.6,25.1-24.9
			c4.2-4.2,8.5-8.4,12.5-12.5c4.8-4.9,9.5-9.8,14.3-14.8c1.8-1.9,1.9-3.1,0.1-4.9c-5-5-10-9.9-15.1-14.8c-2.4-2.3-3.5-2-5.8,0.2
			c-9.5,9.3-18.9,18.7-28.5,28.2c-2,2-3.8,4.2-3.8,7.4c-1-0.1-1.7-0.2-2.4-0.2c-2.7,0.2-4.5-1.1-6.4-3
			c-11.1-11.2-22.4-22.4-33.6-33.5c-0.8-0.8-1.8-1.4-2.9-2.3c-4.8,2-7.4,6.6-11.1,9.7c-3.7,3.2-6.8,7.2-10.1,10.9
			c1.7,3.3,4.2,5.4,6.3,7.6c6.3,6.6,13,12.9,19.4,19.3c1.7,1.6,3.1,3.3,4.6,5c2.4,2.5,2.4,2.5,6.3,3.7c0.4,1.4,0.8,2.9,1.1,4.3
			c0.5,2.6-0.6,5.3-2.5,6.6c-4,2.6-7.1,6.3-10.6,9.5c-6.9,6.3-13.3,13-20,19.6c-5.7,5.6-11.4,11.2-17.1,16.8
			c-4.5,4.4-6.5,4.3-11-0.1c-5.1-5.1-10.4-10.1-15.4-15.4c-3.7-3.8-6.9-8.1-11-11.7c-4-3.7-8-7.6-11.9-11.6
			c-6-5.8-11.9-11.8-17.9-17.7c-4.9-4.8-9.8-9.7-14.5-14.6c-0.7-0.7-1.3-1.3-2.1-1.9c-1.8-1.4-2.9-1.6-4.5,0
			c-2.6,2.5-5.1,5.1-7.6,7.8c-3.7,3.8-7.3,7.8-10.7,11.3c0.2,2.9,1.9,4.2,3.5,5.6c7.4,7.4,14.8,14.9,22.3,22.2
			c7,6.9,14.3,13.7,21.3,20.6c8.9,8.8,17.9,17.7,26.8,26.6c1.5,1.6,2.7,3.6,4.2,5.4c-2.4,4.2-5.5,7.3-8.6,10.4
			c-2.5,2.5-5.1,5-7.7,7.6c-2.7,2.9-5.8,4.5-10,4.4c-17.3-0.1-34.6,0-51.9,0c-3.6,0-7.3,0-10.8,0.1c-2,0-3.6-0.4-5.2-1.8
			c-2.5-2.3-3.2-2.4-5.4-0.6c-2.3,1.8-4.6,2.4-7.4,2.4c-9.3,0-18.7-0.1-28-0.1c-7.4,0-14.9,0.1-22.3,0.2c-3.8,0-7.6,0-11.4-0.1
			c-1.5,0-3-0.2-4.2-1.4c-6.5-6.3-13.2-12.6-19.8-19c-0.5-0.5-0.7-1.3-1.2-1.9c1-2.7,3.1-4.4,5-6.2c9.2-8.9,18.3-17.8,27.5-26.6
			c1.9-1.8,3.8-3.7,5.1-6.4c-2.9-4.1-7-6.8-10.2-10.5c-3.3-3.6-7-6.9-10.6-10.4c-3.5,1-5.5,3.3-7.6,5.4
			c-10.5,10.3-20.8,20.6-31.2,31c-11.9,11.8-23.9,23.5-35.8,35.3c-3,3-6,6-8.9,8.8c-1.3,1.2-2.7,2-4.6,2c-9.9,0-19.8,0-29.8,0
			c-0.5,0-1-0.4-1.8-0.6c0.5-0.8,0.8-1.4,1.3-1.9c3.1-3.1,6.3-6.1,9.4-9.2c3-3,6-6,8.8-8.9c1.2-1.2,1.3-2.5,0.2-3.6
			c-6.9-6.2-12.6-13.7-20.6-19.1c-3.2,1-5.2,3.6-7.4,5.8c-5.4,5.4-10.6,11-15.8,16.5c-5.2,5.3-10.6,10.5-15.8,15.8
			c-0.2,0.2-0.6,0.6-0.8,0.8c-4.6,4.5-5,4.8-11.5,4.9c-7.9,0-15.6,0-23.5,0c-1,0-1.9-0.1-3.3-0.2c0.5-1,0.7-1.7,1.1-2
			c4.5-4.5,9.2-9.2,13.7-13.7c3.8-3.7,7.7-7.3,11.5-11.1c8.2-8.1,16.4-16.5,24.8-24.6c5.1-5.1,10.4-10,15.5-15.2
			c5.8-6,11.5-12.1,17.4-18c2.5-2.6,5.2-5,7.7-7.5c9.3-9.3,18.3-18.9,27.7-28c6.7-6.6,13.1-13.2,19.5-20.4c-0.5-1-0.7-2.1-1.4-3
			c-4.9-5-9.9-10-15-14.9c-1.7-1.6-3.5-2.9-5.4-4.4c-1.2,0.8-2.1,1.3-3,2c-9.5,9.3-18.9,18.7-28.5,28.2c-2.6,2.5-5.2,5-8.1,7.8
			c-1-0.5-2-0.8-2.9-1.4c-1.2-1-2-2.3-3.1-3.3c-9.4-9.5-18.7-19-28.1-28.4c-1.3-1.3-2.9-2.5-4.4-3.8c-1.1,0.5-2,0.6-2.6,1.3
			c-5.8,5.7-11.5,11.6-17.4,17.4c-0.5,0.5-0.8,1.2-1.4,2c2.9,3.6,5.8,6.9,9.3,10c3.3,3.1,6.5,6.4,9.8,9.7c3.1,3.1,6.4,6,9.3,9.3
			c3,3.5,7.1,5.7,9.3,10.1c-1,1.2-1.7,2.3-2.5,3.2c-5.7,5.8-11.4,11.7-17.3,17.5c-6,6-12,11.7-18,17.5c-4.9,4.8-9.5,9.8-14.3,14.7
			c-0.5,0.6-1,1.2-1.5,1.7C-115.9,817-117.3,817.6-118.8,818.5z M-239.2,620.3c-1.7-1.4-3-2.3-4-3.2c-4-4.1-8.1-8.1-12.1-12.2
			c-10.5-10.5-21-21-31.5-31.5c-3-3-6-6-8.7-9.1c-1.9-2-1.8-3-0.1-5c1.2-1.4,2.5-2.9,3.8-4.2c8.9-8.8,17.9-17.7,26.7-26.6
			c2.3-2.3,4.9-4.3,6.2-7.2c-2-3.8-7.3-9.5-16.2-17.8c-1.3-1.2-2.6-2.9-4.9-2.9c-0.5,0.4-1.3,0.6-1.8,1.2c-2.5,2.4-5,4.7-7.4,7.2
			c-7.4,7.4-14.6,14.9-21.9,22.4c-2,2-3.8,4.2-6.1,6.7c-2.4,0.7-4.5-0.2-6.5-2.5c-3.8-4.2-7.9-8.2-11.9-12.4
			c-5.2-5.5-10.6-11-16-16.3c-1.8-1.8-3.5-3.6-5.2-5.3c-2.1-2-3.1-2-5.4,0.1c-2.3,2.1-4.3,4.3-6.4,6.4c-3.3,3.3-6.8,6.7-10.1,10
			c-1.1,1.1-2.1,2.1-1.7,4.5c3.5,3.6,7.4,7.4,11.1,11.5c9,9.8,18.3,19.3,27.5,28.9c8.3,8.6,16.7,17.3,25.1,25.8
			c9.4,9.4,18.8,18.9,28.2,28.3c8.9,8.8,17.9,17.7,26.8,26.6c6.1,6,12.1,12.1,18.3,18c6,5.8,11.9,11.8,18,17.7
			c8.5,8.2,17,16.3,25.5,24.6c6.7,6.6,13.2,13.2,19.8,19.8c8.9,8.8,17.9,17.7,26.9,26.5c10.4,10.1,20.6,20.4,31,30.5
			c1,1,2.1,1.6,3,2.1c0.7-0.2,1.2-0.2,1.4-0.5c6.4-6.2,12.9-12.4,19.2-18.7c1.7-1.7,1.4-3.1-0.5-5c-5.6-5.7-11.2-11.5-16.9-17.1
			c-2.9-2.7-6-5.4-8.8-8.1c-3.3-3.2-6.4-6.4-9.6-9.8c-1.7-1.7-1.7-3.2,0-5c0.2-0.2,0.6-0.5,0.8-0.8c7-7,13.9-14,21-21
			c3.7-3.6,7.4-7.2,11.1-10.9c1.5-1.4,3.1-2.9,3.6-5c-2.5-3.5-16.7-17.8-19.6-19.8c-1.1-0.7-2.3-0.7-3.2,0c-2.1,1.9-4.3,3.8-6.3,5.8
			c-4.2,4.2-8.3,8.4-12.5,12.5c-3.9,3.8-7.9,7.8-11.8,11.6c-0.7,0.6-1.3,1.4-1.7,2.3c-1.1,2.6-3.7,2.9-5.7,3.9
			c-0.7,0.4-2.4-0.2-3-0.8c-2.3-2.7-5.8-4.2-7.5-7.4c-0.4-0.6-1.1-1.1-1.5-1.7c-7.4-7.2-14.6-14.4-22-21.6
			c-6.8-6.6-13.8-13.1-20.7-19.6c-1.3-1.2-2-2.6-2.4-4.4c1.4-1.8,2.6-3.8,4.2-5.4c4.5-4.4,9.2-8.6,13.7-13
			c6.8-6.7,13.6-13.4,20.2-20.2c6.9-6.8,13.7-13.7,20.5-20.6c5.5-5.6,10.8-11.2,16.3-16.8c0.8-0.8,1.7-1.7,2.1-2.6
			c0.4-0.7,0.2-1.8,0-2.6c-0.2-0.7-0.8-1.3-1.3-1.8c-5.2-5.3-10.6-10.4-16-15.6c-0.8-0.8-1.8-1.3-3-2.1c-1.3,1-2.5,1.8-3.6,2.9
			c-3.7,3.6-7.5,7.2-11.1,10.7c-9.3,9.3-18.5,18.7-27.7,28c-11,11.1-21.9,22.2-33,33.3C-235.6,617.8-237.3,618.7-239.2,620.3z
			 M884.2-20.8c-3.3,1.2-5.5,3.1-7.5,5.1c-4.8,4.7-9.3,9.5-13.8,14.4c-7.4,7.9-15.2,15.4-22.9,23.1c-3.3,3.3-6.7,6.9-10,10.3
			c-4.6,4.7-9.5,9.3-14.2,14.1c-6.9,7-13.8,14.2-20.7,21.2c-6.8,6.9-13.8,13.7-20.6,20.6c-7.1,7.2-14.2,14.3-21.3,21.5
			c-3.5,3.5-7.1,6.9-10.6,10.4c-3.8,3.8-7.4,7.8-11.1,11.6c-17.6,17.7-35.2,35.3-53,52.9c-11,10.9-21.9,21.7-32.9,32.6
			c-7.1,7.2-14.3,14.2-21.4,21.4c-0.7,0.7-1.2,1.8-1.9,2.9c1,1.2,1.5,2.4,2.5,3.3c5.2,5.3,10.6,10.5,15.8,15.6
			c0.6,0.6,1.1,1.1,1.7,1.6c1.4,1.2,2.6,1.2,4-0.1c1.8-1.7,3.6-3.3,5.4-5.1c7.6-7.5,15.2-14.9,22.7-22.6c1.5-1.7,3.1-3.3,4.5-5.1
			c3.5-4.3,6-4.5,9.8-1.1c0.2,0.2,0.6,0.6,0.8,0.8c9.5,9.3,19,18.7,28.5,28c1.8,1.7,3.3,3.7,6.5,3.9c3.2-3.1,6.9-6.2,10-9.8
			c3.1-3.6,7.5-5.8,9.4-10.5c-0.5-0.7-0.8-1.4-1.4-1.9c-7.6-7.8-15.4-15.4-23-23c-3.3-3.3-6.8-6.7-10.1-10.1c-2.1-2.3-2.1-3.6,0-6
			c0.4-0.5,0.8-0.8,1.2-1.2c6.5-6.6,13.2-13.1,19.9-19.8c6.9-6.9,13.7-13.8,20.6-20.6c3.6-3.7,7.4-7.3,11-10.9
			c1.5-1.4,3.2-1.9,5.1-0.7c1.4,1,3.1,1.6,4.2,2c1.1,1.8,1.7,3.5,2.7,4.7c10.1,10.4,20.4,20.6,30.5,30.9
			c7.3,7.3,14.5,14.6,21.8,21.8c4.9,4.9,9.6,9.8,14.5,14.6c1.2,1.2,2.3,2.6,4.4,2.5c0.8-0.6,1.9-1.1,2.7-1.8
			c5-4.8,9.9-9.5,14.6-14.4c1.1-1.2,1.7-2.9,2.4-4.1c-1.1-3-2.9-5-4.8-6.9c-10-10.1-20.1-20.3-30.1-30.4
			c-11.3-11.3-22.7-22.6-34-33.9c-2.1-2.1-4.4-4.3-6.4-6.4c-1.8-1.9-1.8-3.6-0.1-5.6c0.6-0.7,1.3-1.3,2-2
			c11.4-11.5,22.9-22.9,34.3-34.4c5.2-5.3,10.4-10.6,15.7-15.9c2.4-2.4,3.8-2.5,6.4-0.5c0.6,0.5,1.2,1,1.8,1.4
			c7.4,7.4,14.3,15.3,22,22.3c0.4,0.4,0.7,1,1.1,1.3c2.5,2.6,5,5.3,7.5,7.9c2.1,2.1,3.5,2.1,5.8-0.2c1.8-1.7,3.6-3.3,5.4-5.1
			c3.5-3.5,7-7,10.4-10.6c2.1-2.3,2-3.7-0.1-5.8c-6.9-7-13.9-14.1-21-21.1c-3.5-3.5-7.1-6.8-10.6-10.4c-3.9-4.1-3.8-5.6,0.1-9.5
			c0.1-0.1,0.2-0.2,0.4-0.4c10.2-10.3,20.5-20.4,30.7-30.7c1.4-1.4,3.1-2.9,2.9-5.8C898.5-7.5,891.7-14.4,884.2-20.8z M58.1,323.2
			c-1.2,2.4-3.3,4.3-5.4,6.3c-7.3,7.3-14.8,14.3-22,21.6c-13.2,13.1-26.3,26.5-39.4,39.7c-3,3-6,6-8.7,9.1c-2,2.3-2,3.2,0.1,5.4
			c4.3,4.4,8.6,8.7,13,12.9c1.8,1.7,3.1,3.9,5.8,4.8c1.1-0.8,2.4-1.7,3.5-2.6c7.7-7.5,15.6-15,23.3-22.7
			c8.9-8.9,17.6-17.9,26.4-26.8c2.6-2.7,5.5-5.3,8.2-8c5.1-5.1,10.2-10.3,15.4-15.3c0.7-0.7,1.9-1.1,3.1-1.8
			c2.4,2.1,4.6,4.1,6.9,6.2c5.4,5.1,10.6,10.4,15.8,15.6c3.5,3.3,6.9,6.6,10.4,9.9c6.7,6.6,13.2,13.1,19.8,19.8
			c1.4,1.4,3,2.9,3.5,5.3c-0.8,1.2-1.4,2.9-2.6,3.7c-3.9,2.9-6.9,6.6-10.2,9.9c-7,6.9-14.2,13.8-21.2,20.8c-1.4,1.4-3.3,2.7-3.6,5.3
			c2.6,4.2,6.5,7.2,10.1,10.5c3.6,3.3,6.4,7.5,11,9.8c1.3-1.1,2.6-1.9,3.7-3c5.1-4.9,10.2-9.7,15.2-14.7c6.1-6,12.1-12.1,18.3-18
			c1.8-1.8,3.6-1.8,5.6-0.2c0.5,0.4,0.8,0.7,1.3,1.2c3,3,6,6,8.9,8.9c7.7,7.6,15.5,15.3,23.2,22.8c1,1,2,1.8,3.6,1.4
			c6.8-7.3,14.4-13.8,20.8-22.1c-1.2-1.4-2.1-2.9-3.2-4.1c-7.6-7.8-15.4-15.4-23-23c-13.5-13.2-26.9-26.4-40.4-39.6
			C143.2,360,131,348,118.9,335.9c-11.7-11.6-23.3-23-34.9-34.6c-3.8-3.7-7.5-7.5-11.3-11.3c-4.5-4.4-9-8.7-13.5-13.1
			c-7.5-7.5-15-15.2-22.6-22.7c-9.9-9.8-19.8-19.6-29.6-29.4c-5.8-5.8-11.4-11.7-17.3-17.5c-6-6-11.8-11.9-17.7-17.8
			c-2.6-2.5-5.4-4.9-8.1-7.2c-0.7-0.6-1.7-1-2.5-1.4c-6.1,4.5-10.1,11-15.7,15.9c-1.8,1.6-3.2,3.7-4.6,5.3c0.1,2.1,1.2,3.1,2.3,4.3
			c3,3,6,6,8.7,9.1c6.7,7.5,13.8,14.7,21.3,21.5c1.3,1.2,2.4,2.5,3.5,3.8c1.7,2.1,1.5,3.5-0.6,5.4c-3.5,3.3-7,6.4-10.2,9.9
			c-8.3,8.1-16.2,16.5-24,24.8c-0.6,0.6-1,1.6-1.7,2.5c1.5,1.7,3,3.2,4.4,4.7c3,3.1,6.1,6.2,9.2,9.4c1.3,1.3,2.5,3,3.8,4.2
			c1,0.8,2.1,1.3,3.3,2.1c3.5-3.3,6.8-6.6,10.1-9.7c3.3-3.2,6.5-6.3,9.8-9.5c3.2-3.2,6.3-6.7,9.8-9.7c3.5-3,6-7,10.2-8.9
			c0.6,0.2,1.3,0.5,1.7,0.8c18.3,18,36.7,36,54.9,54.2c0.2,0.2,0.5,0.6,0.6,1C57.9,322.2,57.9,322.6,58.1,323.2z M-199.7,340.6
			c-0.7,0.5-1.7,1.1-2.5,1.8c-3.8,3.7-7.7,7.4-11.5,11.1c-1.9,1.9-3.8,3.7-5.6,5.7c-1.1,1.1-1.1,2.5-0.1,3.6
			c0.7,0.8,1.5,1.7,2.4,2.5c8.5,8.4,16.8,16.6,25.2,24.9c15,14.8,30.1,29.6,45.2,44.4c1.9,1.9,3.6,3.8,4.5,6.7
			c-4.9,5-9.6,9.9-14.4,14.8c-9.2,9.2-18.2,18.4-27.5,27.4c-4.3,4.3-8.8,8.5-13.2,12.5c-2,1.8-3.7,1.8-5.5,0c-1.1-1.1-2-2.3-3.1-3.3
			c-9.5-9.3-19-18.7-28.6-28c-1.4-1.4-3-3-5.2-3.8c-7.4,6.3-14.4,12.9-20.8,20.4c0.7,1.2,1.2,2.4,1.9,3.1c2.4,2.5,4.9,4.9,7.3,7.3
			c8.8,8.7,17.6,17.4,26.3,26.1c0.1,0.1,0.2,0.2,0.4,0.4c1.4,1.8,1.4,3.2-0.1,5.1c-0.4,0.5-0.7,0.8-1.1,1.3
			c-9.3,9.3-18.5,18.6-27.7,28c-2.6,2.7-5.2,5.5-7.9,8.4c5.2,7.9,12.3,13.5,18.3,19.9c1.1,1.1,2.4,1.8,3.5,2.6
			c0.8-0.4,1.4-0.4,1.9-0.7c1.8-1.4,3.5-3,5.1-4.5c4.9-4.9,9.5-9.9,14.4-14.7c9.4-9.4,18.9-18.7,28.3-28.3
			c15.5-15.5,30.8-31,46.3-46.5c6.4-6.4,13-12.9,19.5-19.3c10.6-10.4,21.3-20.8,31.9-31.1c6.5-6.4,13-12.8,19.5-19.2
			c6-5.8,12-11.7,17.9-17.7c4.4-4.5,8.6-9.2,12.9-13.7c3.7-3.8,7.6-7.5,11.3-11.3c8.1-8.1,16.1-16.2,24.2-24.3
			c3.2-3.2,6.4-6.6,9.6-9.8c5.4-5.4,10.7-10.7,16.1-16.2c0.8-0.8,1.4-2,2.1-3.2c-5.8-7-12.4-12.8-18.8-18.9c-1-0.8-2.1-1.4-3.3-2.1
			c-2,1.1-3.6,2.5-5,3.9c-8.9,8.8-18,17.7-26.8,26.5c-1.4,1.4-2.5,3.3-3.9,5.3c-1.2,0.2-2.9,0.7-4.5,1.2c-2-1.3-3.8-2.6-5.2-4.5
			c-1.4-1.9-3.1-3.8-4.9-5.6c-7.5-7.4-15-14.7-22.5-22c-1.4-1.4-3-3-5.4-3.3c-0.7,0.5-1.7,0.8-2.3,1.4c-5.7,5.6-11.4,11.2-17,16.8
			c-0.4,0.4-0.5,1-0.8,1.8c0.6,0.8,1.2,1.9,1.9,2.6c5.2,5.3,10.5,10.6,15.7,15.9c5.7,5.6,11.4,11.1,17.1,16.8
			c2.5,2.5,1.8,6.2-1.3,8.1c-1.4,0.8-2.9,1.8-4,3c-5.4,5.4-10.7,10.9-16.1,16.2c-8.3,8.4-16.8,16.6-25.1,25.1
			c-1.9,2-3.6,4.3-5.5,6.6c-2.9,0.2-5.2-1.1-7.3-3.3c-2.5-2.9-5.4-5.5-8-8.1c-6.7-6.6-13.5-13-20.1-19.4c-4.6-4.5-9.2-9.2-13.8-13.7
			c-2.7-2.6-5.5-5.3-8.2-7.9c-4.3-4.3-8.5-8.7-12.7-13c-2.7-2.7-5.5-5.4-8.2-7.9C-196.1,342.5-197.3,340.9-199.7,340.6z
			 M178.8,521.2c-1.7,2-2.7,3.7-4.2,5c-9.5,9.5-19.2,19-28.8,28.5c-1.7,1.6-3.2,3.2-4.8,4.9c-1,1.1-1.3,2.4-0.4,3.6
			c0.6,0.7,1.1,1.6,1.8,2.3c4.9,5,9.9,10,14.9,15c1.4,1.4,2.9,3.1,5.5,3.6c4.2-4.1,8.7-8.1,13-12.4c9.2-9.2,18.2-18.5,27.3-27.7
			c2.3-2.3,4.8-4.4,7-6.8c8.9-9.1,18-18.1,26.8-27.4c7.3-7.5,15.1-14.4,21.5-22.8c0.6-0.7,1.4-1.3,2-1.9c6.8-6.7,13.6-13.4,20.4-20
			c11.1-11,22.3-22,33.3-32.9c6-5.8,12-11.7,17.9-17.7c8.3-8.4,16.7-16.7,25-25.1c3.6-3.7,7.3-7.3,11-10.9
			c8.9-9.1,17.9-18.1,26.9-27.2c8.8-8.9,17.7-17.8,26.7-26.7c0.7-0.7,1.3-1.8,1.9-2.7c-3.1-4.7-7.3-7.6-11-11.1
			c-3.7-3.5-6.9-7.4-11.1-10.7c-4.8,4.4-9.2,8.6-13.6,12.8c-4.3,4.1-8.1,8.6-12.6,12.4c-4.5,3.9-7.9,9.3-13.2,12.8
			c-1.2-0.8-2.3-1.6-3.2-2.4c-3.1-3.1-6.1-6.3-9.3-9.3c-8.1-7.9-16.2-15.6-24.3-23.4c-0.8-0.7-1.8-1.2-2.9-1.9
			c-1.2,1-2.4,1.6-3.3,2.5c-4.4,4.2-8.8,8.4-13.1,12.8c-1.4,1.4-3.5,2.5-3.7,5c0.8,2.1,2.5,3.7,4.2,5.3
			c10.2,10.1,20.6,20.3,30.8,30.5c2.1,2.1,2.3,3.6,0,5.8c-5.6,5.7-11.3,11.3-16.9,17.1c-11.4,11.5-22.9,22.9-34.2,34.5
			c-1,1-1.9,1.8-3.1,2.6c-0.6,0.4-1.4,0.7-2.1,0.6c-2.3-0.5-4.4-1.2-6-3.1c-1.9-2.4-3.9-4.7-6.1-6.8c-3.6-3.7-7.3-7.4-10.7-11.1
			c-4.8-4.9-9.3-10-14.2-14.9c-7.4-7.4-15-14.6-22.5-22c-5.1-5-10.2-10.1-15.5-15.2c-1.4-1.4-3.2-2.5-5.1-4.1
			c-1.5,1.2-3.1,2-4.3,3.1c-4.8,4.7-9.4,9.4-14,14.2c-2.3,2.4-2.4,3.6-0.1,5.8c5.6,5.7,11.3,11.3,16.9,16.9c3.9,3.9,8,7.6,11.9,11.6
			c8.5,8.4,16.8,16.6,25.2,24.9c6.1,6,12.3,12.1,18.3,18.1c1.7,1.7,3,3.5,3.1,6.3c-1,1.6-1.5,3.9-3.1,4.9c-3.6,2.1-6,5.3-8.8,8
			c-9.5,9.4-18.9,18.7-28.3,28.2c-4.9,4.8-9.6,9.7-14.5,14.6c-0.6,0.6-1.5,1-2.5,1.6c-1.2-1-2.1-1.8-3.1-2.6
			c-9.9-9.8-19.6-19.7-29.5-29.5c-1.3-1.3-2.7-2.6-4.3-3.8c-1.4-1.1-2.7-1.1-4.2,0.1c-0.5,0.4-0.8,0.7-1.3,1.2
			c-4.8,4.7-9.5,9.4-14.2,14.1c-1.2,1.2-2.6,2.4-2.7,4.9C153.4,495.6,166,508.2,178.8,521.2z M320.6,663c6.2-5,11.5-10.6,17.1-16
			c1.3-1.3,2.9-2.5,3.3-4.9c-0.6-0.7-1.1-1.8-1.8-2.5c-6.5-6.6-13.2-13.2-19.8-19.8c-3.8-3.7-7.7-7.4-11.4-11.2
			c-1.4-1.4-3.2-2.7-3.3-5.7c1.4-1.6,3-3.5,4.6-5.3c7.4-7.4,14.9-14.7,22.3-22.1c6.5-6.6,13.1-13.4,19.6-19.9c3-3,5.8-6,8.8-8.9
			c1.7-1.7,3.2-1.7,5.1-0.2c0.5,0.4,0.8,0.7,1.3,1.2c8.3,8.4,16.5,16.8,24.9,25.2c1,1,1.8,2,2.7,3c5.5,5.3,11.1,10.4,16.4,15.9
			c8.3,8.4,16.4,16.9,24.6,25.4c1.9,1.9,3.9,3.7,6,5.4c2.3,2,3.3,2,5.4,0c4.2-3.9,8.1-8,12.1-12.1c1.3-1.3,2.7-2.6,3.9-4.1
			c1.4-1.6,1.4-3,0.2-4.7c-0.5-0.6-1-1.2-1.5-1.7c-8.7-8.8-17.5-17.5-26.1-26.4c-10.1-10.4-20.1-20.8-30.4-31
			c-5.1-5.1-10.4-10-15.6-15c-1-1-1.7-2-2.4-3.2c-1.2-1.9-1.2-3,0.2-4.7c1.5-1.7,3.3-3.2,4.9-4.8c9-9.2,18.1-18.5,27.3-27.6
			c7.1-7.2,14.3-14.2,21.4-21.4c1-1,2-1.6,3.2-2.3c3.5,2.1,6.2,4.8,8.9,7.4c6.8,6.7,13.5,13.5,20.2,20.2c2.6,2.5,5.1,5.1,7.7,7.6
			c1.9,1.8,3.1,1.8,5,0c5.2-5.3,10.5-10.5,15.7-15.8c1-1,1.5-2.1,2.1-3c-0.4-2.4-2-3.6-3.3-4.9c-4.4-4.5-8.8-8.9-13.3-13.4
			c-5.4-5.3-10.7-10.3-16.1-15.4c-4.3-4.2-4.2-5.7,0.6-10.9c0.2-0.2,0.7-0.4,1-0.6c1.5-1.3,3.2-2.7,4.8-4.2
			c7.6-7.4,15.1-14.9,22.7-22.4c1.9-1.9,3.8-3.7,4.6-6.8c-5.5-7.4-13.2-12.9-19.5-19.7c-0.6-0.6-1.5-0.8-2.5-1.3
			c-1.4,1-2.7,1.8-3.8,2.7c-3.3,3.1-6.5,6.3-9.8,9.5c-5.2,5.3-10.4,10.6-15.7,15.9c-8.8,8.7-17.5,17.4-26.3,26.1
			c-3.1,3.1-6.3,6.1-9.4,9.2c-6.8,6.7-13.3,13.6-20.1,20.3c-11.7,11.7-23.5,23.4-35.2,35c-9.9,9.8-19.6,19.7-29.5,29.5
			c-8.1,8.1-16.1,16.1-24.2,24.3c-7.1,7.2-14.2,14.4-21.2,21.6c-3.1,3.1-6.2,6.1-9.3,9.3c-6.4,6.6-12.9,13-19.2,19.6
			c-4.5,4.7-8.8,9.5-13.3,14.1c-7.4,7.4-14.9,14.8-22.3,22.2c-0.8,0.8-1.3,1.8-2,2.6c1.2,3.7,4.3,5.5,6.7,7.9c2.4,2.5,4.8,5,7.3,7.3
			c2.5,2.3,4.2,5.5,8,6.6c0.8-0.6,1.9-1.2,2.6-1.9c4.2-4.9,9.3-8.9,13.6-13.8c6-6.9,12.9-13,19.3-19.3c0.4-0.4,0.8-0.8,1.2-1.2
			c1.1-0.8,2.5-1,3.7,0c0.6,0.5,1.1,1.1,1.7,1.6c4.2,4.2,8.5,8.2,12.7,12.3c6.7,6.4,13.5,13,20.1,19.4
			C318.4,661.7,319.4,662.2,320.6,663z M-38.7,702.4c0.7-0.7,1.4-1.3,2.1-2c9.8-9.5,19.6-19.1,29.4-28.8c1.5-1.6,3-3.5,4.3-5.3
			c1.4-2,4-2.6,5.8-1c1.5,1.4,3,3,4.4,4.4C18.7,680.9,30,692,41.2,703c5.7,5.6,11.2,11.3,17.3,16.3c0.6,2.1,0,3.7-1.5,5.1
			c-6.7,6.6-13.3,13-20,19.7C22.6,758.5,8.3,772.7-6,787c-2.5,2.5-5.1,5-7.6,7.6c-1.9,2-3.8,4.2-5.8,6.4c0.8,1.2,1.3,2.3,2.1,3
			c4.4,4.4,8.9,8.8,13.5,13.2c1.9,1.8,3.6,3.9,6.3,5c0.8-0.5,1.7-1,2.4-1.6c6.3-6.1,12.6-12.2,18.8-18.4c8-7.9,15.8-15.9,23.8-23.9
			c9.2-9.2,18.3-18.4,27.5-27.4c2.4-2.4,4.5-5,7.7-6.6c18.6,18.1,37.1,36.3,55.6,54.3c0.6,0.6,1.2,1.4,1.9,2.3
			c-0.6,0.8-1,1.4-1.4,1.9c-7.7,7.6-15.5,15.2-23.2,22.8c-4.3,4.3-8.6,8.6-12.9,13c-1.3,1.3-1.3,2.7-0.1,4.1
			c0.4,0.5,0.8,0.8,1.2,1.2c5,4.9,10.1,9.9,15.1,14.7c2.4,2.3,3.6,2.3,5.8,0.2c0.6-0.5,1.1-1.1,1.5-1.7c5.1-5,10.4-10,15.5-15.2
			c4.9-4.9,9.5-9.8,14.3-14.8c1.9-2,4-3.2,6.9-4.1c1.3,1.2,2.7,2.1,3.9,3.3c3.3,3.3,6.5,6.9,10.1,10c7.4,6.7,14,13.8,21.1,20.9
			c1.7,1.6,3.1,3.5,6.1,4.1c1.1-0.7,2.6-1.6,3.8-2.6c5.1-5,10.2-10.3,15.2-15.4c0.6-0.6,1-1.6,1.4-2.4c-1-1.2-1.5-2.4-2.5-3.3
			c-2.9-3-5.8-6-8.9-8.9c-8.1-8-16.3-16-24.4-24c-13.6-13.4-27.3-26.6-40.8-40c-4.3-4.3-8.7-8.5-13.1-12.8
			c-6.3-6.3-12.5-12.8-18.9-19.1c-6.3-6.3-12.9-12.5-19.2-18.9c-7.9-7.8-15.7-15.5-23.6-23.3c-7.1-7-14.4-14.1-21.7-21.2
			c-9.2-9.1-18.3-18.3-27.5-27.4C9.1,627.4-5.7,612.6-20.6,598c-5.4-5.4-11-10.6-16.4-15.9c-2.3-2.1-3-2.1-5.2,0
			c-5.4,5.4-10.6,10.9-15.8,16.5c-0.8,1-1.3,2.1-2,3.3c0.6,0.8,1,1.6,1.4,2c5.1,5.4,10.4,10.7,15.5,16c1.2,1.2,2.4,2.4,3.6,3.6
			c5.2,5.3,10.6,10.4,15.7,15.8c1.1,1.1,1.7,2.4,2.6,3.8c-2.7,2.9-5.1,5.5-7.7,8c-8.6,7.9-16.4,16.5-24.4,24.8
			c-1.3,1.4-2.6,2.7-3.9,4.2c-1.7,1.9-1.7,3,0.1,5c0.2,0.2,0.5,0.6,0.8,0.8c3.9,4.1,7.9,8.2,11.9,12.3
			C-42.9,700-41.7,702-38.7,702.4z M683.6,260c-1.2,0.8-2.3,1.2-3.1,2c-5.7,5.6-11.5,11.1-17.1,16.8c-5.2,5.3-10.4,10.6-15.6,15.9
			c-3.9,3.8-6.2,3.7-9.9-0.5c-0.4-0.5-0.6-1-1.1-1.3c-4-4.3-7.7-8.9-12.3-12.8c-6.5-5.5-12.4-11.8-18.6-17.7
			c-6-5.5-11.3-11.8-17.9-16.7c-1.2-0.8-1.8-2.4-2.9-3.8c1.2-1.4,2.3-2.7,3.5-3.9c2.5-2.6,5.1-5.1,7.7-7.6
			c11.8-11.6,24-22.8,35.5-34.7c8.9-9.3,18.3-18.3,27.5-27.3c2-2,3.7-4.3,5.5-6.3c-0.4-1-0.4-1.6-0.7-1.9
			c-6.1-6.3-12.1-12.5-18.5-18.7c-1.4-1.4-2.9-1.3-4.5,0.2c-2.1,1.9-3.9,4.1-6,6.1c-8.9,8.8-18,17.5-27,26.3
			c-5.2,5-10.4,10-15.6,15.2c-9.4,9.2-18.7,18.5-28.1,27.7c-0.6,0.6-1.5,0.8-2.5,1.4c-1.8-1.7-3.6-3.1-5.1-4.8
			c-4.4-4.4-8.8-8.9-13.2-13.5c-5.6-5.7-11.3-11.3-17-16.9c-5.1-5.1-10.4-10.1-15.4-15.3c-2-2.1-4.8-3.9-5.5-7.3
			c1.5-1.9,3.1-3.8,4.8-5.6c8-7.9,16.1-15.8,24-23.6c2.9-2.9,5.6-5.7,8.3-8.7c1.5-1.7,1.5-3,0-4.5c-4.9-4.8-9.8-9.7-14.6-14.3
			c-1.1-1.1-2.4-1.8-3.8-2.9c-1.3,1-2.7,1.7-3.8,2.7c-5.1,5-10.2,10.1-15.4,15.3c-5.5,5.5-11,11.1-16.4,16.7c-1.4,1.6-2.9,3-5.7,3.2
			c-2.9-2.3-5.7-5-8.6-7.8c-3.2-3-6.4-5.8-9.6-8.8c-3.2-3-6.5-5.7-9.2-9.4c-2.9-3.8-6.3-7.2-9.8-10.4c-2.7-2.6-4.3-2.6-6.9-0.1
			c-5.5,5.3-10.7,10.7-16.1,16.2c-1.4,1.4-1.3,2.7,0.4,4.5c1.9,2.1,3.9,4.2,6,6.2c10.8,11,21.7,22,32.6,32.9
			c6.5,6.6,13.3,13,20,19.7c13.3,13.4,26.5,26.7,39.9,40.1c8.5,8.5,16.9,16.9,25.5,25.4c4.2,4.2,8.7,8,12.4,12.6
			c4.2,5.1,9.2,9.2,13.7,13.7c6.3,6.3,12.7,12.5,19.2,18.7c5.7,5.6,11.3,11.2,17,16.8c2.1,2.1,4.5,4.2,6.7,6.3
			c8.6,8.7,17,17.4,25.7,26c10.2,10.1,20.6,20.3,31,30.4c3.1,3.1,6.3,6.1,9.4,9.1c1.4,1.3,3,1.3,4.5-0.1c3.2-3.2,6.4-6.4,9.6-9.7
			c2.1-2.1,4.3-4.3,6.4-6.4c2.7-2.7,2.6-3.8-0.4-6.6c-1.2-1.2-2.5-2.3-3.7-3.5c-4.9-4.8-9.8-9.7-14.5-14.6
			c-5.2-5.3-10.5-10.6-15.6-16c-1.2-1.2-2.5-2.4-2.5-4.7c0.8-1.9,2.4-3.6,3.9-5.3c9.9-9.8,19.9-19.3,29.8-29.1
			c1.4-1.4,3.2-2.7,3.7-5.5c-4.4-6-10.8-10.1-15.7-16C686.7,262.4,685.1,261.4,683.6,260z M104.4,81.3c-6.3-7.2-13.1-13.5-19.6-20.2
			C78.2,54.6,71.6,48,65.1,41.6c0.4-1,0.6-1.4,0.8-1.9c1.8-3,4.9-4.8,7.3-7.2C80,25.8,86.6,19,93.3,12.2c2.9-2.9,5.6-5.6,8.5-8.5
			c1.8-1.9,1.9-3.3,0.2-5c-4.6-4.8-9.3-9.5-13.9-14.3c-1.1-1.1-2.3-2-3.5-3c-1-0.8-2.1-1-3.2-0.2c-1.8,1.3-3.6,2.9-5.2,4.4
			c-1.1,1.1-1.9,2.4-3,3.5C67.9-5.7,62.7-0.4,57.5,4.8C50.3,12,43.2,19,36,26.2c-8.5,8.5-16.9,16.9-25.4,25.5
			C2,60.5-6.7,69.2-15.5,78.1c-6.5,6.7-13.1,13.2-19.5,20c-1.5,1.7-2.5,3.8-4.2,5.4c-4.4,4.5-8.9,8.8-13.5,13.2
			c-2.6,2.5-5.4,4.9-8,7.4c-10.2,10.3-20.2,20.6-30.5,30.9c-12.9,12.8-25.7,25.4-38.6,38.2c-2.9,2.9-5.6,5.7-8.5,8.6
			c-5.2,5.3-10.6,10.4-16,15.6c-7,6.9-14,14-21.2,20.9c-1.7,1.6-3.5,3.1-3.7,5.8c2.6,3.7,6.1,6.9,9.5,10.3c3.5,3.5,6.8,7,11,9.8
			c1.4-1.2,2.7-2.1,3.8-3.1c6.7-6.6,13.3-13,20-19.6c3.3-3.3,6.5-6.8,10.1-10.1c1.9-1.8,3.7-3.9,6.4-4.8c2.5,1.4,4.8,3.2,6.5,5.4
			c1.2,1.4,2.5,2.9,3.8,4.2c4.8,4.7,9.5,9.4,14.2,14.1c4.2,4.2,8.3,8.4,12.6,12.4c2.1,2.1,3.2,2.1,5.4,0.1
			c5.7-5.5,11.4-11.1,17.1-16.8c0.5-0.5,0.6-1.3,1-2.3c-1.3-1.7-2.5-3.5-3.9-4.9c-1.4-1.6-3.2-2.7-4.6-4.2
			c-7.3-7.3-14.5-14.6-21.8-21.8c-2-2-4-4.1-6-6.2c-0.8-1-1.2-2.3-1.8-3.3c0.7-0.8,1.2-1.4,1.8-1.9c8.1-8.1,16.3-16,24.3-24.1
			c8.9-9.1,17.7-18.3,26.7-27.4c1.4-1.6,2.6-3.3,5-3.7c2.1,0.5,3.6,1.9,5,3.5c5.2,5.3,10.4,10.6,15.6,15.9
			c11.7,11.7,23.5,23.4,35.1,35.1c6,6,11.8,11.9,17.6,17.9c1.9,1.9,3.6,3.9,6.2,4.7c5.4-3.5,17.7-15.5,20.5-20
			c-0.4-0.5-0.7-1.2-1.2-1.7c-4.6-4.8-9.2-9.7-13.9-14.4c-7.1-7.2-14.2-14.3-21.3-21.5c-8.1-8.1-16.2-16.1-24.3-24.2
			c-4.9-4.9-9.6-9.7-14.5-14.6c-1-1-1.5-2.1-2.1-3c0.6-2.5,2.3-3.9,3.7-5.4c3.6-3.5,7.1-6.8,10.7-10.3c3.7-3.6,7.1-7.3,10.8-11
			c3.8-3.9,7.7-7.9,11.5-11.8c4.9-5,9.8-10,14.8-15c2-2,4-3.9,6.9-5.4c2.1,1,3.8,2.4,5.5,4.1c10,10.1,20,20.4,30,30.5
			c0.7,0.7,1.3,1.4,2.1,1.9c1.1,0.7,2.3,1.2,3.2,1.7C90.2,98.2,102,86,104.4,81.3z M421.4,522c0.8,0.8,1.4,1.6,2,2.1
			c3.5,3.6,7,7,10.5,10.5c3,3.1,6,6.4,8.9,9.5c8.6,8.7,17,17.4,25.7,26c7.7,7.6,14.9,15.9,23.7,22.3c3.8,2.7,7.3,6.2,10.7,9.5
			c6.3,6.1,12.4,12.4,18.6,18.6c5.1,5.1,10.4,10.1,15.4,15.4c5.7,6,11.1,12.1,16.7,18c1.5,1.7,3.5,3.1,4.8,4.9
			c4.4,5.7,9.6,10.9,14.8,15.9c5.7,5.6,11.4,11.2,17.1,16.8c4.4,4.3,8.8,8.4,13.2,12.6c7.5,7.3,14.9,14.7,22.4,22.1
			c0.8,0.8,1.7,1.6,2.4,2.4c3.8,3.9,7.6,8,11.5,11.9c7.1,7.2,14.4,14.2,21.5,21.2c6.1,6,11.8,12.4,18.2,18.1
			c2.5,2.3,3.9,1.9,5.7,0.1c3.8-3.7,7.9-7.3,11.4-11.1c2.3-2.4,5.1-4.5,6.4-8c-0.5-0.8-0.8-1.8-1.5-2.4
			c-5.4-5.5-10.7-10.9-16.1-16.2c-4.4-4.4-8.9-8.7-13.5-13.2c-3-3-2.9-3-7.1-3.7c0-1.7,0-3.3,0-5.1c1.2-1.3,2.1-2.6,3.3-3.9
			c7.1-7.4,14.4-14.7,21.5-22.1c3.7-3.8,7.5-7.5,11.2-11.5c2.3-2.4,2.1-3.6-0.1-5.8c-4.4-4.4-8.9-8.8-13.5-13.2
			c-1.3-1.3-2.7-2.6-5-2.9c-1.2,1-2.6,2-3.8,3.2c-10,9.9-20,19.9-29.9,29.8c-0.8,0.8-1.4,1.8-1.9,2.9c-0.5,1-0.5,2-0.7,3.1
			c-4.8-0.8-8.3-3.1-10.7-7.2c-0.6-1-1.4-1.8-2.3-2.6c-15-14.1-28.9-29.2-44.4-42.7c-4.2-3.6-4-6.7-0.2-10.6
			c0.7-0.7,1.4-1.3,2.1-1.9c13-12.9,26-25.8,38.9-38.7c6.9-6.8,13.7-13.7,20.5-20.6c3.8-3.9,7.6-8,11.4-12.1
			c0.7-0.7,1.1-1.9,1.4-2.7c-3.5-4.3-15.7-16.8-19-19.3c-0.6-0.5-1.3-0.6-2.1-1c-1.4,1.2-2.7,2.1-3.9,3.3
			c-5.7,5.6-11.3,11.3-17,16.9c-11.2,11.3-22.4,22.8-33.7,34.2c-5.8,6-11.8,11.9-17.7,17.8c-1.7,1.6-2.6,3.2-2.1,5.5
			c0.1,0.5-0.1,1.1-0.1,1.7c-4.4-0.2-7.5-2.5-10.4-5.5c-7-7.5-14.3-14.8-21.5-22.1c-6-6-12-11.7-18-17.7c-3-3-6-6-8.7-9.1
			c-1.8-1.9-1.7-3.7-0.1-5.7c0.6-0.7,1.3-1.4,2-2c7.4-7.4,14.9-14.8,22.3-22.2c3.9-3.9,7.7-7.9,11.5-11.9c1.4-1.6,1.4-3.1,0.1-4.7
			c-0.4-0.5-0.8-0.8-1.2-1.2c-5.7-5.4-11.4-10.6-17.1-15.9c-1-0.8-2.1-1.4-3.2-2.1c-0.8,0.6-1.5,1-2.1,1.4
			c-8.9,8.9-17.7,17.9-26.5,26.7c-3,3-5.8,6-8.9,8.9c-1.5,1.6-3,1.4-4.5,0c-0.4-0.4-0.7-0.8-1.2-1.3c-10.8-10.7-21.5-21.5-32.4-32.2
			c-1-1-1.9-1.9-3-2.7c-1.2-1-2.5-1-3.7,0c-0.6,0.5-1.1,1.1-1.7,1.6c-4.6,4.8-9.4,9.4-14,14.2C423.3,518.1,421.9,519.5,421.4,522z
			 M722.2,660.5c0.7-0.2,1.3-0.4,1.7-0.7c5.5-5.3,11-10.5,16.4-15.9c0.2-0.2,0.5-0.6,0.7-1c1.5-2.1,1.5-3-0.4-4.9
			c-4.5-4.7-9-9.3-13.7-13.7c-6.4-6.2-12.9-12.4-19.3-18.6c-2.9-2.7-2.9-4.8-0.4-7.3c9-9.2,18.1-18.5,27.1-27.7
			c6.3-6.3,12.6-12.8,18.9-19.1c1.8-1.8,3.5-3.6,5.2-5.3c3.6-3.3,4.6-3.3,8.1,0c0.4,0.4,0.8,0.8,1.2,1.2c2.5,2.6,5.1,5.1,7.6,7.8
			c7.1,7.4,14.4,14.7,21.5,22.1c8.5,8.6,16.9,17.1,25.4,25.5c5.5,5.5,11.1,11,16.8,16.3c1,0.8,2.1,1.4,3.1,2
			c4.8-3,7.9-7.2,11.7-10.6c2.5-2.4,4.8-4.9,7-7.5c2-2.3,1.9-3-0.2-5.4c-2.4-2.6-4.9-5.3-7.5-7.9c-5.8-6-11.8-11.8-17.7-17.8
			c-13.1-13.4-26.1-26.7-39.3-40c-2.7-2.9-5.2-6-8.7-8.1c-1.9-1.2-2-4.2-0.7-6.1c0.7-1.1,1.4-2.3,2.1-3.3c1.8-2.6,3.3-5.4,6.8-6.6
			c1.4-0.5,2.6-2.1,3.8-3.3c1.2-1.2,2.3-2.6,3.5-3.8c6.3-6.3,12.7-12.6,19-18.9c5.6-5.5,11.2-10.9,16.7-16.5c4.5-4.7,5-2.5,8.6-0.2
			c0.7,0.5,1.3,1.4,1.9,2.1c1.9,2.1,3.9,4.2,5.8,6.2c2.6,2.7,5.6,5.3,8,8.1c4.9,5.8,10.5,11,16.1,16.1c0.7,0.6,1.4,1.1,2.5,1.7
			c3-1.8,4.9-4.4,7.3-6.6c2.5-2.4,4.9-4.9,7.3-7.3c2.3-2.3,5-4.1,6.3-7.5c-1.4-1.8-2.9-3.6-4.4-5.3c-9.3-9.3-18.7-18.5-28.1-27.7
			c-1.8-1.7-3.7-3.3-4.5-6.1c2-3,3.3-6.7,7.3-8.4c0.8-0.4,1.4-1.2,2.1-1.9c8.8-8.7,17.6-17.4,26.3-26.3c0.8-0.8,1.4-2.1,2-3
			c-3.8-5.7-16.2-17.7-21.3-20.6c-1.3,1.1-3,2-4.3,3.3c-5.6,5.6-11.2,11.5-16.8,17.1c-7.3,7.3-14.5,14.6-21.9,21.7
			c-14.2,14.1-28.5,28-42.6,42.2c-12.5,12.5-25.1,25.1-37.5,37.6c-10.4,10.4-20.5,21-30.8,31.4c-8.6,8.7-17.3,17.3-25.8,26
			c-6.7,6.8-13.3,13.6-20,20.3c-4.8,4.9-9.6,9.8-14.4,14.7c-8,8.1-16.1,16.3-24,24.5c-6.5,6.7-13.1,13.2-19.6,19.9
			c-0.8,1-1.4,2.1-2.1,3.2c3,4.1,6.5,7.3,10,10.5c3.6,3.3,6.7,7.2,10.8,9.9c3.8-1.8,6.2-4.9,8.9-7.5c8.9-8.6,17.6-17.4,26.4-26.1
			c1.1-1.1,2.3-2,3.5-3c1-0.8,2.1-0.8,3.2-0.1c0.6,0.4,1.2,1,1.8,1.4c9.4,9.2,18.7,18.5,28.1,27.7
			C716.9,656.3,719.1,658.9,722.2,660.5z M-159.5,662.9c1.8-1.4,3.2-2.4,4.4-3.6c8.1-7.9,16.1-15.8,24-23.6c3-3,6-6,8.9-8.8
			c2-1.9,3.2-1.9,5.5,0c0.6,0.5,1.1,1.1,1.7,1.6c7.9,7.8,15.7,15.5,23.6,23.1c3.5,3.3,6.9,6.6,10.4,9.9c1.4,1.3,2.9,1.4,4,0.4
			c5.6-5.4,11.2-10.9,16.8-16.3c0.2-0.2,0.6-0.6,0.7-0.8c1.4-1.8,1.4-3,0-4.5c-1.1-1.3-2.3-2.5-3.6-3.7c-3.1-3.1-6.3-6.1-9.4-9.2
			c-5.6-5.5-11.1-11-16.7-16.5c-1.7-1.6-3.6-2.9-5.2-4.4c-2.4-2.1-2.6-4.5-0.5-6.9c2-2.3,4.3-4.3,6.4-6.4
			c12.5-12.5,25-25.1,37.5-37.7c1.9-1.9,3.5-4.1,5.2-6c1.8-1.9,3.5-4.1,6.1-4.8c2.4,0.7,3.8,2.1,5.2,3.7
			c6.2,6.4,12.4,12.9,18.7,19.3c16.7,16.7,33.3,33.4,50,50.1c1.7,1.7,3.3,3.7,5.8,4.5c0.6-0.2,1.3-0.2,1.7-0.6
			c6.2-6.2,12.4-12.4,18.5-18.6c0.5-0.5,0.7-1.3,1.2-2.1c-1.2-1.3-2.1-2.7-3.3-3.9c-6-6.1-12-12.2-18-18.4
			c-5.7-5.8-11.4-11.7-17.3-17.5c-6.2-6.2-12.4-12.4-18.5-18.6c-3.6-3.7-7.1-7.4-10.7-11c-2.6-2.7-5.4-5.4-8.1-8.1
			c-1.5-1.6-1.5-3.5-0.2-5.1c1-1.2,2.1-2.1,3.2-3.3C-6.2,509.5-1,504.3,4.3,499c8.2-8.1,16.5-16.3,24.8-24.5
			c2.6-2.5,5.1-5.1,7.6-7.8c3.1-3.3,4.3-3.3,7.5-0.2c2.7,2.6,5.5,5.3,8.2,8c8.3,8.4,16.7,16.7,25,25.1c0.4,0.4,0.8,0.8,1.2,1.2
			c1.8,1.4,2.9,1.4,4.5,0.1c0.7-0.6,1.4-1.3,2-2c4.8-4.7,9.4-9.4,14.2-14.1c1.1-1.1,2.1-2.1,2-4.1c-1.2-2.6-3.7-4.2-5.7-6.1
			c-9.8-9.7-19.5-19.3-29.2-28.9c-0.6-0.6-1.2-1.1-1.5-1.7c-0.6-1-1.1-1.9-1.5-2.7c0.5-0.8,0.6-1.3,1.1-1.8c4.9-5,9.9-10,14.9-15
			c6.5-6.6,13.2-13.1,19.9-19.7c0.8-0.8,1.4-2.1,2-3.2c-2-3.2-4.6-5.5-7.1-7.9c-3.5-3.3-6.7-6.8-10.1-10c-2.4-2.3-4.2-2.3-6.4,0
			c-1.2,1.2-2.4,2.5-3.6,3.7c-8,7.9-16.1,15.6-24,23.6c-6.9,6.8-13.6,14-20.5,20.8c-11.3,11.2-22.9,22.3-34.3,33.6
			c-14.6,14.4-29.5,28.6-43.6,43.7c-10.6,11.5-22,22.2-33,33.2c-6.7,6.8-13.5,13.5-20.1,20.3c-7.7,7.9-15.5,15.8-23.2,23.6
			c-6,6-11.8,11.9-17.7,17.8c-11.2,11.1-22.4,22.3-33.6,33.4c-1.4,1.4-3,3-3.6,5.7C-173.7,649.8-166.8,656-159.5,662.9z
			 M603.5,462.5c4-3.6,7.9-6.4,11-10c3.2-3.6,8-6,9.8-11.2c-1.7-1.9-3.2-3.8-5-5.6c-4.2-4.2-8.3-8.4-12.5-12.5
			c-8.1-8.1-16.3-16.1-24.2-24.3c-7.5-7.9-16.1-14.6-22.7-23.3c-0.4-0.5-0.8-0.7-1.3-1.1c-1.7-1.6-3.5-3-5-4.7
			c-9-8.9-18.1-18-27.1-27c-10.7-10.6-21.4-21-32.1-31.6c-4-4.1-8-8.1-12.1-12.1c-4.5-4.4-9-8.7-13.6-13.1
			c-8.1-8-16.3-16.1-24.4-24.1c-6.8-6.7-13.6-13.4-20.4-20c-6.8-6.7-13.3-13.6-20-20.3c-8-7.9-16.1-15.8-24-23.6
			c-5.2-5.3-10.5-10.5-15.8-15.6c-0.8-0.7-1.8-1.2-3.1-1.9c-3.5,3.5-6.9,6.7-10.1,10.1c-3.3,3.6-7.7,6.2-9.9,11.1
			c1.1,1.2,2,2.4,3,3.5c11,11.1,22,22.1,33.1,33.2c1.3,1.3,2.6,2.7,2.6,5c-2.9,2.9-5.7,5.8-8.7,8.8c-8.3,8.4-16.7,16.7-25,25.1
			c-1.3,1.3-2.4,2.9-3.7,4.7c6.3,7,12.9,13.2,19.5,19.6c1-0.4,1.7-0.6,2.3-1c2.3-2,4.5-4.1,6.7-6.2c8.1-8,16.3-16.1,24.4-24.1
			c1.3-1.3,2.5-2.9,3.8-4.2c1.3-1.4,3-2,4.5-1c1.7,1.2,3.2,2.6,4.8,4.1c1.2,1.2,2.3,2.5,3.6,3.7c4.5,4.7,9.2,9.2,13.7,13.7
			c1.9,1.9,3.9,3.6,5.8,5.5c4.8,4.7,9.4,9.4,14.2,14.1c4,4.1,8.2,8,12.1,12.1c2.3,2.4,2.1,3.5-0.2,5.7c-5.5,5.5-11,11.1-16.5,16.6
			c-5.4,5.4-10.7,10.7-16.2,16.1c-4.8,4.7-9.5,9.3-14.3,14.1c-7.1,7.2-14.3,14.3-21.3,21.5c-2.5,2.5-5.4,4.9-6.8,8.1
			c0.1,0.6,0.1,1.1,0.4,1.3c6.3,6.3,12.6,12.6,19,18.9c1.1,1,2.5,1,3.7,0.1c1-0.7,1.8-1.6,2.5-2.3c11.3-11.2,22.7-22.4,34-33.8
			c11-10.9,21.8-21.8,32.6-32.8c1.4-1.4,2.9-3,4.2-4.7c2.1-2.6,4.2-3,6.7-1c0.7,0.6,1.4,1.3,2,2c6.3,6.1,12.5,12.3,18.8,18.4
			c3.5,3.3,7,6.4,10.5,9.7c7.1,7,14.3,14.2,21.4,21.4c1,1,1.7,2,2.4,2.9c-1.2,2.1-2.1,3.8-3.1,5.7c-1.1,2.1-3.7,1.8-5.1,3.5
			c-0.6,0.7-1.4,1.2-2.1,1.9c-8.6,8.7-17.1,17.3-25.6,26c-0.7,0.7-1.2,1.9-1.8,3c6,6.7,12.4,12.6,18.8,18.5c1.1,1,2.4,1,3.6-0.1
			c1.8-1.4,3.5-3.1,5-4.7c9.8-9.7,19.4-19.3,29.2-29c0.8-0.7,1.7-1.4,2.5-2c3.1,1.1,5,3.2,7,5.3c1.1,1.1,2,2.4,3.1,3.3
			c6.7,6.6,13.3,13,20,19.6C595.6,454.9,599.2,458.5,603.5,462.5z M263.1,162.2c-2.1-2.6-3.8-4.9-5.8-6.9c-4.3-4.3-8.7-8.6-13-12.8
			c-1-1-2.1-0.8-3.1,0c-1,0.7-1.7,1.6-2.4,2.4c-7.3,7.3-14.5,14.6-21.8,21.8c-10,9.9-20,19.8-30,29.7c-4,4.1-7.9,8.2-11.9,12.3
			c-3.2,3.2-6.5,6.4-9.9,9.5c-2,1.8-3.6,1.7-5.5-0.1c-1.4-1.3-2.7-2.6-4-3.9c-9.3-9.3-18.6-18.6-27.9-27.9
			c-6.5-6.6-13.2-13.2-19.9-19.8c-1.2-1.2-2.5-2.4-2.6-4.8c5.7-6.8,13-12.8,19.4-19.4c6.4-6.7,13.5-12.8,19.5-20.3
			c-0.8-1.3-1.4-2.5-2.4-3.5c-5.1-5.1-10.2-10.3-15.4-15.3c-0.4-0.4-0.8-0.8-1.2-1.2c-1.2-1-2.4-1.1-3.7-0.2
			c-0.8,0.5-1.4,1.2-2.1,1.9c-5.4,5.4-10.8,10.7-16.2,16.1c-5.7,5.8-11.4,11.7-17.1,17.5c-2.3,2.3-3.9,2.3-6.3,0.1
			c-0.5-0.4-0.8-0.8-1.2-1.2c-7.9-8-15.8-16-23.8-23.9c-3.1-3.1-6.2-6.2-9.4-9.2c-1.8-1.7-3.1-1.4-4.9,0.4c-3.1,3.1-6.2,6.1-9.4,9.2
			c-2.6,2.5-5.4,4.9-7.9,7.4c-1.5,1.6-1.3,2.9,0.4,4.3c1.7,1.6,3.3,3.1,5.1,4.5c5.4,4.1,10,8.8,14.3,13.8
			c10.5,12.1,21.2,24,32.6,35.1c6.7,6.6,13.1,13.2,19.8,19.8c6.3,6.1,12.7,12.1,19,18.1c5.5,5.3,10.8,10.7,16.2,16.1
			c4.3,4.4,8.2,8.9,12.5,13.4c5.8,6,11.9,11.8,17.9,17.7c6.5,6.6,13.1,13.2,19.8,19.8c5.8,5.8,11.5,11.7,17.4,17.3
			c6.2,6,12,12.2,19,17.2c5.4,3.8,9.6,8.5,13.6,13.8c1.7,2.3,3.7,4.4,5.7,6.4c5,5,10.2,9.7,15,14.9c8.7,9.7,18.1,18.5,27.4,27.4
			c0.8,0.7,1.8,1.2,2.9,1.8c1.4-1.1,2.6-1.8,3.7-2.9c4.9-4.8,9.6-9.8,14.4-14.7c0.5-0.6,1-1.2,1.4-1.8c0.7-1.1,0.6-2.1-0.2-3.2
			c-0.4-0.5-0.7-1-1.1-1.3c-4.4-4.4-8.9-8.9-13.3-13.2c-6.1-6-12.3-11.9-18.5-17.9c-1.7-1.6-3.1-3.3-3.8-6c1.2-2,3-3.7,4.8-5.4
			c6.3-6.1,12.6-12.1,18.9-18.3c3.8-3.7,7.6-7.5,11.3-11.3c1.3-1.3,2.7-2.6,3-4.9c-6.5-6.3-13.1-12.6-19.8-18.9
			c-0.5-0.5-1.3-0.7-2.3-1.2c-1.8,1.6-3.5,2.9-5.1,4.5c-9.3,9.2-18.2,19-27.4,28.3c-0.7,0.7-1.2,1.4-1.8,2.1
			c-2.6,3.3-4.5,3.6-7.6,1.2c-0.7-0.6-1.4-1.3-2-2c-1.7-1.8-3.3-3.7-5-5.4c-8.7-8.7-17.5-17.5-26.2-26.3c-3.2-3.2-6.5-6.4-9.8-9.7
			c-2.9-2.9-5.6-5.6-8.3-8.6c-1.4-1.6-1.5-3-0.2-4.7c0.8-1.1,1.8-2,2.7-3c3.5-3.3,6.9-6.6,10.2-9.9c10.8-11.2,22.5-21.7,33.1-33.2
			c6.5-7.2,13.8-13.7,20.6-20.6C256.5,170.2,260.1,166.7,263.1,162.2z M40.7,499.2c-6.9,6.6-13.1,12.8-18.9,19.2
			c-1.3,1.4-1.2,2.7,0.5,4.5c7.7,8.1,15.6,16.2,23.3,24.2c5.4,5.5,10.7,10.9,16.1,16.2c6.2,6.2,12.3,12.5,18.5,18.7
			c6.5,6.6,13.3,13.1,19.9,19.7c7.1,7.2,14,14.4,21.3,21.5c8,7.9,16.2,15.6,24.2,23.5c13.5,13.2,26.8,26.5,40.2,39.7
			c10.7,10.5,21.5,21,32.1,31.5c5.5,5.4,10.7,10.7,16.1,16.2c7.4,7.4,14.6,14.9,21.9,22.4c5.1,5.4,10.2,10.7,15.5,16
			c3,3,6.1,5.8,9,8.7c0.8,0.7,1.8,1.4,2.7,2.1c1.1-0.7,2.1-1.2,3-2c2.1-1.9,4.2-3.9,6.1-6c3.3-3.3,6.8-6.8,10-10.1
			c1.5-1.7,1.5-2.9,0.2-4.5c-0.8-1.1-1.8-1.9-2.7-2.9c-2-2-4-4.1-6.1-6.1c-6.8-6.7-13.5-13.5-20.2-20.2c-2.3-2.3-4.6-4.5-6.9-6.9
			c-2.9-3.1-2.9-4.3,0-7.2c3-3.2,6.2-6.2,9.3-9.3c7.3-7.3,14.5-14.6,21.8-21.8c1.3-1.3,2.9-2.5,3.3-4.9
			c-4.9-6.3-11.8-11.1-16.9-17.3c-0.8-1-2.1-1.6-3.3-2.4c-2.7,1.7-5,3.7-7,5.8c-6.5,6.9-13.7,13.1-19.8,20.5
			c-2.1,2.6-5.2,4.4-6.7,7.8c-0.2,0.6-1.1,1-1.8,1.2c-1,0.5-2.1,0.8-3.5,1.4c-1.1-0.8-2.5-1.6-3.6-2.5c-2.7-2.6-5.4-5.4-8.1-8.1
			c-7-7-13.9-14.1-21-21c-5.4-5.4-11-10.6-16.4-15.8c-1.9-1.8-4-3.5-6.3-5.4c-1.5-3-0.7-5.6,2.1-8.1c3.9-3.6,7.6-7.4,11.4-11.1
			c7.6-7.5,15.2-14.9,22.7-22.6c7.1-7.2,14.2-14.4,21.2-21.6c3.5-3.6,7.1-6.9,10.5-10.5c2.5-2.7,5.2-5.5,6.9-8.7
			c-0.2-0.6-0.2-1.1-0.4-1.3c-5.5-6.9-11.7-13.1-18.1-19c-1.8-1.7-3.1-1.6-4.9,0.4c-6.3,6.3-12.7,12.5-19,19
			c-6.9,7-13.8,14.2-20.8,21.2c-6.3,6.3-12.6,12.6-18.9,19.1c-4.8,4.9-9.6,9.8-14.5,14.6c-2.3,2.3-4,2.3-6.4,0
			c-1.7-1.6-3.1-3.3-4.8-4.9c-9.5-9.5-19-19.2-28.7-28.6c-4.3-4.3-8.8-8.4-13.3-12.4c-1.2-1.1-2.9-1.7-4.2-2.4
			c-0.8-1.9-1.7-3.8-2.5-5.6c-0.7-1.6-0.6-3,0.6-4.2c0.6-0.7,1.3-1.3,2-2c10.1-10.3,20.4-20.5,30.5-30.8c1.2-1.2,2.3-2.5,3.6-3.9
			c-0.7-1.2-1.2-2.6-2-3.5c-5-5.1-10.1-10.3-15.4-15.4c-2-2-3.5-1.9-5.4,0c-8.6,8.6-17.1,17.3-25.7,25.9c-3,3-5.7,6.1-8.8,8.9
			c-1.5,1.6-2.9,1.4-4.5,0c-0.6-0.5-1.1-1.1-1.5-1.7C67.5,525.9,56.8,515,46,504.3C44.6,502.5,42.8,501.1,40.7,499.2z M483.4-20.4
			c-3,1.1-4.8,3.1-6.7,5c-4.2,4.2-8.2,8.5-12.4,12.6c-8,8-16,15.9-23.8,23.7c-11.4,11.5-22.7,23.1-34.2,34.6
			c-11.9,12.1-24,24-36,35.9c-2.7,2.7-5.2,5.5-8,8.2c-13.9,13.8-27.9,27.6-41.8,41.4c-9.3,9.3-18.6,18.6-27.9,27.9
			c-10.1,10.1-20.2,20.2-30.2,30.3c-6,6.1-11.8,12.4-17.7,18.5c-6.5,6.7-13.2,13.1-19.9,19.7c-1.2,1.2-2.7,2.1-2.7,4.3
			c0.2,0.5,0.6,1.2,1.1,1.8c2.7,2.9,5.6,5.7,8.5,8.5c2.7,2.6,5.5,5.4,8.2,7.9c1.7,1.4,3,1.6,4.5,0.1c3.9-3.6,7.7-7.3,11.4-11.1
			c3.5-3.6,6.7-7.3,10.1-10.9c4.5-4.7,9.2-9.1,13.8-13.6c0.5-0.5,1.2-0.8,1.8-1.2c0.6,0.4,1.2,0.6,1.5,1
			c5.6,5.5,11.2,10.9,16.7,16.5c6.2,6.2,12.4,12.4,18.6,18.5c0.6,0.6,1.1,1.1,1.8,1.4c1.1,0.7,2.1,0.7,3.2,0
			c0.8-0.5,1.5-1.1,2.3-1.8c4.9-4.8,9.8-9.7,14.5-14.6c1.9-1.9,1.9-3.5,0.2-5.5c-0.5-0.6-1.1-1.1-1.5-1.7c-3.9-3.8-8-7.6-11.9-11.5
			c-6.2-6.2-12.4-12.4-18.5-18.6c-1-1-1.9-1.9-2.7-3c-1.4-1.8-1.5-2.9-0.2-4.7c1.1-1.6,2.4-3,3.7-4.3c2.3-2.3,4.6-4.5,6.9-6.8
			c3.2-3.2,6.4-6.4,9.8-9.7c4.2-4.2,8.6-8.2,12.7-12.3c6.8-6.7,13.5-13.5,20.1-20.3c3-3,3-2.9,6.8-1c1.3,0.7,2.7,1.3,3.2,1.6
			c2,2.7,3.5,4.7,4.9,6.6c0.4,0.5,0.7,1,1.3,1.1c2.1,0.7,3,2.3,4.2,4.1c2,3,4.9,5.4,7.4,7.9c7.3,7,14.5,14,21.7,21
			c7,7,13.8,14.2,20.7,21.2c3.6,3.7,7,7.5,10.7,11.1c2.1,2,3.2,2,5.4,0c3.5-3.2,7-6.4,10.2-9.9c2.6-2.7,5.6-5.1,7.6-8.5
			c-0.7-2.6-2.6-4.3-4.3-6.1c-2.5-2.6-5.1-5.1-7.6-7.8c-10.7-10.7-21.5-21.6-32.3-32.3c-2.7-2.7-5.4-5.4-8.1-8
			c-7-6.9-14-14-21.1-20.9c-1.3-1.3-2.5-2.9-3.6-4.4c-0.7-1.1-0.6-2.3,0.2-3.2c1-1.2,2-2.3,3.1-3.3c7-7,13.9-14.1,21.1-21
			c8.1-7.9,15.1-16.6,23.7-23.9c0.5-0.4,0.7-0.8,1.2-1.3c2.4-2.4,4.9-4.7,7.6-7.2c2.4,1.9,4.5,3.3,6.4,5.3
			c6.1,6.1,11.9,12.3,17.9,18.4c4.4,4.5,8.9,8.8,13.3,13.4c1.1,1.1,2.1,2.1,4.2,1.9c0.7-0.6,1.7-1.2,2.5-2
			c5.5-5.5,11-11.1,16.3-16.7c0.5-0.5,0.6-1.3,0.8-2c-0.6-1-1.1-1.8-1.7-2.5c-6.7-6.8-13.3-13.6-20-20.4c-4.8-4.7-9.5-9.2-14.3-13.8
			c-2.7-2.6-2.7-4.5-0.2-7.4c0.4-0.5,0.8-0.8,1.2-1.2c10.1-10,20.2-20.2,30.4-30.2c1.8-1.7,3.6-3.3,4.2-6.3
			C496.9-7.8,490.9-15.1,483.4-20.4z M-215.7,242.7c1.3-1.6,2.4-3,3.6-4.2c6.5-6.4,13.1-12.8,19.6-19.2c7.7-7.6,15.5-15.3,23.1-22.9
			c5.8-5.7,11.5-11.6,17.4-17.4c4.2-4.2,8.5-8.2,12.6-12.4c0.7-0.7,1.3-1.8,2-2.7c-0.5-0.8-0.7-1.7-1.2-2.1
			c-5.5-5.6-11-11.1-16.5-16.6c-1.1-1.1-2.1-2.1-4.3-1.9c-3.8,3.7-8,7.6-12,11.7c-9.9,9.8-19.6,19.7-29.5,29.5
			c-7.3,7.3-14.5,14.4-21.9,21.7c-3.9,3.9-7.7,7.9-11.7,11.7c-2.5,2.5-4.2,2.5-6.9,0.1c-1.5-1.4-3-3-4.5-4.4
			c-10.5-10.3-20.8-20.6-31.2-31c-5.4-5.4-10.8-10.7-16.2-16.1c-1.1-1.1-1.9-2.3-2.9-3.6c0.8-1.2,1.4-2.1,2.3-3
			c4.2-4.2,8.3-8.4,12.5-12.5c5.1-5.1,10.4-10.1,15.5-15.3c2.3-2.3,4.5-4.7,6.5-7.2c1.2-1.4,1.2-2.6,0-4.2c-0.7-1-1.4-1.8-2.3-2.5
			c-2.9-2.9-5.7-5.6-8.6-8.4c-1.8-1.7-3.6-3.5-5.4-5.1c-2.7-2.4-3.2-2.4-5.6,0.1c-3.7,3.8-7.3,7.9-11,11.6
			c-4.3,4.3-8.8,8.5-13.2,12.6c-0.8,0.8-1.5,1.7-2.3,2.6c-1.1,1.7-2.1,3.1-4.2,3.7c-1.3,0.4-2.1,1.6-2.6,2.9c-0.4,1-0.6,2-1,3.5
			c-2.5-1.6-4.9-2.6-6.7-4.3c-4.4-4.2-8.7-8.5-12.9-12.9c-6.5-6.9-13.7-13.2-19.9-20.4c-0.8-1-2-1.6-3.5-2.5
			c-6.5,5.8-12.3,12.2-18.3,18.1c-0.7,0.7-1.2,1.9-1.8,3.1c1.9,2.1,3.7,4.1,5.6,6c6.7,6.8,13.5,13.5,20.1,20.3
			c2.4,2.5,4.5,5.1,6.9,7.5c6.3,6.3,12.6,12.6,19,19c10,9.9,20,19.8,30,29.8c4.8,4.8,9.3,9.5,14,14.2c6.2,6.2,12.6,12.2,18.8,18.4
			c10.5,10.5,21,21.1,31.4,31.6c2.4,2.4,5.1,4.5,7.5,7c9,8.9,18,18.1,27,27.1c9.9,9.8,19.8,19.4,29.8,29.2
			c10.7,10.5,21.4,21.1,32.1,31.6c4.9,4.8,9.8,9.5,14.8,14.3c1.1,1.1,2,2.3,4,2.3c4-2.4,6.9-6.3,9.9-9.9c3-3.6,7.3-6.1,9.4-10.7
			c-1.9-1.8-3.7-3.6-5.4-5.3c-9-8.9-18.1-18-27.1-27.1c-1.2-1.2-2.4-2.4-3.5-3.8c-1.2-1.4-1.1-2.7,0.1-4.2c2.3-2.5,4.6-5,7.1-7.4
			c6.2-6,12.4-11.8,18.6-17.8c2.9-2.7,5.6-5.7,8.5-8.6c1.9-1.9,2-3,0.2-4.9c-2.4-2.5-4.8-4.9-7.1-7.4c-3.8-3.9-7.7-7.9-11.7-11.7
			c-0.4-0.4-1.1-0.4-1.9-0.6c-1.2,1.1-2.5,2-3.8,3.2c-1.7,1.6-3.2,3.2-4.9,4.8c-8.5,7.8-16.5,15.8-24.2,24.2
			c-1.8,1.9-3.7,3.8-6.5,4.4c-2.6-1.1-4.3-3.2-6.1-5c-1.2-1.2-2.3-2.5-3.5-3.7c-9-8.9-18.1-18-27.3-26.8c-3.8-3.7-7.6-7.5-11.7-10.9
			C-211.1,249.4-213.4,246.6-215.7,242.7z M562.2,581.4c1.1-0.7,2.4-1.2,3.2-2.1c2.7-2.6,5.4-5.4,8.1-8.1c4.8-4.8,9.4-9.4,14.2-14.1
			c4-4.1,8-8.2,11.9-12.3c4.5-4.5,9.3-9.1,13.8-13.7c7.4-7.4,14.6-14.9,22.1-22.3c8.5-8.5,17.1-16.7,25.6-25.2
			c7.5-7.5,14.9-15.3,22.4-22.8c12.7-12.6,25.6-25.1,38.3-37.7c7.9-7.8,15.7-15.5,23.6-23.4c7.5-7.5,15-15.2,22.5-22.7
			c3.7-3.8,7.4-7.8,11.2-11.5c6.2-6.2,12.5-12.2,18.8-18.4c7.9-7.8,15.6-15.6,23.3-23.5c1.1-1.1,1.8-2.4,2.6-3.5
			c-2.1-3.8-9.3-11.6-16.1-17.4c-1-0.8-2.1-1.3-3.5-2.1c-2.1,1.9-4.3,3.6-6.2,5.5c-7.5,7.3-14.9,14.8-22.4,22.1
			c-2.1,2.1-4.4,4.2-4.8,7.3c-2.4,1-4.4,1.9-6.8,2.9c-7.3-6-13.3-12.9-20-19.3c-6.7-6.4-13.2-13.1-20.1-18.9
			c-0.8,0.2-1.3,0.2-1.5,0.5c-5.7,5.6-11.4,11.2-17.1,16.8c-0.4,0.4-0.8,0.8-1.1,1.3c-1.2,1.7-1.3,2.5,0.1,4.1
			c2.6,3,5.4,5.8,8.2,8.7c8.6,8.6,17.3,17.2,25.8,25.9c0.6,0.6,1.1,1.1,1.5,1.7c1.5,1.9,1.5,3.3-0.2,5c-8,7.9-16,15.8-23.9,23.7
			c-8.8,8.9-17.6,17.9-26.4,26.8c-0.6,0.6-1.1,1.1-1.7,1.6c-3,2.5-4.8,2.4-7.4-0.4c-1.1-1.1-2-2.4-3.1-3.5
			c-5.4-5.4-10.8-10.7-16.2-16c-2.1-2.1-4.3-4.3-6.4-6.4c-8-7.9-16-15.9-23.9-23.6c-8.1-7.9-16.2-15.6-24.3-23.4
			c-1.1-1.1-2.4-1.8-3.8-2.7c-1.5,1.1-3.2,1.8-4.4,3c-5.4,5.6-11.1,10.9-16.1,16.8c1.8,3.1,4.2,5.4,6.4,7.5
			c10.2,10.1,20.6,20.3,31,30.4c6.1,6,12.1,12.1,18.2,18.1c7.4,7.4,14.9,14.7,22.4,22.1c0.7,0.7,1.2,1.8,1.9,3
			c-18.7,18.6-37.1,37-55.6,55.4c-0.6,0.6-1.5,1-2.3,1.4c-2.3-0.4-3.7-1.6-5-2.9c-5.2-5.3-10.6-10.4-15.8-15.6
			c-6-5.8-11.9-11.8-17.9-17.7c-0.8-0.8-2.1-1.3-3.3-2c-3.5,3.5-6.8,6.6-9.9,9.9c-3.1,3.2-6.9,6-8.9,10.4c3.2,5,7.9,8.5,11.7,12.6
			c3.8,4.2,7.6,8.6,11.8,12.4c4.2,3.8,7.5,8.6,12.7,11.5c0.5,1.6,1.1,3.1,1.7,5.3c-6.3,6.4-13,12.8-19,19.6
			c-6,6.8-13.2,12.5-18.7,20.4C549,569,555.2,575.3,562.2,581.4z M763.4,18.8c-1.3,1.2-2.5,2-3.6,3.1c-3,3.2-5.8,6.6-8.9,9.7
			c-8.3,8.4-16.7,16.6-25.1,24.9c-6.1,6-12.3,11.9-18.3,17.9c-9.9,9.8-19.6,19.6-29.5,29.5c-4.5,4.5-9,9.3-13.5,14
			c-1.8,1.8-1.8,2.9-0.1,4.9c0.5,0.6,1,1.2,1.5,1.7c5.4,5.1,10.7,10.4,16.1,15.5c0.7,0.6,1.4,1.1,2.4,1.8c1.4-0.8,2.9-1.6,3.9-2.5
			c3-2.7,5.8-5.5,8.6-8.4c7-7,13.9-14.1,21-21c3.8-3.7,7.7-7.4,11.4-11.1c2.7-2.6,5.2-5.5,8-8.2c7.7-7.9,15.2-16,23.2-23.6
			c8-7.6,15.5-15.8,23.1-23.7c0.6-0.7,1.1-1.6,1.5-2.1c-0.4-2.3-1.8-3.7-3.1-4.9C775.7,30.6,770.4,23.9,763.4,18.8z M-219.2,721.5
			c-1.1-1.2-1.9-2.3-2.7-3.2c-3.7-3.6-7.4-7.2-11-10.9c-6.3-6.3-12.6-12.6-19-19c-6.2-6.2-12.6-12.2-18.8-18.4
			c-7.4-7.2-14.6-14.4-21.9-21.7c-7.1-7-14.4-14.2-21.5-21.2c-1.7-1.6-3.3-3.1-5.1-4.5c-1.2-1-2.4-1-3.7-0.1
			c-0.7,0.6-1.5,1.2-2.1,1.8c-5.2,5.3-10.5,10.5-15.7,15.8c-0.7,0.8-1.2,1.8-2,3c1.2,1.4,2.3,2.7,3.5,3.9c2.5,2.6,5.2,5,7.7,7.6
			c2.9,2.9,5.5,5.7,8.3,8.6c5.1,5,10.5,10,15.6,15.2c10.4,10.1,20.7,20.3,31,30.3c6.4,6.2,12.9,12.5,19.2,18.9
			c3.7,3.6,7.1,7.4,10.7,11.1c1.8,1.9,3.7,3.7,6.4,4.7c6.1-4.3,10.6-10,15.8-14.9C-222.8,726.7-220.4,724.8-219.2,721.5z
			 M259.6,521.6c0.7,1.1,1.1,1.8,1.5,2.3c4.9,5.3,9.9,10.6,14.9,15.8c1.4,1.4,2.7,3.2,5.5,3.5c1.9-1.7,4.2-3.3,6.2-5.4
			c6.2-6.1,12.4-12.4,18.6-18.6c12.9-13,25.7-25.9,38.6-38.9c6.9-7,13.8-14.1,20.8-21.1c4-4.1,8.2-7.9,12.4-11.8
			c1.8-1.7,3.7-3.2,4.5-5.5c-0.4-0.6-0.5-1-0.7-1.2c-5.5-5.5-11.2-10.9-16.1-16.9c-1.2-1.4-2.5-2.9-4.6-3.2
			c-0.5,0.2-1.1,0.4-1.4,0.7c-33,32.1-66,64.2-98,97.4C261.2,519.5,260.6,520.4,259.6,521.6z M81.8,621.1c-1.8,1.4-3,2.3-4,3.2
			c-1,1-1.8,1.9-2.7,3c-1,1-1.7,2.1-2.7,2.9c-4.2,2.5-7,6.4-10.6,9.4c-2,1.7-1.9,2.9,0,4.8c6.5,6.6,13.2,13.1,19.9,19.7
			c4.2,4.2,8.3,8.2,12.6,12.4c6.2,6.2,12.4,12.4,18.6,18.5c5.6,5.5,11.3,10.7,16.8,16.2c9,8.9,18,18,27.1,27
			c1.9,1.8,4.2,3.2,6.2,4.8c5.1-2.3,7.6-6.8,11.3-10c3.6-3.2,7-6.8,9.9-10.6c-0.8-2.4-2.5-3.8-3.9-5.3c-3.9-4.2-7.9-8.2-11.9-12.3
			c-5.2-5.3-10.1-11-15.7-15.6c-5.5-4.5-10.1-9.8-15.2-14.6c-7.1-6.6-13.8-13.6-20.8-20.4c-7.5-7.3-14.9-14.7-22.4-22
			C90.1,628.6,86,625.2,81.8,621.1z M282.3,142.3c2.3-0.5,3.7-2,5.2-3.5c2.4-2.3,4.6-4.5,6.9-6.8c14.9-15,29.8-30,44.8-45
			c4-4.1,8.1-8.1,12.1-12.1c4.2-4.2,8.5-8.1,12.4-12.4c4.4-4.9,9.4-9.4,13.8-14.3c2.1-2.4,5-4.2,6.2-7.5c-0.5-0.8-0.8-1.7-1.4-2.4
			c-5.6-5.6-11.3-11.2-17-16.8c-0.5-0.5-1.3-0.7-2.1-1.1c-1.1,0.8-2.1,1.6-3.1,2.5c-3.1,3.1-6.1,6.2-9.2,9.4c-2.6,2.7-5.4,5.5-8,8.2
			c-0.8,0.8-1.7,1.6-2.5,2.4c-3,3-6,5.8-8.9,8.8c-2,2-4,4.1-6.1,6c-3.6,3.5-7.1,6.8-10.6,10.3c-3.2,3.2-6.3,6.6-9.5,9.8
			c-3.3,3.3-6.9,6.4-10.4,9.8c-9.9,10-19.9,20-29.8,30c-1.4,1.4-3,2.9-3.2,5.4c0.8,1,1.5,2.1,2.5,3c5.5,5.4,11,10.6,16.4,15.9
			C281.3,141.9,281.9,142,282.3,142.3z M-36.9,21.3c-3.1,0.8-4.6,2.6-6.2,4.3c-3.1,3.3-5.8,7-9.2,10c-5.2,4.8-10.2,9.7-14.9,14.9
			C-74.8,59-82.8,67.1-91,75.1c-14.8,14.4-29.2,29-43.8,43.6c-1.5,1.6-3.5,3.1-3.6,5.5c4.4,6.1,16.2,17.5,21,20.3
			c6.9-6.1,13.6-12.9,20.2-19.6c6.9-6.8,13.7-13.7,20.6-20.5c6.7-6.8,13.3-13.5,20-20.4C-49.8,77-43,70.1-36.3,63
			c6.5-6.8,13.6-13.2,19.8-20.9c-5.8-6.2-11.3-12.1-16.9-18C-34.6,23.1-35.7,22.2-36.9,21.3z M762.7,419.3c-1.4,1.2-2.6,2.1-3.8,3.1
			c-2.9,2.7-5.7,5.6-8.6,8.4c-18.9,18.7-38,37.5-56.9,56.2c-9.9,9.8-19.4,19.9-29.2,29.8c-1.2,1.2-2.4,2.5-1.9,4.8
			c0.6,0.7,1.3,1.6,2.1,2.4c4.6,4.8,9.3,9.5,13.9,14.3c1.2,1.2,2.4,2.5,4.5,2.5c1-0.7,2-1.4,3-2.4c32.1-32.2,64.3-64.4,96.4-96.8
			c0.4-0.4,0.5-1,0.7-1.4c-0.1-2.1-1.5-3.5-3-4.8c-2.6-2.7-5.2-5.5-8-8.1C769.4,424.8,766.6,421.8,762.7,419.3z M-117.5,542.8
			c4.9-4.8,9.6-9.4,14.3-14.2c6.3-6.3,12.5-12.9,18.8-19.2c7.3-7.3,14.6-14.4,21.9-21.7c7.3-7.3,14.3-14.7,21.5-22
			c6.4-6.4,13.1-12.8,19.5-19.2c1.4-1.4,3.1-2.7,3.8-5c-0.4-0.6-0.6-1.3-1.2-1.9c-5-5-10-10-15-14.9c-1-1-2-1.8-3.1-2.5
			s-2.3-0.7-3.1,0.1c-2.3,2-4.4,4.2-6.5,6.3c-1.4,1.4-2.7,3.2-4.2,4.7c-8.6,8.4-17.4,16.6-25.8,25.1c-11.2,11.2-22.1,22.6-33.2,33.8
			c-0.4,0.4-0.8,0.8-1.2,1.2c-6.3,6.1-12.6,12.2-18.9,18.3c-2.5,2.4-4.8,4.9-7.1,7.4c-0.7,0.8-1.3,1.8-2,2.9c0.7,1.1,1.3,2.1,2,2.9
			c5.7,5.8,11.5,11.7,17.3,17.4C-119.4,542.4-118.7,542.4-117.5,542.8z M59.7,241.2c0.7,1.1,1.3,2,2,2.9
			c8.5,8.6,16.8,17.1,25.4,25.5c4.9,4.9,9.8,9.5,14.6,14.4c4.6,4.5,9,9.2,13.7,13.7c3.5,3.3,7,6.4,10.5,9.8c7,6.9,13.9,14.1,21,21.1
			c3.8,3.8,7.5,7.5,11.3,11.2c2.6,2.6,3.8,2.6,6.3,0.2c4-4.1,8.2-8,12.1-12.1c6.8-6.9,7.1-5.7-0.4-13.2c-9.3-9.5-19-18.6-28.6-27.9
			c-8.9-8.8-17.9-17.7-26.8-26.5c-6-5.8-11.9-11.7-17.9-17.7c-6.4-6.3-12.6-12.6-19-18.9c-3.3-3.2-4.2-3.2-7.5,0.1
			c-4.8,4.7-9.4,9.4-14,14.2C61.4,238.9,60.7,240,59.7,241.2z M584.6,321.4c-2.6-2.7-4.8-5-7.1-7.3c-4.8-4.7-9.8-9.1-14.2-14.1
			c-6.1-6.8-12.6-13.2-19.2-19.6c-3.1-3-6.3-6.1-9.4-9.2c-6.2-6.2-12.4-12.4-18.6-18.5c-4.2-4.2-8.5-8.2-12.7-12.3
			c-6.2-6.1-12.5-12.3-18.7-18.5c-0.2-0.2-0.6-0.5-0.8-0.7c-1-0.7-2.1-1-3.2-0.2c-1,0.6-1.9,1.3-2.6,2.1c-5,4.9-10,9.9-14.9,14.9
			c-1.9,1.9-2,2.9-0.2,4.9c3,3.2,6.1,6.3,9.2,9.4c6.2,6.1,12.5,12.3,18.7,18.4c6.1,6,12.1,12.1,18.3,18c3.8,3.7,7.6,7.4,11.5,11.1
			c7,6.7,13.9,13.5,21.1,20c6.9,6.3,13.7,12.6,19.6,19.8c2.1,2.6,3.6,2.6,6.1,0.1c4.8-4.7,9.5-9.4,14.2-14.1
			C582.6,324.5,583.3,323,584.6,321.4z M-339.1,244.1c0.2,0.5,0.6,1.2,1.2,1.7c7,7.2,14,14.4,21.2,21.6c6.4,6.4,13.1,12.8,19.5,19.2
			c3.5,3.3,6.7,6.7,10.1,10c7,6.9,14.3,13.7,21.3,20.6c7.4,7.2,14.6,14.4,21.9,21.7c1.2,1.2,2.4,2.4,4.3,2.6
			c6.2-6.8,12.4-13.5,18.6-20.2c0.5-0.6,0.8-1.2,1.4-2.1c-2.1-2.3-4.2-4.4-6.3-6.6c-6.4-6.3-12.9-12.5-19.2-18.7
			c-4-4.1-8.1-8.1-12.1-12.1c-5.1-5-10.5-10-15.6-15.2c-9.5-9.5-19-19.2-28.6-28.6c-4.8-4.7-9.6-9.2-14.5-13.7
			c-0.8-0.7-1.8-1.2-3-1.9c-6.4,5.4-12,11.3-17.7,17.2C-337.8,240.6-339.1,241.8-339.1,244.1z M462.2,643c0.6,1.1,1,2,1.5,2.6
			c32.6,32.1,65.4,64.3,98.2,96.7c1.4-1,2.9-1.6,3.9-2.6c5-4.9,10-9.9,14.9-14.9c0.7-0.8,1.3-1.8,2.1-2.9c-1.2-1.4-2.3-2.9-3.3-4.1
			c-7.6-7.8-15.1-15.5-22.9-23.1c-11.2-11.1-22.5-22.1-33.8-33.2c-11.5-11.3-23-22.8-34.5-34.1c-1.8-1.7-3.3-3.6-5.7-4.3
			C478.9,625.4,465.6,638.5,462.2,643z"/>
		<path d="M-117.6-17.6c1-0.5,1.9-0.7,2.5-1.4c6.3-6.3,13-12.3,19-19.2c-0.7-1.2-1.3-2.4-2.1-3.2c-2.5-2.6-5.1-5.1-7.6-7.8
			c-1.1-1.1-1.9-2.1-3.2-3.8c1.2-0.2,1.8-0.6,2.5-0.6c9.9-0.1,19.8,0,29.6-0.1c3.2,0,5.8,0.8,8.1,3.3c2.7,3.1,6,6,8.8,8.9
			c1.5,1.7,1.5,2.9,0,4.5c-2.7,2.9-5.6,5.7-8.5,8.5c-8,7.9-16,15.8-23.9,23.7c-6.1,6.1-12,12.2-18.1,18.3c-1.1,1.1-2.3,2-3.5,3
			c-3.5,3-4.4,3.2-7.5-0.1c-6.2-6.7-13.1-12.6-19.3-19.3c-5.1-5.4-10.5-10.5-15.7-15.8c-1.7-1.6-3.1-3.3-4.8-4.9
			c-8.3-8.4-16.8-16.6-25.2-24.9c-1.4-1.4-3-2.7-5-4.5c1.1-0.4,1.8-0.7,2.4-0.8c10.2-0.1,20.6-0.1,30.8-0.1c2.3,0,3.9,1.1,5.5,2.6
			c4,4.1,8.1,8.1,12.1,12.1c6.8,6.7,13.6,13.4,20.4,19.9C-119.4-18.7-118.6-18.2-117.6-17.6z"/>
		<path d="M283.2-19.1c1.1-0.8,2-1.2,2.6-1.9c5.6-6.4,12.7-11.5,18.1-18.3c-2.4-5.3-7.7-7.9-10.7-13c1.1-0.2,1.7-0.6,2.4-0.6
			c9.8-0.1,19.4,0,29-0.1c3.1,0,5.5,1,7.4,3.5c1,1.3,2.5,2.4,3.8,3.5c1.5,1.3,3.1,2.7,3.7,5c-0.6,2.1-2.3,3.3-3.8,4.8
			c-4.8,4.7-9.5,9.3-14.3,14c-7.6,7.4-15.2,14.9-22.7,22.4c-3.5,3.5-6.9,7-10.2,10.7c-2.7,3.1-3.5,3.7-7.3,5.4
			c-2.3-0.7-3.7-2.5-5.4-4.1C270.4,6.8,265,1.6,260-4.1c-11.4-13-24.3-24.6-36.3-37.1c-3.5-3.6-6.9-7-10.1-10.4
			c0.5-2,1.9-1.4,2.9-1.4c8,0,16,0,23.9,0c0.4,0,0.8,0.1,1.2,0.1c6.3-1.1,10.4,2.3,14,6.7c7.7,9.2,16.4,17.4,25.2,25.5
			C281.4-20.2,282.1-19.8,283.2-19.1z"/>
		<path d="M614.2-52.3c6.3,0,12.5,0,18.8,0c4.4,0,8.7,0,13.1,0c2.6,0,4.8,0.8,6.5,2.7c6.8,6.9,13.6,13.8,20.5,20.6
			c2.9,2.9,5.7,5.6,8.6,8.4c0.4,0.4,1,0.5,1.4,0.6c5.4-3.6,17.3-15.5,20.6-20.5c-2.1-4.2-6.5-6.4-9.3-11.1c1.4-0.2,2.4-0.5,3.2-0.5
			c9.5,0,19,0.1,28.6,0.1c2.5,0,4.4,0.6,6.1,2.5c1.9,2.1,4.2,3.9,6.2,6c0.7,0.8,1.3,1.8,1.8,2.6c-0.7,2.6-2.6,3.9-4.2,5.6
			c-4.9,4.9-9.6,9.7-14.5,14.6c-3.1,3.1-6.3,6.1-9.4,9.2c-7.9,8-15.7,16-23.6,24c-4.4,4.5-5.8,4.7-10.4,0.4
			c-3.6-3.5-6.9-7-10.5-10.6c-6.9-6.8-13.7-13.6-20.6-20.5c-3.2-3.2-6.4-6.4-9.6-9.8c-5.2-5.3-10.5-10.5-15.8-15.6
			c-1.8-1.7-3.8-3.2-5.6-4.9c-1-0.8-1.8-1.7-2.7-2.6C613.9-51.6,614.1-52,614.2-52.3z"/>
		<path d="M-364.7-54.1c-0.6,2.4-1.9,3.7-3.2,5c-9.6,9.7-19.5,19.1-28.6,29.5c-5.2,6-11.1,11.6-16.5,17.3c-2.1,2.1-4,4.5-6.1,6.8
			c-5.8,6.7-11.4,13.6-17.4,20.3c-3.7,4.1-7.7,7.9-11.7,11.7c-0.4,0.4-1,0.5-1.8,0.8c-0.2-0.8-0.6-1.4-0.6-2.1
			c-0.1-8.6,0-17.2-0.1-25.8c-0.1-3.3,1.1-5.8,3.2-8.2c13.7-14.8,27.4-29.6,41-44.4c2.5-2.6,4.9-5.4,7.4-8c2.1-2.3,4.8-3.3,8.1-3.3
			c7.3,0.2,14.4,0,21.7,0C-368-54.5-366.4-54.3-364.7-54.1z"/>
		<path d="M-420.5,244.1c-3,4.4-24.4,28.2-28.9,32c-1.2-1.2-0.8-2.7-0.8-4.2c-0.1-13,0-25.9-0.1-38.9c0-4.5,0-9.2,0-13.7
			c0-1.7-0.2-3.5,1-5c0.6,0.2,1.2,0.2,1.5,0.6c5.5,5.5,11.1,11,16.5,16.5c2.5,2.5,5.1,5.1,7.6,7.8c1,1,1.8,2,2.5,3.1
			C-421,242.6-420.7,243.5-420.5,244.1z"/>
		<path d="M-422.5,644c-0.7,1.1-1.1,1.9-1.8,2.6c-8,8.4-16,16.7-23.9,25.1c-0.1,0.1-0.4,0-0.8,0c-1-1.2-0.6-2.7-0.6-4.2
			c-0.7-19.4-0.4-47.4,0.6-51.7C-445.5,618.3-425.9,639.1-422.5,644z"/>
		<path d="M913.3,551.9c0.2,5.6,0.6,11,0,16.8c-2.9-0.5-4.3-2.3-5.6-4.1c-3.1-4.1-4.8-4.9,0.2-9.4c1.4-1.2,2.9-2.5,4.3-3.7
			C912.2,551.7,912.4,551.8,913.3,551.9z"/>
		<path d="M907.9,161.7c0.8-1.1,1.5-2.3,2.5-3.5c0.5-0.6,1.1-1,1.9-1.8c1.3,3.6,0.7,6.8,0.6,10.1
			C909.7,165.5,909.7,165.5,907.9,161.7z"/>
	</g>
</g>
</svg>
